<svg width="317" height="50" viewBox="0 0 317 50" fill="none" xmlns="http://www.w3.org/2000/svg">
<path d="M2.30578 24.4623C-2.28385 14.2351 2.18297 6.14417 11.9578 1.757C17.3637 -0.667538 23.9203 0.979693 28.1333 3.87752C31.868 6.44767 28.1477 20.5063 30.1879 25.0626C34.7552 35.3111 41.5936 43.4284 32.165 48.4241C29.5065 49.8366 6.88982 34.6948 2.30578 24.4623Z" fill="#194049"/>
<path d="M53.1745 47.1436C53.1745 47.1436 75.217 50.6802 83.8821 33.8123C92.5472 16.9444 86.5561 16.3787 84.1052 12.4272C80.2979 6.28134 76.8324 3.41021 75.0486 2.0916C74.9204 1.99633 74.7728 1.93048 74.6162 1.89875C74.4597 1.86702 74.298 1.87019 74.1428 1.90803C73.9875 1.94587 73.8426 2.01745 73.7182 2.11766C73.5938 2.21787 73.4931 2.34425 73.4232 2.48778C71.4307 6.60534 64.6229 20.6276 62.8914 24.0187C60.8541 28.007 54.9217 41.4334 53.1745 47.1436Z" fill="#194049"/>
<path d="M155.289 16.1277C154.777 14.5503 153.919 13.1072 152.778 11.9037C151.637 10.7002 150.241 9.76672 148.694 9.17134C148.17 8.98997 147.628 8.86913 147.077 8.81117C146.32 8.71068 145.595 8.44154 144.956 8.02362C144.317 7.60569 143.78 7.04964 143.385 6.39648C143.373 6.37437 143.359 6.35317 143.344 6.33305C139.638 0.787862 132.427 -1.33689 126.484 2.01786C124.716 2.99769 123.218 4.39997 122.124 6.09958C121.03 7.79918 120.374 9.74322 120.214 11.7582C120.146 12.4959 119.892 13.2043 119.476 13.8174C119.06 14.4305 118.496 14.9284 117.836 15.2647L117.793 15.2874C116.853 15.7925 115.877 16.2229 114.941 16.7325C112.536 18.0464 110.382 19.9831 109.202 22.4929C106.659 27.8977 107.651 34.5596 112.208 38.6211C114.366 40.542 117.005 41.9577 119.877 42.4176C121.375 42.6444 122.893 42.7203 124.407 42.6441H124.425C126.776 42.5512 128.209 43.7087 129.788 45.2287C132.427 47.7679 136.13 48.9957 139.722 48.144C142.97 47.3761 145.525 45.1063 147.02 42.1661C147.851 40.4886 148.372 38.6744 148.558 36.8112C148.784 34.8609 148.558 32.9604 148.63 31.0078C148.631 30.7204 148.675 30.4347 148.762 30.1606C148.988 29.4969 149.604 29.0439 150.204 28.6769C151.835 27.6804 153.235 26.3475 154.311 24.7672C155.962 22.3072 156.236 18.8981 155.289 16.1277Z" fill="#194049"/>
<path d="M166.551 2.92375C168.103 2.40875 207.846 19.8687 212.831 25.1765C209.166 29.9403 195.92 39.262 192.712 41.631C188.701 44.5923 166.68 46.828 166.551 45.5405C166.421 44.253 164.998 3.43876 166.551 2.92375Z" fill="#194049"/>
<path d="M231.269 0.311341L223.676 39.5028L224.44 44.1777L234.173 46.0633L251.709 49.4607L253.756 38.8974L256.44 25.0426C256.787 19.2327 257.563 7.18436 257.895 5.46974C258.227 3.75511 240.283 1.31638 231.269 0.311341Z" fill="#194049"/>
<path d="M279.493 33.1302C284.552 43.4555 296.616 47.9237 306.436 43.1122C311.887 40.4414 314.883 34.1905 315.354 28.9756C315.772 24.3384 317.318 20.2981 315.059 15.689C310.003 5.36975 297.939 0.901616 288.113 5.71606C278.287 10.5305 274.437 22.811 279.493 33.1302Z" fill="#194049"/>
</svg>
