<svg width="19" height="25" viewBox="0 0 19 25" fill="none" xmlns="http://www.w3.org/2000/svg">
<path d="M9.5 25C8.87011 25 8.26602 24.7366 7.82062 24.2678C7.37522 23.7989 7.125 23.163 7.125 22.5H11.875C11.875 23.163 11.6248 23.7989 11.1794 24.2678C10.734 24.7366 10.1299 25 9.5 25ZM19 21.25H0V18.75L2.375 17.5V10.625C2.375 6.2975 4.06244 3.49125 7.125 2.725V0H11.875V2.725C14.9376 3.49 16.625 6.295 16.625 10.625V17.5L19 18.75V21.25ZM9.5 4.6875C8.78682 4.63903 8.07347 4.77953 7.42519 5.09616C6.77692 5.4128 6.21439 5.89545 5.78906 6.5C5.0499 7.7307 4.68723 9.17048 4.75 10.625V18.75H14.25V10.625C14.3127 9.17049 13.95 7.73073 13.2109 6.5C12.7856 5.89545 12.2231 5.4128 11.5748 5.09616C10.9265 4.77953 10.2132 4.63903 9.5 4.6875Z" fill="#B6B6B6"/>
</svg>
