<svg width="33" height="33" viewBox="0 0 33 33" fill="none" xmlns="http://www.w3.org/2000/svg">
<path d="M22.6555 22.1009C22.6555 22.2613 22.5243 22.3926 22.3639 22.3926L19.9576 22.3816L16.3336 18.0613L12.7133 22.378L10.3034 22.3889C10.143 22.3889 10.0117 22.2613 10.0117 22.0973C10.0117 22.028 10.0372 21.9624 10.081 21.9077L14.8242 16.2566L10.081 10.6092C10.0369 10.5558 10.0125 10.4889 10.0117 10.4196C10.0117 10.2592 10.143 10.1279 10.3034 10.1279L12.7133 10.1389L16.3336 14.4592L19.954 10.1425L22.3602 10.1316C22.5206 10.1316 22.6519 10.2592 22.6519 10.4232C22.6519 10.4925 22.6264 10.5581 22.5826 10.6128L17.8467 16.2603L22.5899 21.9113C22.6337 21.9624 22.6555 22.0316 22.6555 22.1009Z" fill="#6C6C6C"/>
<path d="M16.3334 32.6667C7.31358 32.6667 0 25.3532 0 16.3333C0 7.3135 7.31358 -8.10623e-05 16.3334 -8.10623e-05C25.3533 -8.10623e-05 32.6668 7.3135 32.6668 16.3333C32.6668 25.3532 25.3533 32.6667 16.3334 32.6667ZM16.3334 2.77077C8.84484 2.77077 2.77085 8.84475 2.77085 16.3333C2.77085 23.8219 8.84484 29.8959 16.3334 29.8959C23.822 29.8959 29.896 23.8219 29.896 16.3333C29.896 8.84475 23.822 2.77077 16.3334 2.77077Z" fill="#6C6C6C"/>
</svg>
