<svg width="33" height="21" viewBox="0 0 33 21" fill="currentColor" xmlns="http://www.w3.org/2000/svg">
<path d="M0.000854385 2.82547C0.0572318 2.63413 0.10763 2.44023 0.170841 2.25059C0.628693 0.881307 1.85106 0.00660369 3.33823 0.00318688C6.24166 -0.00279254 9.1451 0.00147681 12.0485 0.00147681C17.834 0.00147681 23.6196 -0.000230764 29.4051 0.00233184C31.04 0.00318605 32.3247 0.975269 32.6989 2.50088C32.7689 2.78789 32.798 3.09113 32.798 3.38754C32.804 8.05234 32.8048 12.7171 32.8005 17.3819C32.7988 19.3569 31.386 20.7672 29.4051 20.768C20.7375 20.7706 12.0699 20.7706 3.40229 20.768C1.67424 20.7672 0.401476 19.7293 0.0538152 18.0559C0.0461274 18.0166 0.0187925 17.9825 0 17.9457C0.000854203 12.9051 0.000854385 7.86527 0.000854385 2.82547ZM16.434 1.09315C12.11 1.09315 7.78606 1.09229 3.46123 1.09315C1.99286 1.09315 1.09253 1.99775 1.09253 3.47296C1.09167 8.07455 1.09167 12.6761 1.09253 17.2777C1.09253 18.7752 1.98773 19.6755 3.47661 19.6755C12.093 19.6763 20.7093 19.6763 29.3256 19.6755C30.8137 19.6755 31.7106 18.7743 31.7106 17.2786C31.7114 12.6872 31.7114 8.09676 31.7106 3.50542C31.7106 1.98579 30.8214 1.0923 29.3103 1.0923C25.0179 1.09315 20.7264 1.09315 16.434 1.09315Z" fill="currentColor"/>
<path d="M6.0517 3.83011C6.56423 3.83011 7.07675 3.82413 7.58927 3.83096C8.61773 3.84549 9.28742 4.52116 9.29255 5.5462C9.29597 6.22956 9.29682 6.91293 9.29255 7.59629C9.28572 8.59058 8.5921 9.28676 7.59696 9.29274C6.54031 9.29872 5.4828 9.29957 4.42616 9.29274C3.44468 9.2859 2.75619 8.60169 2.74338 7.62021C2.73398 6.91549 2.73398 6.21077 2.74338 5.50605C2.75619 4.51262 3.42076 3.8489 4.41932 3.83182C4.96259 3.82242 5.50758 3.83011 6.0517 3.83011ZM7.12885 8.20021C7.32617 8.20021 7.48591 8.20875 7.64565 8.1985C7.97537 8.17629 8.19234 7.9747 8.19746 7.6501C8.20857 6.92489 8.20857 6.19881 8.19746 5.47274C8.19234 5.13875 7.98562 4.9457 7.65163 4.92691C7.4842 4.91751 7.31507 4.9252 7.12885 4.9252C7.12885 6.02541 7.12885 7.09658 7.12885 8.20021ZM6.00814 4.93374C5.41618 4.93374 4.85326 4.92093 4.29119 4.93972C4.04091 4.94826 3.87861 5.12252 3.84871 5.36938C3.82309 5.57439 3.84359 5.78538 3.84359 5.99039C4.59016 5.99039 5.29659 5.99039 6.00814 5.99039C6.00814 5.63419 6.00814 5.30617 6.00814 4.93374ZM3.83932 7.12733C3.83932 7.33234 3.82821 7.52198 3.84188 7.7099C3.86238 7.97897 4.03151 8.16861 4.2835 8.18142C4.8524 8.21046 5.42386 8.19082 5.99105 8.19082C5.99105 7.81411 5.99105 7.46987 5.99105 7.12819C5.26584 7.12733 4.56624 7.12733 3.83932 7.12733Z" fill="currentColor"/>
<path d="M7.63817 16.9412C6.22959 16.9412 4.82187 16.9429 3.41329 16.9403C3.01096 16.9394 2.79143 16.7831 2.75042 16.485C2.70857 16.1852 2.87856 15.9332 3.17838 15.87C3.29199 15.8461 3.41158 15.8478 3.5286 15.8478C6.28085 15.8469 9.03394 15.8461 11.7862 15.8486C11.9237 15.8486 12.0672 15.8512 12.1962 15.8913C12.4644 15.9742 12.5891 16.1766 12.5618 16.4551C12.5362 16.7199 12.3816 16.8831 12.1176 16.9258C12.0032 16.9446 11.8836 16.9403 11.7665 16.9403C10.3904 16.9412 9.01429 16.9412 7.63817 16.9412Z" fill="currentColor"/>
<path d="M16.69 16.9402C15.8794 16.9393 15.0687 16.9479 14.2581 16.9368C13.7985 16.93 13.5115 16.5097 13.743 16.1595C13.8429 16.0083 14.0813 15.8648 14.2589 15.8622C15.8691 15.8391 17.481 15.8443 19.0912 15.8519C19.4533 15.8537 19.6737 16.0817 19.6737 16.3986C19.6737 16.7309 19.4525 16.9359 19.0587 16.9393C18.2694 16.9453 17.4793 16.9402 16.69 16.9402Z" fill="currentColor"/>
<path d="M2.74584 13.1032C2.74584 12.911 2.73388 12.7188 2.7484 12.5283C2.76976 12.2422 2.96879 12.0508 3.24213 12.0371C3.5394 12.0226 3.77174 12.1644 3.79822 12.4506C3.83922 12.8931 3.8341 13.3432 3.79822 13.7866C3.77601 14.059 3.5001 14.2307 3.24213 14.2094C2.97733 14.1872 2.7689 13.9873 2.7484 13.7097C2.73388 13.5089 2.74584 13.3056 2.74584 13.1032Z" fill="currentColor"/>
<path d="M13.6568 13.129C13.6568 13.3212 13.667 13.5134 13.6542 13.7039C13.6346 14.0037 13.4484 14.1643 13.1656 14.2062C12.9111 14.2438 12.6266 14.0635 12.6061 13.7927C12.5711 13.3392 12.5668 12.8779 12.613 12.426C12.6429 12.1381 12.8914 12.0083 13.1853 12.0408C13.4655 12.0715 13.6303 12.2406 13.6525 12.5208C13.6688 12.7216 13.6559 12.9257 13.6559 13.1282C13.6559 13.129 13.6568 13.129 13.6568 13.129Z" fill="currentColor"/>
<path d="M4.92812 13.1203C4.92812 12.9281 4.91787 12.7359 4.93069 12.5446C4.94948 12.2448 5.15534 12.0474 5.44236 12.0355C5.72766 12.0235 5.9805 12.2029 6.00015 12.495C6.02834 12.9085 6.02748 13.327 6.00015 13.7405C5.98136 14.0249 5.71143 14.2239 5.44406 14.2111C5.1579 14.1975 4.94265 13.9745 4.92812 13.6636C4.91958 13.4825 4.92642 13.3014 4.92642 13.1203C4.92727 13.1203 4.92812 13.1203 4.92812 13.1203Z" fill="currentColor"/>
<path d="M8.19873 13.1092C8.19873 13.3014 8.20983 13.4935 8.19616 13.6849C8.17481 13.989 7.93819 14.2119 7.65631 14.2136C7.37442 14.2153 7.1267 13.9907 7.1156 13.6883C7.10107 13.3048 7.10022 12.9204 7.11645 12.5368C7.12926 12.2396 7.3505 12.0431 7.63581 12.0354C7.93478 12.0269 8.16712 12.2251 8.1936 12.5334C8.20983 12.7239 8.19702 12.917 8.19702 13.1092C8.19787 13.1092 8.19873 13.1092 8.19873 13.1092Z" fill="currentColor"/>
<path d="M11.4751 13.1228C11.4751 13.3039 11.4828 13.4859 11.4734 13.6661C11.4572 13.977 11.2402 14.1991 10.954 14.2111C10.6867 14.2222 10.4184 14.0215 10.4005 13.7379C10.3749 13.3236 10.3732 12.9059 10.4022 12.4924C10.4219 12.202 10.6764 12.0235 10.9626 12.0363C11.2487 12.0491 11.4469 12.2473 11.4742 12.5471C11.4759 12.5685 11.4768 12.5898 11.4768 12.6112C11.4768 12.782 11.4768 12.952 11.4768 13.1228C11.4759 13.1228 11.4759 13.1228 11.4751 13.1228Z" fill="currentColor"/>
<path d="M20.237 13.1082C20.2361 12.9272 20.2284 12.7452 20.2387 12.565C20.2558 12.2566 20.4462 12.0576 20.7316 12.0371C21.0297 12.0157 21.2911 12.1994 21.3116 12.5069C21.3389 12.9203 21.338 13.3389 21.3073 13.7515C21.2859 14.0359 21.0092 14.2298 20.7427 14.2102C20.4667 14.1897 20.2575 13.9778 20.2404 13.6831C20.2284 13.4926 20.237 13.3004 20.237 13.1082Z" fill="currentColor"/>
<path d="M22.4213 13.1084C22.4213 12.9273 22.4128 12.7454 22.423 12.5651C22.4401 12.2482 22.6511 12.0415 22.9492 12.0355C23.2473 12.0296 23.4873 12.2277 23.5027 12.5387C23.5224 12.9324 23.5224 13.3279 23.5002 13.7217C23.4839 14.0062 23.2285 14.2146 22.9603 14.2137C22.6759 14.212 22.4478 13.9882 22.4222 13.685C22.4205 13.6636 22.4205 13.6423 22.4205 13.6209C22.4205 13.4501 22.4205 13.2801 22.4205 13.1093C22.4205 13.1084 22.4213 13.1084 22.4213 13.1084Z" fill="currentColor"/>
<path d="M19.1322 13.1348C19.1322 13.3261 19.1493 13.52 19.1279 13.7097C19.0929 14.0172 18.846 14.2256 18.5658 14.2119C18.2788 14.1983 18.0636 13.9813 18.0516 13.6635C18.0388 13.3013 18.0388 12.9392 18.0516 12.577C18.0627 12.249 18.266 12.0474 18.5641 12.0354C18.8733 12.0235 19.1023 12.2259 19.1322 12.559C19.1493 12.7495 19.1356 12.9426 19.1356 13.1339C19.1347 13.1348 19.1339 13.1348 19.1322 13.1348Z" fill="currentColor"/>
<path d="M15.8411 13.122C15.8411 13.3244 15.8565 13.5277 15.8377 13.7285C15.8104 14.0078 15.5934 14.2009 15.3286 14.2128C15.0698 14.2248 14.8058 14.0437 14.7871 13.7703C14.7563 13.3364 14.7555 12.8982 14.7871 12.4643C14.8076 12.1858 15.0561 12.0243 15.3329 12.0354C15.6062 12.0466 15.8001 12.2302 15.8411 12.5147C15.8454 12.5463 15.8497 12.5779 15.8497 12.6103C15.8505 12.7812 15.8497 12.9512 15.8497 13.122C15.848 13.122 15.8446 13.122 15.8411 13.122Z" fill="currentColor"/>
</svg>
