<svg width="141" height="89" viewBox="0 0 141 89" fill="none" xmlns="http://www.w3.org/2000/svg">
<path d="M133.907 88.9999H6.1382C2.7482 88.9999 0 86.2517 0 82.8617V6.92726C0 3.53726 2.7482 0.789062 6.1382 0.789062H133.904C137.294 0.789062 140.042 3.53726 140.042 6.92726V82.8617C140.045 86.2517 137.297 88.9999 133.907 88.9999Z" fill="#BBBBBB"/>
<path d="M32.4303 44.8875H16.7328C15.2061 44.8875 13.9648 43.6491 13.9648 42.1195V28.9694C13.9648 27.4426 15.2032 26.2014 16.7328 26.2014H32.4303C33.9571 26.2014 35.1983 27.4398 35.1983 28.9694V42.1195C35.1983 43.6491 33.96 44.8875 32.4303 44.8875Z" fill="#FFFB0A" stroke="#BBBBBB" stroke-width="0.5" stroke-miterlimit="10"/>
<path d="M19.7356 41.9782H13.9678V37.2537H21.9975V39.7163C21.9975 40.966 20.9853 41.9782 19.7356 41.9782Z" stroke="#BBBBBB" stroke-width="0.5" stroke-miterlimit="10"/>
<path d="M29.4299 41.9782H35.1977V37.2537H27.168V39.7163C27.168 40.966 28.1802 41.9782 29.4299 41.9782Z" stroke="#BBBBBB" stroke-width="0.5" stroke-miterlimit="10"/>
<path d="M19.7356 29.6455H13.9678V34.37H21.9975V31.9074C21.9975 30.6577 20.9853 29.6455 19.7356 29.6455Z" stroke="#BBBBBB" stroke-width="0.5" stroke-miterlimit="10"/>
<path d="M29.4299 29.6455H35.1977V34.37H27.168V31.9074C27.168 30.6577 28.1802 29.6455 29.4299 29.6455Z" stroke="#BBBBBB" stroke-width="0.5" stroke-miterlimit="10"/>
<path d="M26.3665 40.0358H22.7531C21.5345 40.0358 20.5449 39.0462 20.5449 37.8276V34.2143C20.5449 32.9957 21.5345 32.0061 22.7531 32.0061H26.3665C27.5851 32.0061 28.5746 32.9957 28.5746 34.2143V37.8276C28.5746 39.0491 27.5879 40.0358 26.3665 40.0358Z" fill="#FFFB0A" stroke="#BBBBBB" stroke-width="0.5" stroke-miterlimit="10"/>
<path d="M20.1124 57.4183H14.6924V56.375H16.8242V51.9021C16.1145 52.5213 15.4699 52.9454 14.8903 53.1772V51.9021C15.4812 51.6787 15.8516 51.5176 16.0015 51.4215C16.1513 51.3253 16.369 51.15 16.6546 50.8927C16.943 50.6354 17.1437 50.4008 17.2625 50.1887H18.1135V56.3722H20.1153V57.4183H20.1124Z" fill="white"/>
<path d="M26.0426 56.313V57.4185H20.8232V56.1773L22.9918 54.7354C23.6676 54.2858 24.1199 53.8872 24.3518 53.5394C24.5836 53.1916 24.6996 52.8721 24.6996 52.5809C24.6996 52.2303 24.5836 51.9391 24.3518 51.6988C24.1199 51.4613 23.8202 51.3397 23.4499 51.3397C22.6412 51.3397 22.1747 51.8317 22.0531 52.8184L20.8232 52.5131C20.9165 51.8826 21.1965 51.3454 21.6601 50.8958C22.1238 50.4463 22.7345 50.2229 23.4894 50.2229C24.2698 50.2229 24.8946 50.4463 25.3612 50.8902C25.8277 51.3341 26.0623 51.8995 26.0623 52.5837C26.0623 53.1888 25.8559 53.7288 25.4403 54.2038C25.0247 54.6788 23.9955 55.38 22.3528 56.3074H26.0426V56.313Z" fill="white"/>
<path d="M28.8971 54.2913V53.2848H29.5446C29.9319 53.2848 30.2543 53.1971 30.5144 53.0247C30.7745 52.8522 30.9045 52.5949 30.9045 52.2528C30.9045 51.9164 30.7943 51.6647 30.5737 51.4951C30.3532 51.3254 30.0705 51.2406 29.7255 51.2406C29.0272 51.2406 28.5522 51.5827 28.2977 52.2669L27.13 52.0634C27.2601 51.5233 27.5654 51.0823 28.0404 50.7402C28.5154 50.3981 29.0894 50.2256 29.7595 50.2256C30.4267 50.2256 30.9979 50.3981 31.47 50.743C31.9422 51.0879 32.1769 51.5488 32.1769 52.1256C32.1769 52.5553 32.0496 52.9201 31.7952 53.2254C31.5407 53.5308 31.2269 53.6948 30.8537 53.723C31.3173 53.7937 31.6906 53.9832 31.9705 54.2998C32.2532 54.6137 32.3946 54.9925 32.3946 55.4364C32.3946 56.0443 32.1486 56.5447 31.6595 56.9377C31.1703 57.3307 30.52 57.5258 29.7057 57.5258C28.9565 57.5258 28.3345 57.3336 27.8453 56.9519C27.3562 56.5702 27.048 56.132 26.918 55.6372L28.1281 55.3403C28.3712 56.1291 28.8915 56.5221 29.6944 56.5221C30.1101 56.5221 30.4437 56.4147 30.6982 56.2026C30.9526 55.9906 31.0798 55.7333 31.0798 55.4336C31.0798 55.1282 30.9696 54.8625 30.749 54.6334C30.5285 54.4044 30.1977 54.2885 29.7566 54.2885H28.8971V54.2913Z" fill="white"/>
<path d="M37.7606 57.4184H36.4487V55.8096H33.3047V54.8766L36.4487 50.1917H37.7606V54.7211H38.8237V55.8096H37.7606V57.4184ZM36.542 51.5262L34.5346 54.7211H36.4487V52.7646C36.4487 52.5582 36.46 52.3715 36.4798 52.2047L36.542 51.5262Z" fill="white"/>
<path d="M43.0642 50.3384H47.4692L47.3561 51.4326H44L43.8021 53.4881C44.2262 52.9452 44.7832 52.6738 45.4674 52.6738C46.1488 52.6738 46.7228 52.9085 47.1921 53.3806C47.6615 53.85 47.8961 54.4098 47.8961 55.0572C47.8961 55.733 47.6501 56.3126 47.1582 56.8017C46.6662 57.288 45.9933 57.534 45.1338 57.534C44.4524 57.534 43.8558 57.3757 43.3469 57.0618C42.838 56.748 42.5043 56.2589 42.3545 55.5944L43.5787 55.4135C43.8162 56.1373 44.3139 56.4964 45.0688 56.4964C45.5324 56.4964 45.8887 56.355 46.1403 56.0751C46.392 55.7952 46.5164 55.4559 46.5164 55.0572C46.5164 54.6642 46.392 54.3306 46.1432 54.0592C45.8944 53.7878 45.572 53.652 45.1734 53.652C44.5711 53.652 44.1159 53.9263 43.8049 54.4776L42.6627 54.2543L43.0642 50.3384Z" fill="white"/>
<path d="M53.8596 51.95L52.7796 52.1564C52.5788 51.492 52.1632 51.1612 51.5355 51.1612C50.9333 51.1612 50.512 51.4213 50.2717 51.9415C50.0314 52.4618 49.9098 53.0103 49.9098 53.5899C49.9098 53.703 49.9126 53.8189 49.9155 53.932C50.2689 53.2223 50.8768 52.8689 51.7419 52.8689C52.412 52.8689 52.9718 53.0809 53.4214 53.5079C53.8709 53.932 54.0943 54.4692 54.0943 55.1166C54.0943 55.8009 53.854 56.3748 53.3733 56.8357C52.8927 57.2965 52.2876 57.5284 51.5582 57.5284C50.6477 57.5284 49.9324 57.2089 49.4122 56.5671C48.892 55.9253 48.6318 55.046 48.6318 53.9292C48.6318 52.8321 48.8863 51.9415 49.3981 51.2573C49.907 50.5731 50.5912 50.231 51.4507 50.231C52.7428 50.2281 53.5458 50.8021 53.8596 51.95ZM51.5157 56.5897C51.8974 56.5897 52.2169 56.4738 52.4771 56.2448C52.7372 56.0157 52.8701 55.6623 52.8701 55.1902C52.8701 54.8678 52.7457 54.5681 52.4997 54.2882C52.2537 54.0083 51.9088 53.867 51.4705 53.867C51.069 53.867 50.7467 53.9998 50.5007 54.2656C50.2547 54.5314 50.1332 54.8594 50.1332 55.2467C50.1332 55.6369 50.2604 55.9592 50.512 56.2108C50.7637 56.4625 51.0973 56.5897 51.5157 56.5897Z" fill="white"/>
<path d="M55.1551 50.3384H60.1821V51.2403C59.3113 52.3713 58.7317 53.3523 58.4461 54.1808C58.1606 55.012 57.9881 56.0892 57.9287 57.4181H56.4698C56.5914 55.1251 57.465 53.129 59.0936 51.4326H55.042L55.1551 50.3384Z" fill="white"/>
<path d="M62.5892 53.9235C61.758 53.5418 61.3452 52.9763 61.3452 52.2271C61.3452 51.6446 61.5742 51.1668 62.0322 50.7936C62.4903 50.4176 63.1321 50.231 63.9548 50.231C64.7041 50.231 65.3091 50.3978 65.7615 50.7342C66.2139 51.0707 66.4429 51.5146 66.4429 52.0687C66.4429 52.7445 66.0216 53.2562 65.1819 53.604C66.2082 54.0422 66.7228 54.6643 66.7228 55.4672C66.7228 56.061 66.4655 56.5558 65.9538 56.9459C65.4392 57.3361 64.7465 57.5312 63.8757 57.5312C62.9568 57.5312 62.2612 57.3503 61.7919 56.9884C61.3226 56.6264 61.0879 56.1741 61.0879 55.6256C61.0879 54.8452 61.5883 54.2797 62.5892 53.9235ZM63.4657 54.3419C63.1208 54.4663 62.8409 54.6388 62.6316 54.8593C62.4196 55.0799 62.315 55.3146 62.315 55.5634C62.315 55.8206 62.4478 56.0553 62.7108 56.273C62.9766 56.4907 63.3837 56.601 63.9322 56.601C64.3874 56.601 64.7493 56.5134 65.0151 56.3352C65.2809 56.1571 65.4109 55.9309 65.4109 55.6538C65.4109 55.4163 65.3007 55.2071 65.0801 55.0262C64.8596 54.8424 64.3224 54.6162 63.4657 54.3419ZM64.2998 53.2336C64.9529 52.965 65.2809 52.589 65.2809 52.1083C65.2809 51.7945 65.148 51.5485 64.8822 51.376C64.6164 51.2036 64.3083 51.1159 63.9577 51.1159C63.5958 51.1159 63.2819 51.1951 63.0218 51.3506C62.7617 51.5061 62.6288 51.7323 62.6288 52.0292C62.6288 52.3373 62.7702 52.572 63.0529 52.736C63.3385 52.8972 63.7541 53.064 64.2998 53.2336Z" fill="white"/>
<path d="M75.9288 57.4183H70.5088V56.375H72.6406V51.9021C71.9309 52.5213 71.2863 52.9454 70.7067 53.1772V51.9021C71.2976 51.6787 71.668 51.5176 71.8179 51.4215C71.9677 51.3253 72.1854 51.15 72.471 50.8927C72.7594 50.6354 72.9601 50.4008 73.0789 50.1887H73.9299V56.3722H75.9317V57.4183H75.9288Z" fill="white"/>
<path d="M81.859 56.313V57.4185H76.6396V56.1773L78.8082 54.7354C79.484 54.2858 79.9363 53.8872 80.1682 53.5394C80.4 53.1916 80.516 52.8721 80.516 52.5809C80.516 52.2303 80.4 51.9391 80.1682 51.6988C79.9363 51.4613 79.6366 51.3397 79.2663 51.3397C78.4576 51.3397 77.9911 51.8317 77.8696 52.8184L76.6396 52.5131C76.733 51.8826 77.0129 51.3454 77.4765 50.8958C77.9402 50.4463 78.5509 50.2229 79.3058 50.2229C80.0862 50.2229 80.711 50.4463 81.1776 50.8902C81.6441 51.3341 81.8788 51.8995 81.8788 52.5837C81.8788 53.1888 81.6723 53.7288 81.2567 54.2038C80.8411 54.6788 79.812 55.38 78.1693 56.3074H81.859V56.313Z" fill="white"/>
<path d="M84.7145 54.2913V53.2848H85.362C85.7493 53.2848 86.0716 53.1971 86.3318 53.0247C86.5919 52.8522 86.7219 52.5949 86.7219 52.2528C86.7219 51.9164 86.6117 51.6647 86.3911 51.4951C86.1706 51.3254 85.8879 51.2406 85.5429 51.2406C84.8446 51.2406 84.3696 51.5827 84.1151 52.2669L82.9474 52.0634C83.0775 51.5233 83.3828 51.0823 83.8578 50.7402C84.3328 50.3981 84.9068 50.2256 85.5768 50.2256C86.2441 50.2256 86.8152 50.3981 87.2874 50.743C87.7596 51.0879 87.9942 51.5488 87.9942 52.1256C87.9942 52.5553 87.867 52.9201 87.6126 53.2254C87.3581 53.5308 87.0442 53.6948 86.671 53.723C87.1347 53.7937 87.5079 53.9832 87.7878 54.2998C88.0706 54.6137 88.212 54.9925 88.212 55.4364C88.212 56.0443 87.966 56.5447 87.4768 56.9377C86.9877 57.3307 86.3374 57.5258 85.5231 57.5258C84.771 57.5258 84.1519 57.3336 83.6627 56.9519C83.1736 56.5702 82.8654 56.132 82.7354 55.6372L83.9455 55.3403C84.1886 56.1291 84.7089 56.5221 85.5118 56.5221C85.9274 56.5221 86.2611 56.4147 86.5155 56.2026C86.77 55.9906 86.8972 55.7333 86.8972 55.4336C86.8972 55.1282 86.787 54.8625 86.5664 54.6334C86.3459 54.4044 86.0151 54.2885 85.574 54.2885H84.7145V54.2913Z" fill="white"/>
<path d="M93.576 57.4184H92.2641V55.8096H89.1201V54.8766L92.2641 50.1917H93.576V54.7211H94.6391V55.8096H93.576V57.4184ZM92.3575 51.5262L90.35 54.7211H92.2641V52.7646C92.2641 52.5582 92.2755 52.3715 92.2952 52.2047L92.3575 51.5262Z" fill="white"/>
<path d="M98.8806 50.3384H103.286L103.173 51.4326H99.8164L99.6185 53.4881C100.043 52.9452 100.6 52.6738 101.284 52.6738C101.965 52.6738 102.539 52.9085 103.009 53.3806C103.478 53.8528 103.713 54.4098 103.713 55.0572C103.713 55.733 103.467 56.3126 102.975 56.8017C102.483 57.288 101.81 57.534 100.95 57.534C100.269 57.534 99.6722 57.3757 99.1633 57.0618C98.6544 56.748 98.3207 56.2589 98.1709 55.5944L99.3951 55.4135C99.6326 56.1373 100.13 56.4964 100.885 56.4964C101.349 56.4964 101.705 56.355 101.957 56.0751C102.208 55.7952 102.333 55.4559 102.333 55.0572C102.333 54.6642 102.208 54.3306 101.96 54.0592C101.711 53.7878 101.386 53.652 100.99 53.652C100.388 53.652 99.9323 53.9263 99.6213 54.4776L98.4791 54.2543L98.8806 50.3384Z" fill="white"/>
<path d="M109.677 51.95L108.597 52.1564C108.396 51.492 107.981 51.1612 107.353 51.1612C106.751 51.1612 106.33 51.4213 106.089 51.9415C105.849 52.4618 105.727 53.0103 105.727 53.5899C105.727 53.703 105.73 53.8189 105.733 53.932C106.086 53.2223 106.694 52.8689 107.559 52.8689C108.23 52.8689 108.789 53.0809 109.242 53.5079C109.691 53.932 109.915 54.4692 109.915 55.1166C109.915 55.8009 109.674 56.3748 109.194 56.8357C108.713 57.2965 108.108 57.5284 107.378 57.5284C106.468 57.5284 105.753 57.2089 105.233 56.5671C104.712 55.9253 104.452 55.046 104.452 53.9292C104.452 52.8321 104.707 51.9415 105.218 51.2573C105.727 50.5731 106.412 50.231 107.271 50.231C108.56 50.2281 109.363 50.8021 109.677 51.95ZM107.333 56.5897C107.712 56.5897 108.034 56.4738 108.295 56.2448C108.555 56.0157 108.685 55.6623 108.685 55.1902C108.685 54.8678 108.56 54.5681 108.314 54.2882C108.066 54.0083 107.723 53.867 107.285 53.867C106.884 53.867 106.561 53.9998 106.315 54.2656C106.069 54.5314 105.948 54.8594 105.948 55.2467C105.948 55.6369 106.075 55.9592 106.327 56.2108C106.578 56.4625 106.915 56.5897 107.333 56.5897Z" fill="white"/>
<path d="M110.969 50.3384H115.996V51.2403C115.125 52.3713 114.545 53.3523 114.26 54.1808C113.974 55.012 113.802 56.0892 113.742 57.4181H112.283C112.405 55.1251 113.279 53.129 114.907 51.4326H110.855L110.969 50.3384Z" fill="white"/>
<path d="M118.406 53.9235C117.574 53.5418 117.162 52.9763 117.162 52.2271C117.162 51.6446 117.391 51.1668 117.849 50.7936C118.307 50.4176 118.948 50.231 119.771 50.231C120.52 50.231 121.126 50.3978 121.578 50.7342C122.033 51.0707 122.259 51.5146 122.259 52.0687C122.259 52.7445 121.838 53.2562 120.998 53.604C122.025 54.0422 122.539 54.6643 122.539 55.4672C122.539 56.061 122.282 56.5558 121.77 56.9459C121.256 57.3361 120.563 57.5312 119.692 57.5312C118.773 57.5312 118.078 57.3503 117.608 56.9884C117.139 56.6264 116.904 56.1741 116.904 55.6256C116.907 54.8452 117.405 54.2797 118.406 53.9235ZM119.282 54.3419C118.937 54.4663 118.657 54.6388 118.448 54.8593C118.239 55.0799 118.131 55.3146 118.131 55.5634C118.131 55.8206 118.264 56.0553 118.527 56.273C118.793 56.4907 119.2 56.601 119.749 56.601C120.204 56.601 120.566 56.5134 120.831 56.3352C121.097 56.1571 121.227 55.9309 121.227 55.6538C121.227 55.4163 121.117 55.2071 120.897 55.0262C120.679 54.8424 120.139 54.6162 119.282 54.3419ZM120.116 53.2336C120.769 52.965 121.097 52.589 121.097 52.1083C121.097 51.7945 120.964 51.5485 120.699 51.376C120.433 51.2036 120.125 51.1159 119.774 51.1159C119.412 51.1159 119.098 51.1951 118.838 51.3506C118.578 51.5061 118.448 51.7323 118.448 52.0292C118.448 52.3373 118.589 52.572 118.872 52.736C119.155 52.8972 119.57 53.064 120.116 53.2336Z" fill="white"/>
<path d="M62.6295 69.5646C62.0216 69.5646 61.5523 69.3299 61.2243 68.8578C60.8963 68.3856 60.7295 67.789 60.7295 67.0624C60.7295 66.2792 60.902 65.6487 61.2469 65.1709C61.5918 64.6931 62.0555 64.4556 62.6351 64.4556C63.0536 64.4556 63.407 64.5687 63.6982 64.792C63.9866 65.0154 64.2043 65.3264 64.3457 65.725C64.4871 66.1237 64.5577 66.4969 64.5577 66.8447C64.5577 67.4271 64.4899 67.9078 64.357 68.281C64.2241 68.6542 64.0121 68.9624 63.7208 69.2027C63.4296 69.443 63.0677 69.5646 62.6295 69.5646ZM62.6238 68.8634C62.8755 68.8634 63.079 68.7871 63.2345 68.6316C63.39 68.4761 63.4946 68.2612 63.5512 67.9813C63.6077 67.7042 63.636 67.3169 63.636 66.8277C63.636 66.4206 63.5682 66.0361 63.4296 65.6685C63.2939 65.3038 63.031 65.12 62.6436 65.12C61.9707 65.12 61.6342 65.742 61.6342 66.9861C61.6342 67.5515 61.7049 68.0039 61.8491 68.3488C61.9933 68.6938 62.2506 68.8634 62.6238 68.8634Z" fill="white"/>
<path d="M68.974 69.4883H65.1797V68.7589H66.6725V65.629C66.1749 66.0616 65.7254 66.3613 65.3182 66.5224V65.629C65.731 65.4707 65.9911 65.3604 66.0958 65.2925C66.2004 65.2247 66.353 65.1031 66.5538 64.9221C66.7545 64.7412 66.8959 64.5772 66.9779 64.4302H67.5745V68.7589H68.9768V69.4883H68.974Z" fill="white"/>
<path d="M72.407 64.532L69.164 70.7267H68.6494L71.8783 64.532H72.407Z" fill="white"/>
<path d="M76.6334 68.7136V69.4883H72.9805V68.6203L74.4988 67.6109C74.9709 67.2971 75.2876 67.0172 75.4516 66.774C75.6127 66.5308 75.6947 66.3075 75.6947 66.1039C75.6947 65.8579 75.6127 65.6544 75.4516 65.4876C75.2904 65.3207 75.0784 65.2359 74.8211 65.2359C74.2556 65.2359 73.9276 65.5809 73.8428 66.2707L72.9833 66.0558C73.0483 65.6148 73.2434 65.2387 73.5686 64.9249C73.8937 64.6111 74.3206 64.4556 74.8494 64.4556C75.395 64.4556 75.8333 64.6111 76.1613 64.9221C76.4892 65.2331 76.6504 65.6289 76.6504 66.1067C76.6504 66.5308 76.5062 66.9097 76.215 67.2405C75.9238 67.5741 75.2028 68.0633 74.0549 68.7136H76.6334Z" fill="white"/>
<path d="M78.6337 67.2971V66.5931H79.0889C79.3603 66.5931 79.5865 66.5337 79.7674 66.4121C79.9484 66.2905 80.0389 66.1096 80.0389 65.8721C80.0389 65.6374 79.9625 65.4593 79.807 65.3405C79.6543 65.2218 79.4564 65.1624 79.2133 65.1624C78.7241 65.1624 78.3905 65.4027 78.2152 65.8806L77.3981 65.7392C77.4914 65.3631 77.7035 65.0521 78.0343 64.8146C78.3679 64.5743 78.7694 64.4556 79.2387 64.4556C79.7052 64.4556 80.1039 64.5771 80.4347 64.8175C80.7655 65.0578 80.9295 65.3801 80.9295 65.7844C80.9295 66.0841 80.8418 66.3414 80.6637 66.5535C80.4856 66.7655 80.265 66.8843 80.0049 66.9012C80.3301 66.9493 80.5902 67.085 80.7881 67.3055C80.986 67.5261 81.085 67.7918 81.085 68.1C81.085 68.527 80.9125 68.8776 80.5704 69.1518C80.2283 69.4261 79.7731 69.5646 79.202 69.5646C78.6761 69.5646 78.2435 69.4317 77.9014 69.1631C77.5593 68.8945 77.3416 68.5892 77.2539 68.2414L78.0993 68.035C78.2689 68.5863 78.6337 68.8634 79.1963 68.8634C79.4875 68.8634 79.7222 68.7899 79.9003 68.6401C80.0784 68.4902 80.1661 68.3121 80.1661 68.1C80.1661 67.888 80.0897 67.6985 79.9342 67.5402C79.7787 67.3819 79.5497 67.2999 79.2387 67.2999H78.6337V67.2971Z" fill="white"/>
<path d="M15.3458 60.2796C15.2157 60.4521 14.9952 60.5736 14.7549 60.6132V60.2966C15.1055 60.2259 15.3543 59.9771 15.3543 59.6943H15.6568V62.3379H15.3458V60.2796Z" fill="white"/>
<path d="M17.082 61.0969C17.3082 60.9442 17.605 60.7236 17.605 60.3985C17.605 60.1242 17.3986 59.9235 17.0735 59.9235C16.6946 59.9235 16.4543 60.1978 16.4543 60.5992L16.1631 60.5512C16.1631 60.0196 16.5363 59.6379 17.082 59.6379C17.5711 59.6379 17.933 59.9433 17.933 60.4013C17.933 60.7774 17.6899 61.0177 17.4184 61.2156C17.0311 61.504 16.6918 61.6284 16.5985 62.044H17.9443V62.3381H16.2083V62.307C16.2536 61.6736 16.5193 61.4927 17.082 61.0969Z" fill="white"/>
<path d="M18.2578 61.7924L18.5292 61.6539C18.6084 61.8857 18.8374 62.1091 19.205 62.1091C19.5471 62.1091 19.7874 61.9111 19.7874 61.6058C19.7874 61.3287 19.5838 61.1138 19.1682 61.1138H18.9025V60.8565H19.1739C19.5245 60.8565 19.7139 60.6501 19.7139 60.3928C19.7139 60.1044 19.4821 59.9235 19.1711 59.9235C18.877 59.9235 18.6423 60.0988 18.5971 60.4155L18.3115 60.3533C18.3681 59.932 18.7243 59.6379 19.1993 59.6379C19.646 59.6379 20.0362 59.9037 20.0362 60.3363C20.0362 60.6388 19.8524 60.882 19.5923 60.9583V60.9611C19.892 61.0177 20.1154 61.2467 20.1154 61.5916C20.1154 62.0101 19.7931 62.3946 19.2078 62.3946C18.7526 62.3974 18.3681 62.1599 18.2578 61.7924Z" fill="white"/>
<path d="M21.7185 61.7131C21.2746 61.7131 20.8335 61.7131 20.3896 61.7131V61.4275L21.727 59.6943H22.0295V61.436C22.1596 61.436 22.284 61.436 22.4084 61.436V61.7102H22.0295C22.0295 61.9195 22.0295 62.1287 22.0295 62.3379H21.7213V61.7131H21.7185ZM21.7185 61.436C21.7185 60.9978 21.7185 60.5567 21.7185 60.1213C21.4075 60.5312 21.0258 61.026 20.712 61.436H21.7185Z" fill="white"/>
<path d="M51.6025 64.7495H51.8118C51.9673 65.1256 52.2019 65.725 52.3772 66.1773H52.3829C52.561 65.725 52.7929 65.1256 52.9399 64.7495H53.1491L52.4875 66.412H52.2641L51.6025 64.7495Z" fill="white"/>
<path d="M53.7141 64.7495H53.9347L54.5963 66.412H54.3842C54.3107 66.2311 54.2372 66.0529 54.1665 65.8692H53.4682C53.3946 66.0501 53.3268 66.2282 53.2533 66.412H53.0469L53.7141 64.7495ZM54.0958 65.6825C54.0025 65.4479 53.9036 65.1991 53.8244 64.9814H53.8187L53.5417 65.6825H54.0958Z" fill="white"/>
<path d="M54.829 64.7495H55.0269V66.2254C55.2983 66.2254 55.5726 66.2254 55.844 66.2254V66.412H54.8262V64.7495H54.829Z" fill="white"/>
<path d="M56.084 64.7495H56.2819V66.412H56.084V64.7495Z" fill="white"/>
<path d="M56.7051 64.7495H57.3073C57.8615 64.7495 58.0961 65.1199 58.0961 65.5695C58.0961 66.0642 57.8106 66.412 57.3271 66.412H56.7079V64.7495H56.7051ZM57.3214 66.2311C57.6551 66.2311 57.8869 66.0105 57.8869 65.5864C57.8869 65.1312 57.6155 64.9333 57.2592 64.9333H56.903C56.903 65.3659 56.903 65.8013 56.903 66.2339H57.3214V66.2311Z" fill="white"/>
<path d="M51.6113 67.4864V67.3054H52.9063V67.4864H52.3578V68.9679H52.1598V67.4864H51.6113Z" fill="white"/>
<path d="M53.1465 67.3054H53.3444V68.0405C53.6469 68.0405 53.9495 68.0405 54.252 68.0405V67.3054H54.4471V68.9679H54.252V68.2271C53.9495 68.2271 53.6469 68.2271 53.3444 68.2271V68.9679H53.1465V67.3054Z" fill="white"/>
<path d="M54.8672 67.3054H55.4666C55.7126 67.3054 56.0208 67.4468 56.0208 67.8115C56.0208 68.1056 55.8398 68.2809 55.608 68.312V68.3148C55.7522 68.5353 55.8992 68.7502 56.0462 68.9679H55.8257L55.3959 68.3233H55.0708C55.0708 68.5382 55.0708 68.7502 55.0708 68.9679H54.8728V67.3054H54.8672ZM55.4411 68.148C55.6504 68.148 55.8144 68.0434 55.8144 67.82C55.8144 67.5995 55.6391 67.4864 55.4327 67.4864H55.0651C55.0651 67.7126 55.0651 67.9218 55.0651 68.148H55.4411Z" fill="white"/>
<path d="M56.332 68.3515V67.3054H56.5299V68.3374C56.5299 68.6626 56.6741 68.8209 56.9399 68.8209C57.2057 68.8209 57.3499 68.6626 57.3499 68.3374V67.3054H57.5478V68.3515C57.5478 68.688 57.4008 69.0047 56.9371 69.0047C56.5073 69.0047 56.332 68.7276 56.332 68.3515Z" fill="white"/>
<path d="M13.332 80.3653C13.332 79.0364 14.3046 78.3098 15.3536 78.3098C16.2075 78.3098 16.9002 78.7989 17.1772 79.5567L16.4761 79.8366C16.2781 79.3672 15.9049 79.0223 15.3451 79.0223C14.6468 79.0223 14.1293 79.5567 14.1293 80.4021C14.1293 81.3747 14.8107 81.7366 15.4017 81.7366C15.9671 81.7366 16.4082 81.4001 16.6089 80.7809L17.3101 81.0213C16.9906 82.008 16.2555 82.4519 15.3904 82.4519C14.1972 82.4462 13.332 81.615 13.332 80.3653Z" fill="white"/>
<path d="M18.8175 78.3892H19.7025L21.2095 82.3588H20.4009L20.005 81.3211C19.5018 81.3211 18.9928 81.3211 18.4867 81.3211C18.3538 81.6661 18.2266 82.0138 18.0937 82.3588H17.3105L18.8175 78.3892ZM19.7336 80.5888C19.612 80.2694 19.4593 79.8566 19.2558 79.2996H19.2445C19.1116 79.6615 18.9335 80.128 18.7553 80.5888H19.7336Z" fill="white"/>
<path d="M21.6367 78.3892H23.1692C23.4378 78.3892 24.5489 78.5023 24.5489 79.6671C24.5489 80.4164 24.105 80.7613 23.6526 80.8801V80.8857C23.9834 81.3749 24.3142 81.8696 24.645 82.3616H23.7912L22.8553 80.9423H22.3973C22.3973 81.4144 22.3973 81.8894 22.3973 82.3616H21.6395V78.3892H21.6367ZM23.0334 80.2665C23.319 80.2665 23.7572 80.1591 23.7572 79.6813C23.7572 79.2091 23.3247 79.0762 23.0447 79.0762H22.3973C22.3973 79.5229 22.3973 79.8198 22.3973 80.2665H23.0334Z" fill="white"/>
<path d="M25.2158 78.3892H26.7539C28.0771 78.3892 28.6369 79.2741 28.6369 80.3485C28.6369 81.5304 27.9555 82.3588 26.7991 82.3588H25.2158V78.3892ZM26.7058 81.6632C27.2798 81.6632 27.8424 81.372 27.8424 80.3909C27.8424 79.2515 27.0904 79.0875 26.5588 79.0875H25.9736C25.9736 79.9386 25.9736 80.8122 25.9736 81.6632H26.7058Z" fill="white"/>
<path d="M29.2617 78.3892H30.0194V80.029C30.6104 80.029 31.2069 80.029 31.795 80.029V78.3892H32.5528V82.3588H31.795V80.7613C31.2041 80.7613 30.6075 80.7613 30.0194 80.7613V82.3588H29.2617V78.3892Z" fill="white"/>
<path d="M33.168 80.3793C33.168 79.1579 34.0699 78.3069 35.1782 78.3069C36.2922 78.3069 37.1828 79.1721 37.1828 80.3793C37.1828 81.581 36.2979 82.4461 35.1782 82.4461C34.0727 82.4461 33.168 81.6008 33.168 80.3793ZM35.1839 81.7336C35.8653 81.7336 36.3912 81.1597 36.3912 80.3793C36.3912 79.6159 35.8822 79.0194 35.1839 79.0194C34.4968 79.0194 33.9625 79.5905 33.9625 80.3793C33.9625 81.1795 34.5053 81.7336 35.1839 81.7336Z" fill="white"/>
<path d="M37.7998 78.3892H38.5575V81.6576C39.1371 81.6576 39.7224 81.6576 40.3048 81.6576V82.3588H37.7998V78.3892Z" fill="white"/>
<path d="M40.7891 78.3892H42.3271C43.6504 78.3892 44.2102 79.2741 44.2102 80.3485C44.2102 81.5304 43.5288 82.3588 42.3724 82.3588H40.7891V78.3892ZM42.2791 81.6632C42.853 81.6632 43.4157 81.372 43.4157 80.3909C43.4157 79.2515 42.6636 79.0875 42.1321 79.0875H41.5468C41.5468 79.9386 41.5468 80.8122 41.5468 81.6632H42.2791Z" fill="white"/>
<path d="M44.835 78.3892H47.4305V79.0875H45.5927C45.5927 79.3816 45.5927 79.6841 45.5927 79.9781H47.3287V80.7104H45.5927C45.5927 81.0271 45.5927 81.3409 45.5927 81.6576H47.4814V82.3588H44.835V78.3892Z" fill="white"/>
<path d="M48.1377 78.3892H49.6701C49.9387 78.3892 51.0499 78.5023 51.0499 79.6671C51.0499 80.4164 50.606 80.7613 50.1536 80.8801V80.8857C50.4844 81.3749 50.8152 81.8696 51.146 82.3616H50.2921L49.3563 80.9423H48.8983C48.8983 81.4144 48.8983 81.8894 48.8983 82.3616H48.1405V78.3892H48.1377ZM49.5316 80.2665C49.8171 80.2665 50.2554 80.1591 50.2554 79.6813C50.2554 79.2091 49.8228 79.0762 49.5429 79.0762H48.8954C48.8954 79.5229 48.8954 79.8198 48.8954 80.2665H49.5316Z" fill="white"/>
<path d="M52.9287 78.3892H53.7175C54.3028 79.26 54.8881 80.111 55.479 81.0299H55.4903V78.3892H56.2424V82.3588H55.4592C54.8739 81.4993 54.2887 80.6737 53.7034 79.7717H53.6893V82.3588H52.9315V78.3892H52.9287Z" fill="white"/>
<path d="M58.1818 78.3892H59.0668L60.5737 82.3588H59.7651L59.3693 81.3211C58.866 81.3211 58.3571 81.3211 57.851 81.3211C57.7181 81.6661 57.5909 82.0138 57.458 82.3588H56.6748L58.1818 78.3892ZM59.0979 80.5888C58.9763 80.2694 58.8236 79.8566 58.62 79.2996H58.6087C58.4758 79.6615 58.2977 80.128 58.1196 80.5888H59.0979Z" fill="white"/>
<path d="M61.001 78.3892H61.9425C62.3553 79.3165 62.7624 80.2467 63.1696 81.1798H63.1809C63.588 80.2467 63.9951 79.3165 64.4079 78.3892H65.3495V82.3588H64.5804V79.8028H64.5606C64.1931 80.6539 63.8227 81.5077 63.4495 82.3588H62.901C62.5306 81.5077 62.1574 80.6539 61.7926 79.8028H61.7728V82.3588H61.0038V78.3892H61.001Z" fill="white"/>
<path d="M66.1807 78.3892H68.7762V79.0875H66.9384C66.9384 79.3816 66.9384 79.6841 66.9384 79.9781H68.6744V80.7104H66.9384C66.9384 81.0271 66.9384 81.3409 66.9384 81.6576H68.8271V82.3588H66.1807V78.3892Z" fill="white"/>
</svg>
