<svg width="26" height="18" viewBox="0 0 30 24" fill="none" xmlns="http://www.w3.org/2000/svg">
<path d="M16.7199 9.47646C17.2005 10.3288 17.3187 11.3394 17.0487 12.286C16.7786 13.2325 16.1423 14.0375 15.2798 14.5237C14.4173 15.01 13.3992 15.1378 12.4496 14.8789C11.4999 14.6201 10.6964 13.9958 10.2158 13.1434C9.73528 12.2911 9.61704 11.2805 9.88712 10.3339C10.1572 9.38737 10.7935 8.58242 11.656 8.09615C12.5185 7.60988 13.5365 7.48212 14.4862 7.74098C15.4359 7.99984 16.2394 8.62411 16.7199 9.47646ZM15.0939 10.3932C14.8536 9.96703 14.4519 9.65489 13.9771 9.52546C13.5022 9.39603 12.9932 9.45991 12.5619 9.70305C12.1307 9.94618 11.8125 10.3487 11.6775 10.8219C11.5425 11.2952 11.6016 11.8005 11.8419 12.2267C12.0821 12.6529 12.4839 12.965 12.9587 13.0944C13.4336 13.2239 13.9426 13.16 14.3738 12.9168C14.8051 12.6737 15.1232 12.2712 15.2583 11.798C15.3933 11.3247 15.3342 10.8194 15.0939 10.3932ZM1.22034 12.3914C0.595227 11.2827 0.998466 9.86944 2.12042 9.23688L17.5677 0.527828C18.6896 -0.104725 20.1076 0.281762 20.7327 1.39052L25.7154 10.2285C26.3405 11.3372 25.9373 12.7505 24.8153 13.383L9.36809 22.0921C8.24613 22.7246 6.82822 22.3381 6.2031 21.2294L1.22034 12.3914ZM3.02638 10.8438C2.91857 10.9046 2.83904 11.0052 2.80528 11.1235C2.77152 11.2418 2.7863 11.3681 2.84636 11.4747L3.52583 12.6799L4.33885 12.2215C4.55447 12.0999 4.71354 11.8987 4.78106 11.6621C4.84858 11.4254 4.81902 11.1728 4.69888 10.9597L4.2459 10.1562L3.02638 10.8438ZM7.82913 20.3126C7.95415 20.5344 8.23774 20.6117 8.46213 20.4852L9.68165 19.7976L9.22867 18.9942C9.10853 18.7811 8.90766 18.625 8.67024 18.5603C8.43282 18.4956 8.1783 18.5275 7.96268 18.6491L7.14966 19.1075L7.82913 20.3126ZM10.8547 18.0774L11.3077 18.8809L21.0638 13.3804L20.6109 12.577C20.2504 11.9377 20.1618 11.1797 20.3643 10.4698C20.5669 9.75992 21.0441 9.1562 21.691 8.7915L22.504 8.33313L20.6921 5.11934L19.879 5.57771C19.2322 5.94241 18.4686 6.03823 17.7564 5.84409C17.0441 5.64994 16.4415 5.18174 16.0811 4.54247L15.6281 3.73903L5.87193 9.23948L6.32491 10.0429C6.68532 10.6822 6.774 11.4402 6.57144 12.1501C6.36888 12.86 5.89168 13.4637 5.2448 13.8284L4.43179 14.2868L6.24371 17.5006L7.05672 17.0422C7.70359 16.6775 8.46715 16.5817 9.1794 16.7758C9.89166 16.97 10.4943 17.4382 10.8547 18.0774ZM22.6899 12.4637L23.9094 11.7761C24.0172 11.7153 24.0967 11.6147 24.1305 11.4964C24.1643 11.3781 24.1495 11.2517 24.0894 11.1452L23.4099 9.94003L22.5969 10.3984C22.3813 10.52 22.2222 10.7212 22.1547 10.9578C22.0872 11.1945 22.1167 11.4471 22.2369 11.6602L22.6899 12.4637ZM19.7861 3.51244L19.1066 2.30726C19.0466 2.20072 18.9461 2.12269 18.8274 2.09033C18.7087 2.05797 18.5815 2.07394 18.4736 2.13473L17.2541 2.82228L17.7071 3.62573C17.8272 3.83882 18.0281 3.99489 18.2655 4.0596C18.5029 4.12432 18.7575 4.09238 18.9731 3.97081L19.7861 3.51244ZM14.8386 23.2432C14.3236 23.5338 13.7309 23.6558 13.1455 23.5918C12.56 23.5277 12.0119 23.2809 11.5796 22.8866C11.8274 22.7978 12.0692 22.6869 12.3066 22.553L25.7213 14.9899C26.6916 14.4429 27.4074 13.5373 27.7113 12.4724C28.0151 11.4075 27.8821 10.2706 27.3415 9.31172L23.1152 1.81554C23.6846 1.71354 24.2701 1.78928 24.7909 2.03232C25.3117 2.27537 25.7422 2.67374 26.0231 3.17256L28.9675 8.39497C29.3541 9.08079 29.6003 9.83696 29.692 10.6203C29.7836 11.4036 29.719 12.1988 29.5016 12.9604C29.2843 13.722 28.9186 14.4352 28.4255 15.0591C27.9323 15.683 27.3212 16.2055 26.6273 16.5968L14.8386 23.2432Z" fill="#194049"/>
</svg>
