<svg width="13" height="13" viewBox="0 0 13 13" fill="none" xmlns="http://www.w3.org/2000/svg">
<path d="M12.6555 12.1009C12.6555 12.2613 12.5243 12.3926 12.3639 12.3926L9.9576 12.3816L6.33362 8.06131L2.71329 12.378L0.303387 12.3889C0.142969 12.3889 0.0117188 12.2613 0.0117188 12.0973C0.0117188 12.028 0.0372395 11.9624 0.0809897 11.9077L4.82424 6.25661L0.0809897 0.609186C0.0369345 0.555752 0.0124903 0.488851 0.0117188 0.419601C0.0117187 0.259184 0.142969 0.127933 0.303387 0.127933L2.71329 0.13887L6.33362 4.4592L9.95395 0.142517L12.3602 0.13158C12.5206 0.13158 12.6519 0.259185 12.6519 0.423248C12.6519 0.492519 12.6264 0.558143 12.5826 0.612831L7.84665 6.26026L12.5899 11.9113C12.6337 11.9624 12.6555 12.0316 12.6555 12.1009Z" fill="#6C6C6C"/>
</svg>
