<svg width="21" height="19" viewBox="0 0 21 19" fill="currentColor" xmlns="http://www.w3.org/2000/svg">
<path d="M10.7162 8.32757C10.5293 8.14435 10.2779 8.04172 10.0162 8.04172C9.75443 8.04172 9.50311 8.14435 9.31618 8.32757L6.31618 11.2276C6.21007 11.3151 6.12317 11.4236 6.06091 11.5463C5.99865 11.669 5.96237 11.8032 5.95434 11.9405C5.94631 12.0779 5.96671 12.2154 6.01425 12.3445C6.06179 12.4736 6.13546 12.5915 6.23065 12.6908C6.32583 12.7901 6.44049 12.8687 6.56745 12.9217C6.6944 12.9747 6.83092 13.0009 6.96848 12.9988C7.10603 12.9966 7.24166 12.966 7.36687 12.9091C7.49208 12.8521 7.60419 12.7699 7.69618 12.6676L9.00618 11.3976V17.0376C9.00618 17.3028 9.11154 17.5571 9.29907 17.7447C9.48661 17.9322 9.74096 18.0376 10.0062 18.0376C10.2714 18.0376 10.5258 17.9322 10.7133 17.7447C10.9008 17.5571 11.0062 17.3028 11.0062 17.0376V11.4476L12.2962 12.7476C12.3891 12.8413 12.4997 12.9157 12.6216 12.9665C12.7435 13.0172 12.8742 13.0434 13.0062 13.0434C13.1382 13.0434 13.2689 13.0172 13.3908 12.9665C13.5126 12.9157 13.6232 12.8413 13.7162 12.7476C13.8099 12.6546 13.8843 12.544 13.9351 12.4222C13.9858 12.3003 14.012 12.1696 14.012 12.0376C14.012 11.9056 13.9858 11.7749 13.9351 11.653C13.8843 11.5311 13.8099 11.4205 13.7162 11.3276L10.7162 8.32757Z" fill="currentColor"/>
<path d="M15.6762 4.03758C15.2682 2.85863 14.5028 1.8362 13.4866 1.11254C12.4703 0.388884 11.2538 0 10.0062 0C8.75868 0 7.54214 0.388884 6.52591 1.11254C5.50967 1.8362 4.74428 2.85863 4.33624 4.03758C3.43779 4.15791 2.58896 4.52023 1.88054 5.08577C1.17213 5.65131 0.630778 6.3988 0.314409 7.24827C-0.00196004 8.09774 -0.0814472 9.01724 0.0844501 9.9084C0.250347 10.7996 0.655388 11.6289 1.25624 12.3076C1.32882 12.4354 1.4287 12.5457 1.54875 12.6305C1.66881 12.7154 1.80609 12.7727 1.95083 12.7984C2.09557 12.8242 2.2442 12.8177 2.38614 12.7794C2.52809 12.7411 2.65985 12.6721 2.77204 12.5771C2.88424 12.4821 2.97411 12.3635 3.03526 12.2298C3.09641 12.0961 3.12733 11.9506 3.12582 11.8036C3.12431 11.6566 3.09041 11.5117 3.02653 11.3793C2.96265 11.2469 2.87037 11.1302 2.75624 11.0376C2.36936 10.605 2.11623 10.0696 2.02753 9.49607C1.93883 8.92257 2.01837 8.33566 2.25652 7.80645C2.49466 7.27725 2.88118 6.82847 3.36924 6.51451C3.85729 6.20055 4.42593 6.03488 5.00624 6.03758H5.10624C5.34019 6.0423 5.56838 5.96482 5.7511 5.81865C5.93382 5.67247 6.05949 5.46685 6.10624 5.23758C6.28986 4.33335 6.78043 3.5204 7.49484 2.93648C8.20925 2.35255 9.10356 2.03357 10.0262 2.03357C10.9489 2.03357 11.8432 2.35255 12.5576 2.93648C13.2721 3.5204 13.7626 4.33335 13.9462 5.23758C13.993 5.46685 14.1187 5.67247 14.3014 5.81865C14.4841 5.96482 14.7123 6.0423 14.9462 6.03758H15.0062C15.5866 6.03488 16.1552 6.20055 16.6433 6.51451C17.1313 6.82847 17.5178 7.27725 17.756 7.80645C17.9941 8.33566 18.0737 8.92257 17.985 9.49607C17.8963 10.0696 17.6431 10.605 17.2562 11.0376C17.1682 11.1364 17.1006 11.2516 17.0574 11.3768C17.0142 11.5019 16.9962 11.6343 17.0046 11.7664C17.013 11.8985 17.0475 12.0276 17.1061 12.1462C17.1648 12.2649 17.2464 12.3707 17.3462 12.4576C17.5285 12.6184 17.7632 12.7072 18.0062 12.7076C18.1482 12.7074 18.2885 12.677 18.4179 12.6184C18.5472 12.5597 18.6625 12.4742 18.7562 12.3676C19.3738 11.69 19.7931 10.8557 19.9685 9.95592C20.1438 9.0561 20.0684 8.1254 19.7505 7.26555C19.4326 6.4057 18.8843 5.64981 18.1658 5.08051C17.4472 4.51121 16.586 4.15042 15.6762 4.03758Z" fill="currentColor"/>
</svg>
