<svg width="24" height="24" viewBox="0 0 24 24" fill="none" xmlns="http://www.w3.org/2000/svg">
<path d="M24 12.0089C24 18.6389 18.6031 24 11.9732 24C5.36113 24 0 18.6031 0 11.9553C0 5.36113 5.41475 0 12.0447 0C18.6389 0 24 5.39687 24 12.0089ZM15.994 1.50112C15.9762 1.53686 15.9404 1.5726 15.9226 1.60834C15.9762 1.64408 16.0298 1.66195 16.0655 1.69769C17.5309 3.1452 18.1742 4.8965 17.9419 6.9516C17.6739 9.41772 15.8332 11.58 13.4028 12.1698C12.7595 12.3306 12.0804 12.3485 11.4371 12.4378C8.20253 12.8846 6.09382 16.137 7.02308 19.2822C7.64855 21.4088 9.50708 22.9456 11.6873 23.1422C12.6523 23.2316 13.5815 23.0886 14.5108 22.892C20.3723 21.5696 24.1966 15.7081 22.9993 9.82874C22.3381 6.55845 20.5331 4.07446 17.6917 2.34102C17.1378 2.03723 16.548 1.78704 15.994 1.50112ZM8.05958 22.4631C6.52272 20.962 5.80789 19.175 6.04021 17.0305C6.30826 14.5644 8.16679 12.4021 10.5972 11.8124C11.2405 11.6515 11.9196 11.6337 12.5629 11.5443C15.4222 11.1333 17.4594 8.55994 17.1378 5.66493C16.9054 3.57408 15.7796 2.09084 13.8675 1.23306C12.6523 0.679076 11.3835 0.750557 10.1147 0.965003C8.00596 1.32241 6.11169 2.19806 4.52122 3.66344C1.4475 6.52271 0.232322 10.0432 1.00075 14.1713C1.53686 17.1199 3.1452 19.443 5.57558 21.1765C6.36188 21.7305 7.18392 22.1593 8.05958 22.4631Z" fill="currentColor"/>
<path d="M12.0094 15.8869C12.3311 15.5831 12.6885 15.3508 13.1352 15.2614C14.7615 14.904 15.9588 16.1907 15.5299 17.799C15.3154 18.6389 14.8151 19.318 14.2075 19.9077C13.5999 20.4796 12.9387 20.98 12.2953 21.4982C12.1345 21.6412 11.9379 21.6412 11.7592 21.5161C10.7406 20.8191 9.81134 20.0507 9.07865 19.0321C8.72124 18.5317 8.45319 17.9956 8.39958 17.3701C8.29236 15.7797 9.63264 14.7968 11.1338 15.3508C11.2946 15.4044 11.4376 15.4759 11.5805 15.5652C11.7235 15.6546 11.8486 15.7618 12.0094 15.8869ZM11.9915 20.7119C12.7778 20.1579 13.5105 19.5682 14.0645 18.8176C14.3326 18.4602 14.5649 18.0492 14.7078 17.6203C15.0116 16.7089 14.4398 15.9226 13.5463 16.012C13.0459 16.0656 12.6527 16.28 12.3847 16.7268C12.1702 17.1021 11.8128 17.1021 11.5984 16.7268C11.4018 16.4051 11.1338 16.1907 10.7763 16.0656C9.79347 15.7618 9.02505 16.4409 9.23949 17.4416C9.31097 17.7812 9.4718 18.1207 9.65051 18.4245C10.2402 19.3716 11.0802 20.0686 11.9915 20.7119Z" fill="currentColor"/>
<path d="M15.0823 4.84294C15.2431 4.84294 15.3861 4.84294 15.5469 4.84294C15.815 4.86081 15.9758 4.9859 15.9937 5.25396C16.0115 5.73646 16.0115 6.21896 15.9937 6.70147C15.9937 6.93378 15.8328 7.05887 15.6005 7.07674C15.4754 7.09461 15.3325 7.07674 15.2074 7.09461C15.1359 7.11248 15.0644 7.1661 15.0465 7.23758C15.0287 7.29119 15.0466 7.38054 15.0823 7.43415C15.1538 7.5235 15.261 7.61285 15.3503 7.70221C15.5291 7.89878 15.5469 8.11323 15.3503 8.30981C15.0287 8.64934 14.7249 8.97101 14.3853 9.29268C14.1888 9.48925 13.9565 9.48925 13.742 9.29268C13.6705 9.2212 13.599 9.13184 13.5097 9.07823C13.4561 9.04249 13.3489 9.00675 13.2952 9.04249C13.2238 9.07823 13.1702 9.16758 13.1523 9.23907C13.1344 9.36416 13.1523 9.48925 13.1523 9.61435C13.1344 9.86453 13.0093 10.0254 12.7413 10.0254C12.2588 10.0432 11.7763 10.0432 11.2938 10.0254C11.0614 10.0254 10.9542 9.8824 10.9185 9.66795C10.9006 9.54286 10.9185 9.3999 10.9006 9.27481C10.8827 9.20333 10.8291 9.11397 10.7576 9.07823C10.704 9.06036 10.5968 9.07823 10.5432 9.13184C9.97134 9.65008 9.97135 9.65009 9.39949 9.11398C9.16718 8.89953 8.93485 8.68508 8.72041 8.45277C8.48809 8.22045 8.48809 8.00601 8.72041 7.77369C8.79189 7.70221 8.88124 7.63073 8.93486 7.55924C8.9706 7.50563 9.00634 7.39841 8.9706 7.3448C8.93486 7.27332 8.86338 7.21971 8.79189 7.20184C8.6668 7.18397 8.54171 7.20184 8.41662 7.20184C8.16643 7.18397 8.00559 7.05887 8.00559 6.80868C7.98772 6.32618 7.98772 5.82581 8.00559 5.32544C8.00559 5.09312 8.16643 4.9859 8.38088 4.96803C8.50597 4.95016 8.64893 4.96803 8.77403 4.95016C8.84551 4.93229 8.91699 4.87868 8.95273 4.82507C8.9706 4.77146 8.95273 4.66423 8.91699 4.61062C8.84551 4.5034 8.73828 4.43192 8.64893 4.34257C8.47023 4.14599 8.47023 3.94941 8.64893 3.77071C8.9706 3.43117 9.29227 3.09164 9.63181 2.76997C9.82838 2.57339 10.0428 2.57339 10.2573 2.76997C10.3466 2.84145 10.4181 2.94867 10.5075 3.00228C10.5611 3.03802 10.6683 3.0559 10.7219 3.03803C10.7755 3.02015 10.847 2.9308 10.847 2.85932C10.8649 2.73423 10.847 2.60913 10.847 2.48404C10.8649 2.21598 10.99 2.05515 11.258 2.05515C11.7405 2.03728 12.2051 2.03728 12.6876 2.05515C12.9021 2.05515 13.0272 2.18024 13.0629 2.37682C13.0808 2.50191 13.0629 2.64488 13.0987 2.76997C13.1165 2.85932 13.1523 2.96654 13.2238 3.00228C13.2774 3.03802 13.4203 2.98441 13.474 2.9308C13.9922 2.4483 14.0279 2.4483 14.5462 2.9308C14.7785 3.16312 15.0287 3.39543 15.261 3.62775C15.4933 3.86006 15.4933 4.07451 15.2789 4.32469C15.2431 4.36043 15.2074 4.41405 15.1538 4.44979C14.9393 4.52127 14.9393 4.66423 15.0823 4.84294ZM10.025 8.54212C10.0964 8.4349 10.1322 8.36342 10.1858 8.30981C10.436 8.05962 10.5432 8.04175 10.8649 8.20258C10.9185 8.22045 10.9721 8.25619 11.0257 8.27406C11.5082 8.38129 11.8477 8.59573 11.7227 9.18546C11.955 9.18546 12.1515 9.18546 12.3481 9.18546C12.3481 9.07823 12.3481 8.98888 12.3481 8.9174C12.3481 8.57786 12.4196 8.47064 12.7413 8.36341C12.8127 8.34554 12.8664 8.32767 12.92 8.29193C13.3489 8.00601 13.742 7.95239 14.0101 8.41702C14.1709 8.27406 14.3139 8.1311 14.4926 7.9524C14.4211 7.89879 14.3496 7.88091 14.3139 7.8273C14.0279 7.55924 14.0279 7.45202 14.1888 7.11248C14.2603 6.95165 14.3317 6.79081 14.3675 6.62998C14.439 6.39766 14.5819 6.30831 14.7964 6.29044C14.9215 6.29044 15.0287 6.27257 15.1538 6.27257C15.1538 6.05813 15.1538 5.86155 15.1538 5.66498C15.0465 5.66498 14.9572 5.66498 14.8857 5.66498C14.5283 5.66498 14.4568 5.61137 14.3317 5.25396C14.3139 5.20035 14.296 5.14674 14.2781 5.09313C14.0101 4.66424 13.9207 4.27108 14.4211 3.98516C14.2781 3.82432 14.1352 3.68136 13.9922 3.52052C13.9207 3.57414 13.8671 3.62775 13.8314 3.68136C13.5633 3.96728 13.4561 3.96729 13.0987 3.80645C12.9378 3.73497 12.777 3.66349 12.6162 3.62775C12.3839 3.55627 12.2945 3.4133 12.2766 3.19886C12.2766 3.07376 12.2588 2.94867 12.2588 2.84145C12.0443 2.84145 11.8477 2.84145 11.6512 2.84145C11.6512 2.9308 11.6512 3.00228 11.6512 3.09163C11.6512 3.48478 11.5975 3.53839 11.2223 3.68136C11.0614 3.73497 10.9006 3.82432 10.7398 3.8958C10.5432 4.00303 10.3645 3.98516 10.1858 3.82432C10.0964 3.73497 10.0071 3.66349 9.97134 3.60988C9.8105 3.75284 9.66754 3.87793 9.47097 4.05664C9.54245 4.11025 9.6318 4.14599 9.68542 4.1996C9.95347 4.44979 9.95347 4.55701 9.81051 4.87868C9.73903 5.03951 9.66754 5.21822 9.61393 5.39692C9.54245 5.61137 9.39949 5.73646 9.18505 5.73646C9.05995 5.73646 8.95273 5.75433 8.82764 5.75433C8.82764 5.96877 8.82764 6.16535 8.82764 6.36192C8.95273 6.36192 9.04208 6.36192 9.1493 6.36192C9.41736 6.34405 9.57819 6.46915 9.64967 6.71933C9.66754 6.79081 9.68542 6.8623 9.72116 6.93378C9.98922 7.36267 10.0786 7.75582 9.56032 8.05961C9.70328 8.20258 9.82838 8.34554 10.025 8.54212Z" fill="currentColor"/>
<path d="M13.5995 5.9866C13.5995 6.86225 12.8847 7.59494 11.9912 7.59494C11.0976 7.59494 10.3828 6.86225 10.3828 5.96873C10.3828 5.0752 11.1155 4.36039 11.9912 4.37826C12.8847 4.37826 13.5995 5.09308 13.5995 5.9866ZM11.9912 5.18243C11.5444 5.18243 11.187 5.52196 11.187 5.95085C11.187 6.41549 11.5265 6.75502 11.9912 6.75502C12.42 6.75502 12.7953 6.39762 12.7953 5.96873C12.7953 5.53984 12.4379 5.2003 11.9912 5.18243Z" fill="currentColor"/>
</svg>
