<svg width="25" height="19" viewBox="0 0 25 19" fill="none" xmlns="http://www.w3.org/2000/svg">
<path d="M24.3809 12.7782C24.326 13.1991 24.2711 13.6199 24.1979 14.0407C23.9052 15.8156 23.2099 17.4074 22.1852 18.8712C22.0937 19.0176 21.984 18.9993 21.8559 18.9993C17.9769 18.9993 14.0796 18.9993 10.2006 18.9993C7.82196 18.9993 5.42503 18.9993 3.0464 18.9993C2.86343 18.9993 2.77195 18.9444 2.66216 18.798C1.58263 17.2244 0.86904 15.5045 0.631177 13.6016C0.173748 10.0703 1.07031 6.90485 3.39405 4.17857C5.16887 2.09269 7.40113 0.757002 10.0908 0.244682C13.8417 -0.468907 17.245 0.372762 20.1908 2.84288C22.1303 4.47132 23.4294 6.5389 24.0332 9.00902C24.1979 9.63112 24.2528 10.2898 24.3626 10.9302C24.3809 11.0034 24.3992 11.0583 24.3992 11.1315C24.3809 11.6804 24.3809 12.2293 24.3809 12.7782ZM12.4145 17.5904C15.3055 17.5904 18.2147 17.5904 21.1057 17.5904C21.2521 17.5904 21.3436 17.5721 21.435 17.4257C22.8805 14.9739 23.3196 12.3757 22.6975 9.61282C21.5082 4.25176 16.2569 0.683815 10.841 1.54378C8.09642 1.98291 5.84587 3.30031 4.14423 5.47767C2.33281 7.80141 1.63752 10.4728 2.00346 13.4003C2.18644 14.8092 2.66216 16.1449 3.39405 17.3708C3.48553 17.5355 3.59532 17.6087 3.79659 17.6087C6.66924 17.5904 9.5419 17.5904 12.4145 17.5904Z" fill="currentColor"/>
<path d="M20.0085 6.77686C20.2464 7.17939 20.4659 7.58193 20.7038 7.98447C20.6306 8.03936 20.5574 8.07595 20.4842 8.11255C18.563 9.21038 16.6601 10.3265 14.7389 11.4243C14.5742 11.5158 14.5011 11.6073 14.5194 11.8269C14.5742 12.7051 14.0802 13.5102 13.2751 13.8762C12.525 14.2238 11.5918 14.0408 10.9697 13.4553C10.3659 12.8881 10.1829 11.955 10.494 11.1499C10.988 9.92397 12.5433 9.46654 13.6228 10.235C13.7692 10.3265 13.8607 10.3265 13.9887 10.2533C15.9099 9.13719 17.8311 8.03936 19.7523 6.92323C19.8255 6.86834 19.8987 6.83175 20.0085 6.77686ZM12.4152 12.6319C12.7994 12.6319 13.1288 12.3392 13.1288 11.955C13.1288 11.589 12.836 11.278 12.4518 11.2597C12.0675 11.2597 11.7382 11.5524 11.7382 11.9367C11.7199 12.3209 12.0309 12.6319 12.4152 12.6319Z" fill="currentColor"/>
<path d="M3.30273 12.6501C3.30273 12.1744 3.30273 11.7352 3.30273 11.2595C4.23589 11.2595 5.15075 11.2595 6.0839 11.2595C6.0839 11.717 6.0839 12.1744 6.0839 12.6501C5.15075 12.6501 4.23589 12.6501 3.30273 12.6501Z" fill="currentColor"/>
<path d="M18.7822 12.6501C18.7822 12.1744 18.7822 11.7352 18.7822 11.2595C19.6971 11.2595 20.6302 11.2595 21.5634 11.2595C21.5634 11.717 21.5634 12.1744 21.5634 12.6501C20.6485 12.6501 19.7337 12.6501 18.7822 12.6501Z" fill="currentColor"/>
<path d="M11.7559 2.8064C12.2133 2.8064 12.6707 2.8064 13.1281 2.8064C13.1281 3.73955 13.1281 4.65441 13.1281 5.58756C12.6707 5.58756 12.2316 5.58756 11.7559 5.58756C11.7559 4.67271 11.7559 3.75785 11.7559 2.8064Z" fill="currentColor"/>
<path d="M16.404 3.68457C16.8248 3.92243 17.2091 4.142 17.6299 4.37986C17.1542 5.20323 16.6968 5.99001 16.221 6.81338C15.8002 6.57552 15.416 6.35596 14.9951 6.11809C15.4708 5.29472 15.9283 4.48965 16.404 3.68457Z" fill="currentColor"/>
<path d="M8.64521 6.81338C8.16949 5.99001 7.71205 5.20323 7.23633 4.37986C7.63887 4.142 8.0414 3.92243 8.44394 3.68457C8.91967 4.48965 9.3771 5.29472 9.85282 6.11809C9.46858 6.33766 9.06605 6.57552 8.64521 6.81338Z" fill="currentColor"/>
<path d="M4.16211 7.98445C4.39997 7.56362 4.61954 7.17938 4.8574 6.75854C5.66247 7.23427 6.46755 7.6917 7.29092 8.16743C7.05306 8.58826 6.83349 8.9725 6.59563 9.37504C5.77226 8.91761 4.98548 8.46018 4.16211 7.98445Z" fill="currentColor"/>
<path d="M7.29092 15.724C6.46755 16.1997 5.68077 16.6571 4.8574 17.1328C4.61954 16.712 4.39997 16.3278 4.16211 15.9069C4.96718 15.4312 5.77226 14.9738 6.59563 14.498C6.81519 14.9189 7.05306 15.3031 7.29092 15.724Z" fill="currentColor"/>
<path d="M20.703 15.9252C20.4652 16.3461 20.2456 16.7303 20.0077 17.1328C19.1844 16.6571 18.3976 16.1997 17.5742 15.724C17.8121 15.3214 18.0317 14.9189 18.2695 14.498C19.0929 14.9921 19.898 15.4495 20.703 15.9252Z" fill="currentColor"/>
</svg>
