<svg width="7" height="11" viewBox="0 0 7 11" fill="none" xmlns="http://www.w3.org/2000/svg">
<path d="M3.072 10.144C2.568 10.144 2.088 10.06 1.632 9.892C1.184 9.724 0.808 9.436 0.504 9.028L1.344 8.296C1.52 8.568 1.764 8.784 2.076 8.944C2.396 9.104 2.728 9.192 3.072 9.208V6.16C2.76 6.08 2.46 5.976 2.172 5.848C1.884 5.712 1.628 5.548 1.404 5.356C1.188 5.164 1.016 4.936 0.888 4.672C0.76 4.4 0.696 4.084 0.696 3.724C0.696 3.388 0.76 3.08 0.888 2.8C1.016 2.52 1.188 2.28 1.404 2.08C1.628 1.872 1.884 1.708 2.172 1.588C2.46 1.46 2.76 1.384 3.072 1.36V0.568H3.648V1.36C4.08 1.36 4.504 1.44 4.92 1.6C5.344 1.76 5.696 2.004 5.976 2.332L5.184 3.052C5 2.812 4.776 2.628 4.512 2.5C4.248 2.364 3.96 2.296 3.648 2.296V5.284C3.968 5.388 4.28 5.5 4.584 5.62C4.888 5.74 5.156 5.892 5.388 6.076C5.628 6.252 5.816 6.472 5.952 6.736C6.096 7 6.168 7.328 6.168 7.72C6.168 8.08 6.1 8.404 5.964 8.692C5.828 8.98 5.644 9.228 5.412 9.436C5.188 9.644 4.924 9.808 4.62 9.928C4.316 10.048 3.992 10.12 3.648 10.144V10.996H3.072V10.144ZM3.072 2.296C2.68 2.368 2.364 2.532 2.124 2.788C1.892 3.036 1.776 3.352 1.776 3.736C1.776 3.944 1.808 4.12 1.872 4.264C1.944 4.408 2.036 4.532 2.148 4.636C2.268 4.74 2.404 4.832 2.556 4.912C2.716 4.984 2.888 5.056 3.072 5.128V2.296ZM3.648 9.208C4.056 9.16 4.396 9.004 4.668 8.74C4.948 8.476 5.088 8.152 5.088 7.768C5.088 7.552 5.048 7.364 4.968 7.204C4.888 7.044 4.78 6.908 4.644 6.796C4.508 6.684 4.352 6.592 4.176 6.52C4.008 6.44 3.832 6.372 3.648 6.316V9.208Z" fill="#28404A"/>
</svg>
