<svg width="119" height="210" viewBox="0 0 119 210" fill="none" xmlns="http://www.w3.org/2000/svg">
<path d="M219.542 318.685C230.242 315.256 240.032 309.512 248.196 301.873C256.36 294.234 262.692 284.893 266.731 274.531C267.961 271.026 268.781 267.394 269.174 263.705C269.856 258.638 271.681 253.787 274.517 249.509C277.352 245.232 281.124 241.637 285.554 238.989C285.704 238.909 285.848 238.818 285.985 238.716C323.601 213.91 338.014 165.632 315.257 125.844C308.61 114.01 299.098 103.984 287.568 96.6601C276.039 89.3365 262.851 84.9436 249.183 83.8735C244.179 83.4159 239.373 81.716 235.214 78.9322C231.055 76.1484 227.677 72.3712 225.396 67.9525L225.242 67.6645C221.816 61.3719 218.896 54.8368 215.439 48.5745C206.526 32.4716 193.388 18.0516 176.363 10.1517C139.699 -6.87613 94.5074 -0.234779 66.956 30.2729C53.9256 44.723 44.3217 62.3877 41.2024 81.6142C39.6638 91.6466 39.149 101.806 39.6658 111.94L39.6658 112.061C40.2958 127.8 32.4437 137.398 22.1331 147.967C4.90766 165.632 -3.42077 190.423 2.35688 214.471C7.56599 236.214 22.9629 253.318 42.9081 263.326C54.2878 268.893 66.5946 272.38 79.2335 273.621C92.4637 275.138 105.356 273.621 118.602 274.107C120.551 274.11 122.489 274.406 124.348 274.986C128.851 276.502 131.924 280.626 134.413 284.645C141.173 295.564 150.215 304.936 160.935 312.135C177.623 323.189 200.749 325.023 219.542 318.685Z" fill="white"/>
</svg>
