<svg width="22" height="19" viewBox="0 0 22 19" fill="none" xmlns="http://www.w3.org/2000/svg">
<path d="M22 3.16667H18.7786C18.3857 1.34583 16.8143 0 14.9286 0C13.0429 0 11.4714 1.34583 11.0786 3.16667H0V4.75H11.0786C11.4714 6.57083 13.0429 7.91667 14.9286 7.91667C16.8143 7.91667 18.3857 6.57083 18.7786 4.75H22V3.16667ZM14.9286 6.33333C13.5929 6.33333 12.5714 5.30417 12.5714 3.95833C12.5714 2.6125 13.5929 1.58333 14.9286 1.58333C16.2643 1.58333 17.2857 2.6125 17.2857 3.95833C17.2857 5.30417 16.2643 6.33333 14.9286 6.33333ZM0 15.8333H3.22143C3.61429 17.6542 5.18571 19 7.07143 19C8.95714 19 10.5286 17.6542 10.9214 15.8333H22V14.25H10.9214C10.5286 12.4292 8.95714 11.0833 7.07143 11.0833C5.18571 11.0833 3.61429 12.4292 3.22143 14.25H0V15.8333ZM7.07143 12.6667C8.40714 12.6667 9.42857 13.6958 9.42857 15.0417C9.42857 16.3875 8.40714 17.4167 7.07143 17.4167C5.73571 17.4167 4.71429 16.3875 4.71429 15.0417C4.71429 13.6958 5.73571 12.6667 7.07143 12.6667Z" fill="#D9D9D9"/>
</svg>
