<svg width="164" height="42" viewBox="0 0 164 42" fill="none" xmlns="http://www.w3.org/2000/svg">
<path d="M153.898 0.30957H10.1029C4.69258 0.30957 0.306641 4.74336 0.306641 10.2127V31.7875C0.306641 37.2568 4.69258 41.6906 10.1029 41.6906H153.898C159.308 41.6906 163.694 37.2568 163.694 31.7875V10.2127C163.694 4.74336 159.308 0.30957 153.898 0.30957Z" fill="white"/>
<path d="M9.48227 18.9104C8.54747 18.9104 7.79102 19.6751 7.79102 20.6201V22.4852C7.79102 23.4302 8.54747 24.1949 9.48227 24.1949C10.4171 24.1949 11.1735 23.4302 11.1735 22.4852V20.6201C11.1735 19.6751 10.4171 18.9104 9.48227 18.9104Z" fill="#0066D9"/>
<path d="M33.16 18.9104C32.2252 18.9104 31.4688 19.6751 31.4688 20.6201V22.4852C31.4688 23.4302 32.2252 24.1949 33.16 24.1949C34.0948 24.1949 34.8513 23.4302 34.8513 22.4852V20.6201C34.8513 19.6751 34.0948 18.9104 33.16 18.9104Z" fill="#4285F4"/>
<path d="M15.3241 24.5059C14.3893 24.5059 13.6328 25.2706 13.6328 26.2156V28.0807C13.6328 29.0257 14.3893 29.7904 15.3241 29.7904C16.2589 29.7904 17.0153 29.0257 17.0153 28.0807V26.2156C17.0153 25.2706 16.2589 24.5059 15.3241 24.5059Z" fill="#EA4335"/>
<path d="M15.3241 13.3149C14.3893 13.3149 13.6328 14.0796 13.6328 15.0246V21.1252H13.6343C13.6559 22.0515 14.4031 22.796 15.3241 22.796C16.245 22.796 16.9922 22.0515 17.0138 21.1252H17.0153V15.0246C17.0153 14.0796 16.2589 13.3149 15.3241 13.3149Z" fill="#EA4335"/>
<path d="M27.3163 13.3149C26.3814 13.3149 25.625 14.0796 25.625 15.0246V16.8898C25.625 17.8348 26.3814 18.5995 27.3163 18.5995C28.251 18.5995 29.0075 17.8348 29.0075 16.8898V15.0246C29.0075 14.0796 28.251 13.3149 27.3163 13.3149Z" fill="#34A853"/>
<path d="M21.3202 7.875C20.3854 7.875 19.6289 8.6397 19.6289 9.5847V11.4498C19.6289 12.3948 20.3854 13.1595 21.3202 13.1595C22.255 13.1595 23.0114 12.3948 23.0114 11.4498V9.5847C23.0114 8.6397 22.255 7.875 21.3202 7.875Z" fill="#FAB908"/>
<path d="M21.3202 29.9458C20.3854 29.9458 19.6289 30.7105 19.6289 31.6555V33.5206C19.6289 34.4656 20.3854 35.2303 21.3202 35.2303C22.255 35.2303 23.0114 34.4656 23.0114 33.5206V31.6555C23.0114 30.7105 22.255 29.9458 21.3202 29.9458Z" fill="#FAB908"/>
<path d="M27.3163 20.3093C26.3814 20.3093 25.625 21.074 25.625 22.019V28.0807C25.625 29.0257 26.3814 29.7904 27.3163 29.7904C28.251 29.7904 29.0075 29.0257 29.0075 28.0807V22.019C29.0075 21.074 28.251 20.3093 27.3163 20.3093Z" fill="#34A853"/>
<path d="M23.0114 16.5788C23.0114 15.6338 22.255 14.8691 21.3202 14.8691C20.3854 14.8691 19.6289 15.6338 19.6289 16.5788V20.7241V22.3825V26.5262C19.6289 27.4712 20.3854 28.2359 21.3202 28.2359C22.255 28.2359 23.0114 27.4712 23.0114 26.5262V22.381V20.7241V16.5788Z" fill="#FAB908"/>
<path d="M97.6842 32.119V27.6006H100.087C100.7 27.6006 101.266 27.4614 101.786 27.1828C102.307 26.9043 102.723 26.5149 103.034 26.0146C103.345 25.5143 103.501 24.9495 103.501 24.3202C103.501 23.691 103.345 23.1262 103.034 22.6258C102.723 22.1255 102.307 21.7361 101.786 21.4576C101.266 21.1791 100.7 21.0398 100.087 21.0398H96.3984V32.119H97.6842ZM100.118 26.3473H97.6842V22.2932H100.118C100.526 22.2932 100.886 22.3912 101.197 22.5872C101.508 22.7832 101.751 23.0359 101.924 23.3454C102.098 23.6548 102.184 23.9798 102.184 24.3202C102.184 24.6606 102.098 24.9856 101.924 25.2951C101.751 25.6045 101.508 25.8573 101.197 26.0533C100.886 26.2493 100.526 26.3473 100.118 26.3473ZM107.802 32.3665C108.567 32.3665 109.256 32.1808 109.868 31.8095C110.481 31.4381 110.958 30.9326 111.299 30.2931C111.641 29.6535 111.812 28.9468 111.812 28.1732C111.812 27.3995 111.641 26.6928 111.299 26.0533C110.958 25.4137 110.481 24.9082 109.868 24.5368C109.256 24.1655 108.567 23.9798 107.802 23.9798C107.037 23.9798 106.348 24.1655 105.736 24.5368C105.123 24.9082 104.646 25.4137 104.304 26.0533C103.962 26.6928 103.792 27.3995 103.792 28.1732C103.792 28.9468 103.962 29.6535 104.304 30.2931C104.646 30.9326 105.123 31.4381 105.736 31.8095C106.348 32.1808 107.037 32.3665 107.802 32.3665ZM107.802 31.1751C107.322 31.1751 106.873 31.0538 106.455 30.8114C106.037 30.569 105.702 30.2208 105.452 29.767C105.202 29.3131 105.077 28.7818 105.077 28.1732C105.077 27.5645 105.202 27.0333 105.452 26.5794C105.702 26.1255 106.037 25.7773 106.455 25.5349C106.873 25.2925 107.322 25.1713 107.802 25.1713C108.282 25.1713 108.728 25.2925 109.141 25.5349C109.555 25.7773 109.886 26.1255 110.136 26.5794C110.386 27.0333 110.511 27.5645 110.511 28.1732C110.511 28.7818 110.386 29.3131 110.136 29.767C109.886 30.2208 109.555 30.569 109.141 30.8114C108.728 31.0538 108.282 31.1751 107.802 31.1751ZM116.42 32.3665C117.022 32.3665 117.557 32.2298 118.027 31.9565C118.496 31.6831 118.853 31.3504 119.098 30.9584H119.159V32.119H120.399V21.0398H119.098V24.3047L119.159 25.4034H119.098C118.853 25.0011 118.496 24.6632 118.027 24.3898C117.557 24.1165 117.022 23.9798 116.42 23.9798C115.726 23.9798 115.096 24.1603 114.529 24.5214C113.963 24.8824 113.516 25.3827 113.19 26.0223C112.863 26.6619 112.7 27.3788 112.7 28.1732C112.7 28.9778 112.863 29.6973 113.19 30.3317C113.516 30.9662 113.963 31.4639 114.529 31.825C115.096 32.186 115.726 32.3665 116.42 32.3665ZM116.573 31.1751C116.124 31.1751 115.7 31.0513 115.302 30.8037C114.904 30.5561 114.585 30.2028 114.346 29.7437C114.106 29.2847 113.986 28.7612 113.986 28.1732C113.986 27.5852 114.106 27.0616 114.346 26.6026C114.585 26.1435 114.904 25.7902 115.302 25.5426C115.7 25.2951 116.124 25.1713 116.573 25.1713C117.032 25.1713 117.458 25.2951 117.851 25.5426C118.244 25.7902 118.56 26.141 118.8 26.5948C119.04 27.0487 119.159 27.5748 119.159 28.1732C119.159 28.7715 119.04 29.2976 118.8 29.7515C118.56 30.2054 118.244 30.5561 117.851 30.8037C117.458 31.0513 117.032 31.1751 116.573 31.1751ZM125.573 32.3665C126.41 32.3665 127.121 32.1654 127.708 31.7631C128.295 31.3607 128.721 30.8346 128.986 30.1847L127.823 29.6896C127.629 30.1641 127.333 30.5303 126.935 30.7882C126.537 31.0461 126.063 31.1751 125.512 31.1751C125.053 31.1751 124.624 31.0487 124.226 30.796C123.828 30.5432 123.509 30.1899 123.269 29.736C123.029 29.2821 122.91 28.7612 122.91 28.1732C122.91 27.5852 123.029 27.0642 123.269 26.6103C123.509 26.1564 123.828 25.8031 124.226 25.5504C124.624 25.2976 125.053 25.1713 125.512 25.1713C126.053 25.1713 126.514 25.2976 126.897 25.5504C127.28 25.8031 127.568 26.1719 127.762 26.6567L128.94 26.1616C128.696 25.5014 128.285 24.9727 127.708 24.5755C127.132 24.1784 126.42 23.9798 125.573 23.9798C124.818 23.9798 124.139 24.1603 123.537 24.5214C122.935 24.8824 122.466 25.3827 122.129 26.0223C121.792 26.6619 121.624 27.3788 121.624 28.1732C121.624 28.9675 121.792 29.6818 122.129 30.3163C122.466 30.9507 122.935 31.451 123.537 31.8172C124.139 32.1834 124.818 32.3665 125.573 32.3665ZM132.599 32.3665C133.16 32.3665 133.665 32.2324 134.114 31.9642C134.563 31.696 134.9 31.3711 135.124 30.9894H135.186V32.119H136.425V27.121C136.425 26.1513 136.122 25.3853 135.515 24.8231C134.907 24.2609 134.073 23.9798 133.012 23.9798C132.359 23.9798 131.764 24.1139 131.229 24.3821C130.693 24.6503 130.272 25.0217 129.966 25.4962L130.946 26.239C131.16 25.8985 131.451 25.6329 131.818 25.4421C132.185 25.2512 132.589 25.1558 133.027 25.1558C133.65 25.1558 134.165 25.3337 134.573 25.6896C134.981 26.0455 135.186 26.5175 135.186 27.1055V27.5852C134.971 27.4511 134.663 27.3324 134.259 27.2293C133.856 27.1261 133.42 27.0745 132.951 27.0745C132.002 27.0745 131.216 27.3092 130.594 27.7786C129.971 28.248 129.66 28.9004 129.66 29.736C129.66 30.2415 129.782 30.6928 130.027 31.09C130.272 31.4871 130.619 31.7992 131.068 32.0261C131.517 32.2531 132.027 32.3665 132.599 32.3665ZM132.721 31.206C132.221 31.206 131.808 31.0719 131.481 30.8037C131.155 30.5355 130.992 30.1847 130.992 29.7515C130.992 29.277 131.173 28.8901 131.535 28.591C131.897 28.2918 132.435 28.1422 133.15 28.1422C133.548 28.1422 133.925 28.1938 134.282 28.297C134.64 28.4001 134.941 28.5342 135.186 28.6993C135.186 29.1532 135.073 29.571 134.849 29.9526C134.624 30.3343 134.323 30.6386 133.946 30.8656C133.568 31.0925 133.16 31.206 132.721 31.206ZM140.665 32.3665C141.237 32.3665 141.757 32.2685 142.227 32.0725C142.696 31.8765 143.068 31.5954 143.344 31.2292C143.62 30.863 143.757 30.4375 143.757 29.9526C143.757 29.3956 143.563 28.9236 143.176 28.5368C142.788 28.15 142.211 27.8585 141.446 27.6625L140.313 27.3685C139.864 27.2551 139.528 27.1081 139.303 26.9275C139.079 26.747 138.966 26.5123 138.966 26.2235C138.966 25.914 139.127 25.6587 139.448 25.4575C139.77 25.2564 140.145 25.1558 140.573 25.1558C141.461 25.1558 142.079 25.5065 142.426 26.208L143.558 25.6819C143.334 25.1455 142.954 24.7277 142.418 24.4285C141.882 24.1294 141.272 23.9798 140.589 23.9798C140.068 23.9798 139.584 24.0726 139.135 24.2583C138.686 24.444 138.326 24.7096 138.056 25.0552C137.785 25.4008 137.65 25.8005 137.65 26.2544C137.65 26.8424 137.849 27.3221 138.247 27.6935C138.645 28.0648 139.155 28.3279 139.778 28.4826L140.727 28.7302C141.318 28.8746 141.752 29.0474 142.028 29.2486C142.303 29.4497 142.441 29.7154 142.441 30.0455C142.441 30.4168 142.267 30.7031 141.92 30.9043C141.574 31.1054 141.155 31.206 140.665 31.206C140.206 31.206 139.785 31.0771 139.403 30.8192C139.02 30.5613 138.732 30.1951 138.538 29.7205L137.374 30.2466C137.609 30.8656 138.007 31.3736 138.568 31.7708C139.13 32.168 139.829 32.3665 140.665 32.3665ZM147.89 32.2427C148.135 32.2427 148.337 32.2273 148.495 32.1963C148.653 32.1654 148.808 32.1138 148.962 32.0416V30.7573C148.686 30.9326 148.4 31.0203 148.104 31.0203C147.737 31.0203 147.456 30.9068 147.262 30.6799C147.099 30.4736 147.018 30.1538 147.018 29.7205V25.4188H148.916V24.2274H147.018V21.9992H145.717V24.2274H144.354V25.4188H145.717V30.0455C145.717 30.4168 145.768 30.7315 145.87 30.9894C145.972 31.2473 146.125 31.4742 146.329 31.6702C146.512 31.8456 146.74 31.9848 147.01 32.088C147.28 32.1912 147.574 32.2427 147.89 32.2427ZM153.156 32.3665C153.727 32.3665 154.247 32.2685 154.717 32.0725C155.186 31.8765 155.559 31.5954 155.834 31.2292C156.11 30.863 156.248 30.4375 156.248 29.9526C156.248 29.3956 156.054 28.9236 155.666 28.5368C155.278 28.15 154.702 27.8585 153.936 27.6625L152.804 27.3685C152.355 27.2551 152.018 27.1081 151.793 26.9275C151.569 26.747 151.457 26.5123 151.457 26.2235C151.457 25.914 151.617 25.6587 151.939 25.4575C152.26 25.2564 152.635 25.1558 153.064 25.1558C153.952 25.1558 154.569 25.5065 154.916 26.208L156.049 25.6819C155.824 25.1455 155.444 24.7277 154.908 24.4285C154.372 24.1294 153.763 23.9798 153.079 23.9798C152.559 23.9798 152.074 24.0726 151.625 24.2583C151.176 24.444 150.816 24.7096 150.546 25.0552C150.275 25.4008 150.14 25.8005 150.14 26.2544C150.14 26.8424 150.339 27.3221 150.737 27.6935C151.135 28.0648 151.645 28.3279 152.268 28.4826L153.217 28.7302C153.809 28.8746 154.242 29.0474 154.518 29.2486C154.793 29.4497 154.931 29.7154 154.931 30.0455C154.931 30.4168 154.758 30.7031 154.411 30.9043C154.064 31.1054 153.645 31.206 153.156 31.206C152.696 31.206 152.275 31.0771 151.893 30.8192C151.51 30.5613 151.222 30.1951 151.028 29.7205L149.865 30.2466C150.099 30.8656 150.497 31.3736 151.059 31.7708C151.62 32.168 152.319 32.3665 153.156 32.3665Z" fill="#3C4043"/>
<path d="M77.2135 24.1095C78.1779 24.1095 78.9398 24.5427 79.3327 25.0241H79.3922V24.3622H81.0827V31.6675C81.0827 34.6763 79.3327 35.9039 77.2612 35.9039C75.3087 35.9039 74.1301 34.58 73.6896 33.4968L75.2254 32.847C75.4992 33.5089 76.1659 34.2912 77.2493 34.2912C78.5707 34.2912 79.3922 33.4607 79.3922 31.9082V31.3185H79.3327C78.9398 31.8119 78.1779 32.2452 77.2135 32.2452C75.2016 32.2452 73.3563 30.464 73.3563 28.1894C73.3563 25.8907 75.2016 24.1095 77.2135 24.1095ZM59.7725 24.2298C61.9987 24.2298 63.8083 25.9388 63.8083 28.2977C63.8083 30.6445 61.9987 32.3655 59.7725 32.3655C57.5462 32.3655 55.7366 30.6445 55.7366 28.2977C55.7366 25.9388 57.5462 24.2298 59.7725 24.2298ZM68.5823 24.2298C70.8086 24.2298 72.6181 25.9388 72.6181 28.2977C72.6181 30.6445 70.8086 32.3655 68.5823 32.3655C66.356 32.3655 64.5464 30.6445 64.5464 28.2977C64.5464 25.9388 66.356 24.2298 68.5823 24.2298ZM88.702 24.2298C90.7855 24.2298 91.8093 25.9027 92.1426 26.8174L92.3212 27.2747L86.9401 29.5253C87.3568 30.3316 87.9877 30.7528 88.8925 30.7528C89.7973 30.7528 90.4164 30.3075 90.8807 29.6336L92.2498 30.5603C91.7974 31.2222 90.7378 32.3655 88.8925 32.3655C86.6067 32.3655 84.9043 30.5723 84.9043 28.2977C84.9043 25.8786 86.6305 24.2298 88.702 24.2298ZM49.3435 19.6565C51.2483 19.6565 52.6055 20.4147 53.6294 21.4016L52.415 22.6171C51.6888 21.9191 50.7007 21.3775 49.3435 21.3775C46.8315 21.3775 44.8672 23.4235 44.8672 25.9629C44.8672 28.5023 46.8315 30.5482 49.3435 30.5482C50.9745 30.5482 51.9031 29.8863 52.4984 29.2846C52.9865 28.7911 53.3079 28.0811 53.427 27.1182H49.3435V25.3972H55.0937C55.1532 25.7101 55.189 26.0712 55.189 26.4804C55.189 27.7802 54.8437 29.3808 53.7127 30.5121C52.6055 31.6675 51.2007 32.2813 49.3435 32.2813C45.891 32.2813 42.998 29.4531 42.998 25.9749C42.998 22.4847 45.891 19.6565 49.3435 19.6565ZM84.0471 20.1379V32.0887H82.2852V20.1379H84.0471ZM59.7725 25.8185C58.5462 25.8185 57.4986 26.8174 57.4986 28.2857C57.4986 29.7419 58.5581 30.7528 59.7725 30.7528C60.9868 30.7528 62.0463 29.7419 62.0463 28.2857C62.0463 26.8174 60.9868 25.8185 59.7725 25.8185ZM68.5823 25.8185C67.3561 25.8185 66.3084 26.8174 66.3084 28.2857C66.3084 29.7419 67.368 30.7528 68.5823 30.7528C69.7966 30.7528 70.8562 29.7419 70.8562 28.2857C70.8562 26.8174 69.8085 25.8185 68.5823 25.8185ZM77.3683 25.7101C76.154 25.7101 75.1301 26.7572 75.1301 28.1894C75.1301 29.6095 76.154 30.6445 77.3683 30.6445C78.5707 30.6445 79.5232 29.6215 79.5112 28.1894C79.5112 26.7572 78.5707 25.7101 77.3683 25.7101ZM88.7616 25.7944C87.8568 25.7944 86.6067 26.6007 86.6544 28.1653L90.2497 26.6609C90.0592 26.1434 89.464 25.7944 88.7616 25.7944Z" fill="#3C4043"/>
<path d="M48.3024 15.6949V14.8408H44.5894V7.77433H43.5508V15.6949H48.3024ZM50.1923 8.8188C50.386 8.8188 50.5331 8.7644 50.6336 8.6556C50.734 8.5468 50.7843 8.4108 50.7843 8.2476C50.7843 8.08441 50.734 7.94659 50.6336 7.83417C50.5331 7.72174 50.386 7.66553 50.1923 7.66553C49.9986 7.66553 49.8524 7.72174 49.7537 7.83417C49.6551 7.94659 49.6058 8.08441 49.6058 8.2476C49.6058 8.4108 49.6551 8.5468 49.7537 8.6556C49.8524 8.7644 49.9986 8.8188 50.1923 8.8188ZM50.682 15.6949V9.80887H49.6865V15.6949H50.682ZM54.6921 15.8037C55.3558 15.8037 55.8957 15.6451 56.3119 15.3277C56.728 15.0104 56.9361 14.5888 56.9361 14.0629C56.9361 13.7474 56.8617 13.4799 56.7128 13.2605C56.5639 13.0411 56.3352 12.8534 56.0267 12.6975C55.7181 12.5416 55.3154 12.4074 54.8186 12.2949C54.3217 12.1825 53.9782 12.0646 53.7881 11.9413C53.5979 11.818 53.5029 11.6349 53.5029 11.3919C53.5029 11.1344 53.6051 10.9259 53.8096 10.7663C54.0141 10.6067 54.2975 10.5269 54.6598 10.5269C55.0114 10.5269 55.3029 10.6267 55.5343 10.8261C55.7657 11.0256 55.8814 11.2632 55.8814 11.5388H56.8823C56.8823 11.002 56.6769 10.5614 56.2661 10.2169C55.8554 9.87234 55.3199 9.70007 54.6598 9.70007C54.032 9.70007 53.5163 9.8669 53.1127 10.2006C52.7091 10.5342 52.5073 10.9422 52.5073 11.4245C52.5073 11.7147 52.5782 11.9649 52.7199 12.1753C52.8616 12.3856 53.0804 12.5669 53.3764 12.7193C53.6724 12.8716 54.0724 13.0021 54.5764 13.1109C55.0805 13.2197 55.4338 13.3494 55.6365 13.4999C55.8392 13.6504 55.9406 13.8616 55.9406 14.1336C55.9406 14.3911 55.8267 14.597 55.5989 14.7511C55.3711 14.9052 55.0688 14.9823 54.6921 14.9823C54.2831 14.9823 53.954 14.8835 53.7047 14.6858C53.4553 14.4882 53.3217 14.2207 53.3038 13.8834H52.3082C52.3082 14.2316 52.4096 14.5552 52.6123 14.8544C52.815 15.1536 53.0957 15.3867 53.4544 15.5535C53.8132 15.7203 54.2257 15.8037 54.6921 15.8037ZM60.209 15.8037C60.4565 15.8037 60.7112 15.7675 60.9731 15.6949V14.8789C60.7722 14.9224 60.6144 14.9442 60.4996 14.9442C60.2664 14.9442 60.1013 14.8853 60.0045 14.7674C59.9076 14.6495 59.8592 14.4727 59.8592 14.237V10.5868H60.9462V9.80887H59.8592V8.3836H58.8637V9.80887H57.8036V10.5868H58.8637V14.237C58.8637 14.7375 58.9767 15.1237 59.2027 15.3957C59.4287 15.6677 59.7641 15.8037 60.209 15.8037ZM64.8003 15.8037C65.7761 15.8037 66.5079 15.4247 66.9958 14.6668L66.3877 14.188C66.2048 14.4274 65.9913 14.6196 65.7474 14.7647C65.5034 14.9097 65.2056 14.9823 64.8541 14.9823C64.359 14.9823 63.9509 14.8037 63.6298 14.4464C63.3088 14.0892 63.141 13.6205 63.1267 13.0402H67.0711V12.6213C67.0711 11.682 66.8613 10.9603 66.4415 10.4562C66.0218 9.95213 65.4335 9.70007 64.6765 9.70007C64.2137 9.70007 63.7841 9.82973 63.3877 10.089C62.9913 10.3483 62.6827 10.7074 62.4621 11.1661C62.2415 11.6249 62.1312 12.1462 62.1312 12.7301V12.9151C62.1312 13.7927 62.3787 14.4936 62.8738 15.0176C63.3688 15.5417 64.011 15.8037 64.8003 15.8037ZM66.0756 12.2133H63.159C63.2236 11.6802 63.3922 11.2659 63.6648 10.9703C63.9375 10.6747 64.2747 10.5269 64.6765 10.5269C65.0926 10.5269 65.4227 10.6675 65.6666 10.9485C65.9106 11.2296 66.0469 11.6258 66.0756 12.1372V12.2133ZM69.4938 15.6949V11.5007C69.6301 11.2178 69.8202 10.9893 70.0642 10.8153C70.3081 10.6412 70.5916 10.5542 70.9144 10.5542C71.3126 10.5542 71.6059 10.6557 71.7943 10.8588C71.9826 11.0619 72.0786 11.3756 72.0822 11.7999V15.6949H73.0777V11.8053C73.0669 10.4018 72.4463 9.70007 71.2158 9.70007C70.4983 9.70007 69.9171 9.98295 69.4723 10.5487L69.44 9.80887H68.4983V15.6949H69.4938ZM80.2477 15.8037C80.7715 15.8037 81.2351 15.6768 81.6387 15.4229C82.0423 15.1691 82.3526 14.8146 82.5697 14.3594C82.7867 13.9043 82.8953 13.3902 82.8953 12.8172V12.7465C82.8953 11.8253 82.6504 11.0873 82.1607 10.5324C81.671 9.97751 81.0297 9.70007 80.2369 9.70007C79.7239 9.70007 79.2674 9.8252 78.8674 10.0754C78.4674 10.3257 78.1553 10.6811 77.931 11.1417C77.7068 11.6023 77.5947 12.1209 77.5947 12.6975V12.7682C77.5947 13.6821 77.8396 14.4165 78.3293 14.9714C78.8189 15.5263 79.4584 15.8037 80.2477 15.8037ZM80.2477 14.9823C79.7454 14.9823 79.3445 14.7846 79.045 14.3893C78.7454 13.994 78.5956 13.47 78.5956 12.8172C78.5956 12.081 78.7463 11.5152 79.0477 11.1199C79.349 10.7246 79.7454 10.5269 80.2369 10.5269C80.7392 10.5269 81.1419 10.7273 81.445 11.1281C81.7481 11.5288 81.8997 12.052 81.8997 12.6975C81.8997 13.4192 81.7508 13.9804 81.4531 14.3812C81.1553 14.7819 80.7535 14.9823 80.2477 14.9823ZM85.4147 15.6949V11.5007C85.5511 11.2178 85.7412 10.9893 85.9852 10.8153C86.2291 10.6412 86.5125 10.5542 86.8354 10.5542C87.2336 10.5542 87.5269 10.6557 87.7152 10.8588C87.9036 11.0619 87.9995 11.3756 88.0031 11.7999V15.6949H88.9987V11.8053C88.9879 10.4018 88.3673 9.70007 87.1367 9.70007C86.4192 9.70007 85.8381 9.98295 85.3932 10.5487L85.3609 9.80887H84.4192V15.6949H85.4147Z" fill="#5F6368"/>
</svg>
