<svg width="10" height="20" viewBox="0 0 10 20" fill="none" xmlns="http://www.w3.org/2000/svg">
<path d="M6.21449 17.2856V7.57136H1.35735V9.99993H3.78592V17.2856H0.143066V19.7142H9.85735V17.2856H6.21449ZM5.00021 0.285645C4.63996 0.285645 4.28781 0.392469 3.98828 0.59261C3.68874 0.792751 3.45529 1.07722 3.31743 1.41004C3.17957 1.74286 3.1435 2.10909 3.21378 2.46242C3.28406 2.81574 3.45753 3.14029 3.71226 3.39502C3.96699 3.64975 4.29154 3.82322 4.64486 3.8935C4.99819 3.96378 5.36441 3.92771 5.69724 3.78985C6.03006 3.65199 6.31453 3.41854 6.51467 3.119C6.71481 2.81947 6.82164 2.46732 6.82164 2.10707C6.82164 1.624 6.62973 1.16071 6.28815 0.819128C5.94657 0.477544 5.48328 0.285645 5.00021 0.285645Z" fill="#B0B0B0"/>
</svg>
