<svg width="14" height="20" viewBox="0 0 14 20" fill="none" xmlns="http://www.w3.org/2000/svg">
<path d="M13.6276 5.89453L8.55698 0.416016C8.47484 0.328125 8.3854 0.253906 8.28866 0.191406C8.2631 0.175781 8.23755 0.160156 8.21017 0.146484C8.19374 0.136719 8.17549 0.128906 8.15906 0.121094C7.99478 0.0429687 7.81408 0 7.62973 0H1.33246C0.605997 0 0 0.628906 0 1.40625V18.5938C0 19.3711 0.605997 20 1.33246 20H12.704C13.4305 20 14 19.3711 14 18.5938V6.88477C14 6.51367 13.8722 6.1582 13.6276 5.89453ZM8.30508 2.15625L11.9703 6.09375H8.30508V2.15625ZM12.6858 18.5938H1.31421V1.40625H6.99087V6.09375C6.99087 6.87109 7.59687 7.5 8.32334 7.5H12.6858V18.5938ZM4.05215 13.6035C4.05215 14.0762 3.91525 14.2168 3.65241 14.2168C3.48814 14.2168 3.31656 14.1035 3.19974 13.8555L2.64485 14.2969C2.88944 14.7441 3.23442 14.9648 3.76376 14.9648C4.52308 14.9648 4.87353 14.3809 4.87353 13.6719V11.2695H4.05215V13.6035ZM6.81382 11.2695H5.64016V14.9023H6.44329V13.6914H6.83755C7.55124 13.6914 8.17184 13.3086 8.17184 12.4492C8.17184 11.5547 7.56036 11.2695 6.81382 11.2695ZM6.79922 13.0078H6.44329V11.9727H6.77549C7.16793 11.9727 7.38514 12.0938 7.38514 12.459C7.38514 12.8125 7.19348 13.0078 6.79922 13.0078ZM10.1304 12.832V13.5352H10.678V14.123C10.605 14.1797 10.4772 14.2148 10.3549 14.2148C9.72881 14.2148 9.42947 13.7969 9.42947 13.0781C9.42947 12.373 9.78905 11.957 10.2892 11.957C10.5684 11.957 10.7455 12.0781 10.9098 12.2383L11.3424 11.6855C11.1106 11.4355 10.7565 11.2129 10.2618 11.2129C9.35645 11.2129 8.59896 11.9023 8.59896 13.1074C8.59896 14.332 9.32907 14.9648 10.2691 14.9648C10.7419 14.9648 11.1671 14.7656 11.3917 14.5234V12.832H10.1304Z" fill="#28404A"/>
</svg>
