<svg width="18" height="18" viewBox="0 0 18 18" fill="none" xmlns="http://www.w3.org/2000/svg">
<path d="M7.74847 8.05656L14.7484 0.775719L17.6348 3.55075C18.0284 3.92916 18.0409 4.56544 17.6597 4.96192C17.2786 5.3584 16.6423 5.37091 16.2487 4.9925L14.804 3.6036L13.4179 5.04535L14.8597 6.43148C15.2562 6.81267 15.2687 7.44894 14.8875 7.84542C14.5063 8.2419 13.87 8.25442 13.4735 7.87323L12.0318 6.4871L9.19022 9.44269C9.88955 10.4631 10.1859 11.7065 10.0221 12.9327C9.85835 14.1588 9.246 15.2808 8.30335 16.0819C7.3607 16.883 6.15464 17.3064 4.9181 17.2702C3.68156 17.2341 2.50228 16.7411 1.60801 15.8863C0.713295 15.0278 0.169478 13.8675 0.08213 12.6307C-0.00521836 11.3938 0.370134 10.1686 1.13532 9.19289C1.9005 8.2172 3.00093 7.56063 4.22297 7.35065C5.44502 7.14067 6.70149 7.39225 7.74847 8.05656ZM7.23596 14.3611C7.7874 13.7875 8.0884 13.0184 8.07275 12.2229C8.05711 11.4274 7.72609 10.6707 7.15253 10.1193C6.57896 9.56785 5.80983 9.26685 5.01434 9.28249C4.21884 9.29814 3.46214 9.62916 2.91071 10.2027C2.35927 10.7763 2.05827 11.5454 2.07391 12.3409C2.08956 13.1364 2.42057 13.8931 2.99414 14.4445C3.5677 14.996 4.33683 15.297 5.13233 15.2813C5.92782 15.2657 6.68452 14.9347 7.23596 14.3611Z" fill="#565656"/>
</svg>
