<svg width="24" height="25" viewBox="0 0 24 25" fill="none" xmlns="http://www.w3.org/2000/svg">
<path d="M17.226 2.14054C17.0033 1.47412 16.6391 0.917179 16.1293 0.493526C15.778 0.203156 15.3624 0.0413114 14.9169 0.00799038C14.0686 -0.0586517 13.3832 0.293599 12.8177 0.988581C12.5735 1.28371 12.3935 1.61692 12.265 1.98345V1.97869C12.2479 2.02629 12.2307 2.0739 12.2093 2.1215V2.16434V2.1215C12.1922 2.0739 12.175 2.02629 12.1536 1.97869V1.98345C12.0251 1.61216 11.8452 1.28371 11.601 0.988581C11.0355 0.293599 10.35 -0.0586517 9.50175 0.00799038C9.0562 0.0413114 8.64492 0.198396 8.28934 0.493526C7.77952 0.917179 7.41537 1.47412 7.1926 2.14054C7.01266 2.67367 6.90984 3.22109 6.93555 3.79231C6.97411 4.61106 7.23115 5.34888 7.60387 6.0391C7.95089 6.68172 8.43928 7.20058 8.90197 7.73371C9.30468 8.19545 9.72024 8.6429 10.1529 9.07608C10.35 9.27124 10.5428 9.46165 10.7441 9.65206C10.757 9.66634 10.7741 9.68062 10.787 9.69966C10.877 9.78534 10.9669 9.87578 11.0655 9.96147C11.4082 10.2899 11.7509 10.6136 12.0936 10.9421C12.1322 10.9801 12.1708 10.9992 12.2093 11.0039V10.8516V11.0039C12.2436 10.9992 12.2822 10.9849 12.325 10.9421C12.6677 10.6136 13.0105 10.2899 13.3532 9.96147C13.4517 9.87578 13.5417 9.78534 13.6317 9.69966C13.6488 9.68538 13.6616 9.6711 13.6745 9.65206C13.8716 9.46165 14.0686 9.26648 14.2657 9.07608C14.6984 8.64766 15.114 8.19545 15.5167 7.73371C15.9836 7.20058 16.4678 6.68172 16.8148 6.0391C17.1875 5.34888 17.4445 4.61106 17.4831 3.79231C17.5088 3.22109 17.406 2.67367 17.226 2.14054Z" fill="#F2EC2C"/>
<path d="M1.64078 13.6506C1.65364 13.5078 1.78645 13.3936 1.90212 13.3936H2.13346C2.20629 13.3936 2.33482 13.4554 2.37766 13.5554L5.72785 20.4909H5.75784L9.10804 13.5554C9.15088 13.4602 9.2794 13.3936 9.35223 13.3936H9.58357C9.69925 13.3936 9.82777 13.5078 9.84491 13.6506L11.4772 24.4371C11.5071 24.6465 11.3743 24.7894 11.203 24.7894H9.49789C9.36937 24.7894 9.23656 24.6608 9.22371 24.5323L8.57252 19.5722H8.54681L6.11771 24.7798C6.07487 24.875 5.94634 24.956 5.87351 24.956H5.61218C5.5265 24.956 5.41082 24.875 5.36798 24.7798L2.92603 19.577H2.89604L2.26198 24.5371C2.24913 24.6656 2.13346 24.7941 1.9878 24.7941H0.27843C0.107065 24.7941 -0.0257431 24.6513 0.0042458 24.4419L1.64078 13.6506Z" fill="#525252"/>
<path d="M14.4336 13.8598C14.4336 13.698 14.5621 13.5552 14.7078 13.5552H16.4257C16.5842 13.5552 16.6999 13.698 16.6999 13.8598V17.906H20.8341V13.8598C20.8341 13.698 20.9498 13.5552 21.1083 13.5552H22.8262C22.9719 13.5552 23.1004 13.698 23.1004 13.8598V24.4892C23.1004 24.6511 22.9719 24.7939 22.8262 24.7939H21.1083C20.9498 24.7939 20.8341 24.6511 20.8341 24.4892V20.267H16.6999V24.4892C16.6999 24.6511 16.5842 24.7939 16.4257 24.7939H14.7078C14.5621 24.7939 14.4336 24.6511 14.4336 24.4892V13.8598Z" fill="#525252"/>
</svg>
