<svg width="25" height="22" viewBox="0 0 25 22" fill="none" xmlns="http://www.w3.org/2000/svg">
<path d="M0 7.60135C0 7.40428 0 7.20721 0 7.01013C0 7.01013 0.0281549 7.01013 0.0281549 6.98198C1.23874 4.84234 2.47748 2.7027 3.65991 0.534908C3.85698 0.168917 4.13852 0 4.56081 0C7.15091 0 9.741 0 12.3029 0C15.0338 0 17.7646 0 20.4955 0C20.8333 0 21.0867 0.112613 21.2556 0.422297C22.4662 2.56194 23.6768 4.67342 24.8874 6.81306C24.9718 6.95382 25 7.1509 25 7.29167C24.9437 8.64302 24.2962 9.68468 23.1137 10.3322C22.9167 10.4448 22.8604 10.5293 22.8604 10.7545C22.8604 14.1892 22.8604 17.6239 22.8885 21.0867C22.8885 21.6779 22.5225 21.9032 22.0439 21.9032C15.6813 21.9032 9.31869 21.9032 2.92793 21.9032C2.33671 21.9032 2.11149 21.6779 2.11149 21.0867C2.11149 17.6239 2.11149 14.161 2.11149 10.7263C2.11149 10.5293 2.05518 10.4448 1.88626 10.3604C1.2669 10.0507 0.731984 9.57207 0.450452 8.9527C0.281533 8.5304 0.168919 8.0518 0 7.60135ZM3.40653 10.8108C3.40653 14.1047 3.40653 17.3986 3.40653 20.6644C4.13852 20.6644 4.84235 20.6644 5.54618 20.6644C5.54618 20.5518 5.54618 20.4673 5.54618 20.3547C5.54618 18.2995 5.54618 16.2725 5.54618 14.2173C5.54618 13.1194 6.10923 12.1903 7.1509 12.0495C8.07995 11.9088 9.06532 11.9088 9.99437 12.0495C10.9797 12.1903 11.5709 13.0912 11.5709 14.1047C11.5709 16.1881 11.5709 18.2714 11.5709 20.3547C11.5709 20.4392 11.5709 20.5518 11.5709 20.6363C14.9493 20.6363 18.2996 20.6363 21.6779 20.6363C21.6779 17.3423 21.6779 14.0766 21.6779 10.7827C20.3547 10.8108 19.2849 10.2759 18.4966 9.20608C17.7365 10.2196 16.7793 10.7827 15.5124 10.7827C14.2737 10.7827 13.2883 10.2196 12.5282 9.20608C11.768 10.2196 10.7827 10.7827 9.54392 10.7827C8.30518 10.7827 7.31982 10.2196 6.55968 9.20608C5.77139 10.3041 4.72973 10.8108 3.40653 10.8108ZM1.82996 6.36261C8.98086 6.36261 16.1036 6.36261 23.2545 6.36261C23.2264 6.27815 23.1982 6.22185 23.17 6.16554C22.2691 4.58896 21.3682 3.01238 20.4955 1.4358C20.411 1.29504 20.2984 1.26689 20.1577 1.26689C15.0901 1.26689 10.0225 1.26689 4.95496 1.26689C4.78604 1.26689 4.67342 1.32319 4.58896 1.49211C3.71621 3.04054 2.84347 4.58896 1.94257 6.13738C1.88626 6.22184 1.85811 6.27815 1.82996 6.36261ZM10.3322 20.6644C10.3322 20.6081 10.3322 20.5518 10.3322 20.5236C10.3322 18.384 10.3322 16.2444 10.3322 14.1329C10.3322 13.5698 9.96622 13.2038 9.40315 13.2038C8.86824 13.2038 8.33333 13.2038 7.82657 13.2038C7.1509 13.2038 6.81307 13.5417 6.81307 14.2173C6.81307 16.3007 6.81307 18.384 6.81307 20.4392C6.81307 20.5236 6.81307 20.6081 6.81307 20.6926C7.9955 20.6644 9.14978 20.6644 10.3322 20.6644ZM19.1723 7.65765C19.2286 8.64301 20.2984 9.54392 21.3964 9.57207C22.5507 9.60023 23.6486 8.69932 23.7331 7.65765C22.241 7.65765 20.7207 7.65765 19.1723 7.65765ZM5.88401 7.65765C4.33558 7.65765 2.81532 7.65765 1.29505 7.65765C1.43581 8.72747 2.47747 9.57207 3.6036 9.57207C4.72973 9.54392 5.7714 8.69932 5.88401 7.65765ZM11.8243 7.65765C10.3041 7.65765 8.78379 7.65765 7.23536 7.65765C7.43244 8.81193 8.50225 9.62838 9.65653 9.57207C10.7545 9.48761 11.768 8.61486 11.8243 7.65765ZM17.7928 7.65765C16.2444 7.65765 14.7241 7.65765 13.2038 7.65765C13.3164 8.67117 14.33 9.54392 15.4279 9.57207C16.5822 9.60023 17.6239 8.75563 17.7928 7.65765Z" fill="currentColor"/>
<path d="M16.1036 11.9649C16.6385 11.9649 17.1734 11.9649 17.7083 11.9649C18.7218 11.9649 19.4257 12.6124 19.4538 13.5978C19.482 14.555 19.482 15.5122 19.4538 16.4694C19.4257 17.1733 18.7218 17.8771 18.018 17.9052C16.723 17.9334 15.4561 17.9334 14.161 17.9052C13.429 17.8771 12.7534 17.1733 12.7252 16.4413C12.6971 15.4559 12.6971 14.4424 12.7252 13.457C12.7534 12.6406 13.4853 11.9649 14.3018 11.9368C14.9212 11.9368 15.5124 11.9649 16.1036 11.9649ZM16.1036 16.6946C16.6385 16.6946 17.1734 16.6946 17.6802 16.6946C18.0743 16.6946 18.2432 16.5257 18.2432 16.1316C18.2432 15.3433 18.2432 14.5269 18.2432 13.7386C18.2432 13.3444 18.0743 13.1755 17.7083 13.1755C16.6385 13.1755 15.5687 13.1755 14.4707 13.1755C14.1047 13.1755 13.9358 13.3726 13.9358 13.7104C13.9358 14.5269 13.9358 15.3433 13.9358 16.1597C13.9358 16.5257 14.1047 16.6946 14.4707 16.6946C15.0338 16.7228 15.5687 16.6946 16.1036 16.6946Z" fill="currentColor"/>
</svg>
