<svg
  xmlns="http://www.w3.org/2000/svg"
  width="41"
  height="40"
  viewBox="0 0 41 40"
  fill="none">
  <path
    d="M30.5751 3.4193C30.1797 2.35475 29.5334 1.4651 28.6286 0.788358C28.005 0.324522 27.2675 0.0659909 26.4767 0.0127638C24.9711 -0.0936903 23.7545 0.468995 22.7508 1.57916C22.3173 2.0506 21.998 2.58287 21.7699 3.16837V3.16077C21.7394 3.2368 21.709 3.31284 21.671 3.38888V3.45732V3.38888C21.6406 3.31284 21.6102 3.2368 21.5722 3.16077V3.16837C21.344 2.57527 21.0247 2.0506 20.5913 1.57916C19.5876 0.468995 18.3709 -0.0936903 16.8654 0.0127638C16.0746 0.0659909 15.3446 0.316918 14.7135 0.788358C13.8086 1.4651 13.1623 2.35475 12.7669 3.4193C12.4475 4.27093 12.265 5.14538 12.3106 6.05784C12.3791 7.36571 12.8353 8.5443 13.4969 9.64687C14.1128 10.6734 14.9796 11.5022 15.8008 12.3538C16.5156 13.0914 17.2532 13.8062 18.0212 14.4981C18.3709 14.8099 18.7131 15.114 19.0705 15.4182C19.0933 15.441 19.1237 15.4638 19.1465 15.4942C19.3062 15.6311 19.4659 15.7756 19.6408 15.9125C20.2491 16.4371 20.8574 16.9542 21.4657 17.4789C21.5341 17.5397 21.6026 17.5701 21.671 17.5777V17.3344V17.5777C21.7318 17.5701 21.8003 17.5473 21.8763 17.4789C22.4846 16.9542 23.0929 16.4371 23.7012 15.9125C23.8761 15.7756 24.0358 15.6311 24.1955 15.4942C24.2259 15.4714 24.2487 15.4486 24.2715 15.4182C24.6213 15.114 24.9711 14.8023 25.3209 14.4981C26.0889 13.8138 26.8264 13.0914 27.5412 12.3538C28.37 11.5022 29.2293 10.6734 29.8452 9.64687C30.5067 8.5443 30.9629 7.36571 31.0314 6.05784C31.077 5.14538 30.8945 4.27093 30.5751 3.4193Z"
    fill="#F2EC2C"
  />
  <path
    d="M2.91221 21.8055C2.93502 21.5774 3.17074 21.3949 3.37605 21.3949H3.78666C3.91592 21.3949 4.14404 21.4937 4.22008 21.6534L10.1663 32.7323H10.2195L16.1658 21.6534C16.2418 21.5014 16.4699 21.3949 16.5992 21.3949H17.0098C17.2151 21.3949 17.4432 21.5774 17.4736 21.8055L20.3707 39.0359C20.4239 39.3704 20.1882 39.5986 19.8841 39.5986H16.8577C16.6296 39.5986 16.3939 39.3933 16.3711 39.188L15.2153 31.2647H15.1697L10.8583 39.5834C10.7822 39.7354 10.5541 39.8647 10.4248 39.8647H9.961C9.80892 39.8647 9.60362 39.7354 9.52758 39.5834L5.19337 31.2723H5.14015L4.01477 39.1956C3.99196 39.4009 3.78666 39.6062 3.52813 39.6062H0.494183C0.190028 39.6062 -0.0456913 39.378 0.00753583 39.0435L2.91221 21.8055Z"
    fill="#525252"
  />
  <path
    d="M25.6172 22.14C25.6172 21.8814 25.8453 21.6533 26.1038 21.6533H29.153C29.4343 21.6533 29.6396 21.8814 29.6396 22.14V28.6033H36.9774V22.14C36.9774 21.8814 37.1827 21.6533 37.464 21.6533H40.5132C40.7717 21.6533 40.9998 21.8814 40.9998 22.14V39.1194C40.9998 39.3779 40.7717 39.6061 40.5132 39.6061H37.464C37.1827 39.6061 36.9774 39.3779 36.9774 39.1194V32.3748H29.6396V39.1194C29.6396 39.3779 29.4343 39.6061 29.153 39.6061H26.1038C25.8453 39.6061 25.6172 39.3779 25.6172 39.1194V22.14Z"
    fill="#525252"
  />
</svg>