<svg width="365" height="341" viewBox="0 0 365 341" fill="none" xmlns="http://www.w3.org/2000/svg">
<path d="M224.443 287.774C224.443 289.808 223.335 290.519 221.427 290.442C219.706 290.375 217.976 290.452 216.255 290.462C184.13 290.447 152 290.437 119.875 290.413C118.844 290.413 117.814 290.298 116.783 290.24C117.2 288.76 116.476 288.111 115.153 287.611C113.264 286.899 111.346 286.577 109.352 286.548C109.304 285.192 109.395 283.812 109.184 282.481C108.187 276.197 107.281 269.913 107.382 263.529C107.468 262.26 107.334 260.933 107.679 259.74C108.916 255.442 109.203 250.971 110.114 246.611C110.661 243.976 111.284 241.245 111.461 238.447C111.581 236.524 112.128 234.437 112.578 232.442C113.322 229.139 113.815 225.784 114.021 222.394C116.001 221.587 118.01 220.837 119.961 219.962C125.82 217.337 125.81 217.317 122.775 211.567C122.703 211.428 122.646 211.274 122.584 211.13C121.169 208.779 120.359 206.082 118.542 203.962C118.331 203.481 118.125 202.995 117.914 202.514C118.001 199.909 118.816 197.413 119.151 194.837C119.621 191.231 121.102 187.764 120.781 184.014C121.625 183.139 121.841 182.072 121.721 180.909C121.376 178.788 122.78 176.923 122.699 174.913C122.584 172.091 123.6 169.471 124.041 166.788C124.372 164.774 124.305 162.659 124.928 160.697C125.848 157.803 125.872 154.736 126.644 151.837C127.483 148.678 126.611 144.99 129.42 142.418C129.684 142.25 130.058 142.149 130.192 141.909C131.98 138.75 136.549 138.332 138.62 141.24C139.756 142.841 141.304 142.543 142.699 142.236C143.807 141.99 145.816 141.697 145.633 140.481C145.164 137.284 147.369 136.178 149.186 134.538C150.241 133.587 151.506 133.231 152.436 133.793C155.178 135.447 155.969 133.327 157.168 131.736C158.386 130.12 158.707 128.625 156.904 127.212C156.137 126.611 156.07 125.769 156.583 125.091C157.067 124.452 157.201 123.788 157.211 123.087C157.235 121.303 157.945 120.236 159.848 120.101C160.864 120.029 161.799 119.428 161.9 118.423C162.067 116.764 162.096 115.053 161.866 113.404C161.66 111.918 159.771 113.082 159.138 112.029C160.375 111.764 161.607 111.558 162.892 111.567C168.535 111.615 174.182 111.591 179.825 111.591C181.728 111.399 183.698 112.048 185.534 111.101C186.009 111.687 186.675 111.587 187.303 111.587C194.092 111.591 200.88 111.587 207.668 111.587C222.602 111.587 237.54 111.606 252.474 111.567C254.382 111.562 255.336 112.019 254.952 114.187C253.663 121.466 252.239 128.716 251.083 136.019C249.655 145.043 247.78 153.995 246.323 163.019C245.067 170.784 243.605 178.514 242.123 186.236C240.297 195.76 238.935 205.365 237.075 214.889C236.308 218.832 235.191 222.812 235.44 226.928C234.841 227.399 234.592 228.053 234.482 228.774C233.983 232.043 233.691 235.365 232.919 238.572C232.401 240.721 232.506 242.019 234.942 242.322C233.949 242.721 232.041 241.51 232.099 243.721C232.147 245.625 231.351 247.245 230.747 248.918C230.507 249.587 230.761 249.51 231.145 249.582C224.884 250.75 220.253 254.269 217.17 259.74C213.479 266.279 213.814 273.024 216.772 279.736C218.359 283.288 221.322 285.625 224.443 287.774ZM212.856 260.13C212.29 259.341 212.51 258.625 213.071 257.957C214.303 256.49 213.373 256.043 212.06 255.822C211.043 255.649 210.315 256.154 209.5 256.76C208.253 257.692 208.191 259.562 206.614 260.149C203.263 260.187 199.916 260.255 196.565 260.25C194.557 260.25 193.435 261.279 193.032 263.149C192.63 265.024 192.347 266.923 191.958 268.803C191.599 270.548 192.165 271.317 194.034 271.288C199.14 271.216 204.25 271.264 209.356 271.255C209.831 271.255 210.334 271.26 210.78 271.111C213.23 270.293 214.788 261.952 212.856 260.13ZM144.56 277.913C153.5 277.913 162.446 277.923 171.387 277.904C173.003 277.899 175.381 278.279 175.304 276.005C175.227 273.788 172.825 274.587 171.387 274.582C153.98 274.529 136.573 274.548 119.17 274.553C118.533 274.553 117.866 274.466 117.262 274.615C116.14 274.889 114.635 275.014 114.822 276.659C114.999 278.231 116.409 277.913 117.492 277.913C126.515 277.918 135.537 277.913 144.56 277.913ZM139.296 269.24C145.916 269.24 152.532 269.221 159.153 269.255C160.701 269.26 161.909 268.774 162.015 267.115C162.144 265.087 160.519 265.437 159.296 265.437C146.3 265.423 133.303 265.438 120.302 265.418C118.753 265.413 117.162 265.582 117.138 267.438C117.109 269.298 118.758 269.25 120.158 269.25C126.534 269.236 132.915 269.24 139.296 269.24ZM169.604 183.216C163.223 183.216 156.837 183.212 150.456 183.221C149.665 183.221 148.874 183.154 148.102 183.49C147.206 183.885 146.688 184.437 146.736 185.49C146.789 186.524 147.565 186.447 148.227 186.683C149.239 187.048 150.26 187.029 151.295 187.029C163.261 187.029 175.227 187.029 187.198 187.029C187.754 187.029 188.324 187.091 188.871 187.005C190.17 186.793 191.666 186.394 191.652 184.885C191.637 183.187 190.074 183.207 188.756 183.212C182.37 183.226 175.985 183.221 169.604 183.216ZM162.312 225.99C169.019 225.99 175.73 225.981 182.437 226C183.818 226.005 184.902 225.433 184.973 224.058C185.06 222.351 183.583 222.639 182.514 222.639C169.259 222.625 155.998 222.635 142.743 222.625C141.314 222.625 140.053 222.957 140.106 224.644C140.159 226.322 141.606 225.986 142.666 225.99C149.21 226.005 155.758 225.995 162.312 225.99ZM159.105 245.697C165.649 245.697 172.197 245.687 178.741 245.707C180.203 245.712 181.675 245.572 181.637 243.716C181.598 241.861 179.978 242.356 178.88 242.351C165.788 242.327 152.695 242.332 139.607 242.337C139.128 242.337 138.648 242.337 138.169 242.361C137.282 242.409 136.947 243.058 136.788 243.784C136.606 244.63 137.153 245.226 137.829 245.471C138.476 245.707 139.233 245.687 139.943 245.692C146.329 245.697 152.714 245.692 159.105 245.697ZM165.629 206.288C172.403 206.288 179.182 206.279 185.956 206.298C187.351 206.303 187.994 205.74 187.975 204.298C187.955 202.817 186.982 202.918 186.004 202.918C172.691 202.918 159.378 202.928 146.065 202.918C144.627 202.918 143.39 203.274 143.452 204.952C143.514 206.625 144.962 206.279 146.017 206.284C152.556 206.298 159.09 206.288 165.629 206.288ZM136.208 190.755C136.208 190.793 136.208 190.837 136.208 190.875C137.642 190.875 139.08 190.875 140.513 190.875C141.185 190.875 141.832 190.812 141.904 189.937C142.052 188.106 143.093 186.409 142.862 184.553C142.652 182.851 144.679 180.942 143.088 179.692C141.803 178.688 139.689 179.399 137.949 179.385C132.047 179.341 132.047 179.365 131.414 185.284C131.395 185.442 131.381 185.606 131.405 185.764C131.668 187.462 129.655 189.524 131.093 190.582C132.22 191.423 134.458 190.755 136.208 190.755ZM126.4 249.538C127.756 249.538 129.113 249.524 130.475 249.543C131.616 249.562 132.2 249.12 132.354 247.894C132.675 245.37 133.054 242.851 133.586 240.365C133.893 238.942 133.524 238.437 132.109 238.462C129.636 238.505 127.157 238.543 124.683 238.447C123.188 238.389 122.507 238.986 122.262 240.423C121.865 242.774 121.342 245.106 120.891 247.452C120.599 248.99 121.174 249.697 122.809 249.562C123.998 249.462 125.201 249.543 126.4 249.538ZM131.712 218.774C126.227 218.774 126.227 218.774 125 223.856C124.981 223.933 124.923 224.005 124.923 224.082C124.583 230.721 122.33 229.75 129.343 229.841C129.501 229.841 129.664 229.841 129.823 229.841C135.46 229.841 135.446 229.841 136.208 224.168C136.438 222.466 137.623 220.264 136.678 219.202C135.571 217.971 133.202 218.971 131.712 218.774ZM134.487 199.077C133.135 199.077 131.779 199.077 130.427 199.077C129.751 199.077 129.128 199.154 129.012 200.005C128.639 202.832 127.67 205.553 127.536 208.428C127.483 209.62 127.876 210.192 129.156 210.159C131.625 210.096 134.094 210.111 136.563 210.154C137.805 210.173 138.438 209.731 138.634 208.418C138.998 205.99 139.531 203.582 139.972 201.163C140.25 199.649 139.713 198.909 138.068 199.053C136.884 199.154 135.681 199.067 134.487 199.077ZM185.079 161.553C178.943 161.553 172.806 161.562 166.67 161.543C165.452 161.538 164.206 161.774 164.148 163.13C164.076 164.875 165.639 164.423 166.655 164.433C170.96 164.476 175.261 164.452 179.566 164.452C187.136 164.452 194.71 164.442 202.28 164.457C203.641 164.462 205.104 164.346 205.118 162.673C205.132 160.846 203.474 161.591 202.534 161.582C196.714 161.519 190.899 161.553 185.079 161.553ZM217.156 183.221C214.126 183.221 211.091 183.269 208.062 183.202C206.326 183.163 204.447 183.433 204.452 185.365C204.456 187.192 206.446 187.024 207.865 187.029C213.608 187.048 219.352 187.043 225.095 187.029C225.804 187.029 226.543 186.995 227.209 186.784C228.216 186.457 229.227 185.889 229.107 184.635C228.973 183.236 227.756 183.245 226.73 183.236C223.537 183.202 220.344 183.221 217.156 183.221ZM213.695 202.923C210.425 202.923 207.151 202.942 203.881 202.913C202.515 202.899 201.173 203.019 200.981 204.678C200.775 206.437 202.429 206.63 203.445 206.625C210.209 206.606 216.988 207.212 223.738 206.298C225.023 206.125 225.661 205.385 225.622 204.26C225.584 203.014 224.563 202.894 223.513 202.904C220.238 202.942 216.969 202.923 213.695 202.923ZM210.487 222.63C207.05 222.63 203.618 222.615 200.18 222.635C198.905 222.639 197.879 223.375 197.793 224.538C197.711 225.654 198.823 225.99 199.873 225.99C206.662 225.986 213.455 225.995 220.243 225.981C221.538 225.976 222.434 225.356 222.405 223.971C222.377 222.606 221.293 222.625 220.306 222.625C217.041 222.625 213.767 222.625 210.487 222.63ZM207.271 242.327C203.848 242.327 200.429 242.332 197.007 242.322C195.822 242.317 194.705 242.361 194.672 243.976C194.638 245.591 195.707 245.702 196.92 245.697C199.706 245.678 202.491 245.692 205.276 245.692C209.097 245.692 212.913 245.668 216.734 245.707C218.273 245.721 219.006 244.812 219.002 243.519C218.997 242.168 217.755 242.337 216.82 242.332C213.637 242.322 210.454 242.327 207.271 242.327Z" fill="#DADAF2"/>
<path d="M231.155 249.558C230.771 249.49 230.517 249.562 230.757 248.894C231.361 247.216 232.157 245.601 232.109 243.697C232.051 241.486 233.959 242.697 234.952 242.298C239.578 242.298 244.2 242.298 248.826 242.298C249.636 242.298 250.441 242.298 251.252 242.298C253.442 242.101 255.7 242.846 257.834 241.822C261.367 240.875 263.826 238.63 264.579 235.091C265.773 229.486 266.559 223.788 267.594 218.149C269.968 205.216 272.173 192.26 274.426 179.308C276.296 168.558 278.295 157.827 280.121 147.067C282.264 134.428 284.551 121.808 286.795 109.183C289.585 93.4904 292.394 77.7981 295.199 62.1106C295.855 58.4375 294.067 55.5144 290.457 54.3894C289.753 53.601 288.808 53.9327 287.979 53.9327C258.294 53.9135 228.614 53.9279 198.929 53.9087C196.782 53.9087 194.83 54.5337 192.999 55.5096C189.984 57.1106 187.96 61.0096 188.459 63.976C187.692 64.5289 191.005 64.149 190.204 64.649L190.914 73.1731C191.216 74.6923 190.818 75.0673 190.914 76.2115C191.216 79.8654 190.914 76.2115 190.003 81.3029C189.264 85.4423 190.612 79.0529 188.929 83.9231C190.444 86.2644 184.945 81.7692 184.379 84.125C184.226 85.4567 183.109 93.0385 182.884 94.3606C181.891 100.106 180.856 105.841 179.835 111.577C174.192 111.577 168.545 111.601 162.902 111.553C161.617 111.543 160.385 111.75 159.148 112.014C156.751 110.644 155.62 106.404 157.303 104.38C158.324 103.149 158.458 102.101 157.418 101.043C156.257 99.8654 155.936 97.2356 153.467 98.1154C150.246 99.2596 148.568 96.8413 146.42 95.4375C145.878 95.0865 145.854 94.5529 145.806 93.976C145.528 90.8221 144.613 89.8558 141.564 89.5288C140.456 89.4087 139.574 89.3654 138.922 90.8125C137.911 93.0529 131.793 93.2885 130.652 91.1106C128.927 87.8125 126.889 90.25 124.967 90.4711C123.097 90.6827 123.361 92.1635 123.365 93.399C123.37 94.4039 123.279 95.3558 122.45 96C120.014 97.8894 117.426 99.1538 114.276 97.7596C115.7 94.4663 119.084 93.0913 121.323 90.5817C122.479 89.2885 124.161 88.4808 125.422 87.2596C130.393 82.4519 136.103 78.5433 141.506 74.2981C146.199 70.6106 151.137 67.1298 156.219 63.9375C163.003 59.6827 169.801 55.4327 176.776 51.5096C181.771 48.7019 186.877 45.9856 192.112 43.7115C196.034 42.0048 199.931 39.9615 203.963 38.774C209.189 37.2356 214.117 34.7212 219.481 33.8077C225.11 32.8462 230.628 31.3846 236.313 30.5673C241.563 29.8125 246.726 29.9039 251.904 29.9471C256.448 29.9856 260.921 31.1731 265.36 32.2933C268.798 33.1635 272.082 34.4808 275.322 35.7789C278.405 37.0144 281.071 39.2644 283.947 41.0288C286.962 42.875 289.302 45.4904 291.9 47.8269C299.71 54.8414 305.094 63.351 309.125 73.0096C311.062 77.6394 312.563 82.399 314.274 87.0817C314.893 88.774 315.425 90.7981 315.367 92.6154C315.286 95.3798 316.177 97.9471 316.614 100.543C317.822 107.707 317.961 114.918 318.239 122.101C318.474 128.13 317.601 134.188 317.227 140.231C316.964 144.476 316.23 148.817 315.324 152.99C313.967 159.226 312.52 165.476 310.99 171.678C309.542 177.553 307.467 183.197 305.621 188.885C304.048 193.74 302.246 198.649 299.715 203.226C297.576 207.096 296.33 211.452 294.273 215.375C290.937 221.726 287.576 228.115 283.626 234.087C279.733 239.962 275.644 245.726 271.037 251.139C267.839 254.899 264.344 258.303 260.964 261.846C259.67 263.202 258.16 264.361 256.654 265.486C255.988 265.981 256.05 266.553 256.046 267.163C256.026 269.163 256.05 271.168 256.026 273.173C256.017 273.933 256.266 274.865 255.082 275.038C255.173 270.788 255.763 266.601 254.19 262.351C250.878 253.404 240.149 247.548 231.155 249.558Z" fill="#F9F9F7"/>
<path d="M116.773 290.236C117.804 290.298 118.835 290.409 119.866 290.413C151.991 290.438 184.12 290.447 216.245 290.462C216.058 291.601 215.473 292.038 214.285 292.433C211.82 293.25 209.558 294.654 207.146 295.659C203.057 297.365 199.03 299.394 194.873 300.721C191.019 301.947 187.342 303.865 183.444 304.62C177.97 305.678 172.782 307.702 167.317 308.76C162.576 309.678 157.878 310.803 153.112 311.663C147.906 312.606 142.618 312.803 137.45 313.644C128.84 315.048 120.235 314.548 111.682 314.216C107.799 314.063 103.705 313.808 99.745 312.913C97.2713 312.356 94.7016 311.885 92.18 311.442C88.6899 310.832 85.3149 309.481 81.9399 308.308C77.1938 306.659 72.5915 304.654 68.3104 301.986C65.0552 299.957 61.6227 298.173 58.9955 295.255C58.4155 294.606 57.6916 294.087 57.0348 293.51C52.4612 289.486 48.9616 284.707 45.8071 279.452C42.4273 273.822 41.0274 267.538 38.592 261.615C37.7914 259.668 37.7051 257.221 37.6236 255.149C37.4415 250.673 36.6361 246.279 36.4539 241.822C36.243 236.62 37.1586 231.466 37.638 226.341C38.2085 220.236 39.3064 214.087 40.9843 208.087C42.3889 203.053 44.2203 198.154 45.6729 193.173C48.0315 185.072 51.862 177.716 55.7452 170.399C60.1988 162.01 65.1032 153.832 70.7649 146.188C74.2358 141.5 77.5917 136.731 81.3598 132.236C85.6265 127.144 90.0466 122.207 94.3517 117.168C98.441 112.385 103.082 108.207 107.262 103.563C108.667 102.005 110.34 100.87 112.243 100.048C112.195 101.346 110.455 102.264 111.797 103.952C114.118 106.88 112.301 111.5 108.619 112.582C108.259 112.688 107.804 112.822 107.612 113.096C106.361 114.928 107.785 119.37 109.812 120.082C112.464 121.014 113.825 125.663 111.975 127.798C111.232 128.654 110.997 129.563 111.447 130.413C112.147 131.736 112.991 133.005 114.113 134.058C114.506 134.423 114.985 134.712 115.378 134.442C118.629 132.221 120.412 135.149 122.646 136.471C123.413 136.923 123.821 137.716 123.567 138.514C122.584 141.596 125.082 141.649 126.798 142.255C127.589 142.534 128.533 142.365 129.411 142.399C126.601 144.971 127.474 148.659 126.635 151.817C125.863 154.716 125.839 157.784 124.919 160.678C124.295 162.639 124.362 164.755 124.032 166.769C123.595 169.457 122.574 172.072 122.689 174.894C122.771 176.904 121.366 178.774 121.711 180.889C120.868 179.24 120.024 177.591 119.18 175.938C119.928 174.101 120.676 172.264 121.428 170.428C122.013 168.995 121.52 168.308 119.995 168.288C118.332 168.269 116.673 168.231 115.009 168.202C114.113 166.692 112.996 165.288 112.689 163.49C113.432 162.212 112.171 161.639 111.663 160.913C109.678 158.048 107.051 155.755 104.568 153.337C107.19 149.058 107.262 144.236 107.468 139.447C107.574 137.038 107.459 134.644 106.505 132.385C105.872 130.889 104.956 129.673 103.077 130.207C102.123 130.476 101.806 129.798 101.308 129.332C98.115 126.351 94.7688 125.99 91.1445 128.548C86.5853 131.764 84.2842 136.264 84.5622 141.875C84.6293 143.207 84.3465 143.889 83.2439 144.538C80.2668 146.293 77.6108 148.462 75.5158 151.236C72.5148 155.212 71.5272 159.519 73.5934 164.264C73.0181 166.577 72.788 168.923 72.8264 171.303C72.8408 172.082 72.6634 172.942 73.7468 173.197C75.9713 176.644 78.1094 180.154 80.9667 183.139C71.3306 187.63 64.4176 195.024 58.9188 203.928C57.7443 206.332 55.841 208.37 55.3041 211.101C54.2974 212.563 53.8467 214.274 53.1851 215.894C52.8639 216.678 52.9215 217.226 53.7173 217.668C58.5976 220.356 63.4972 222.986 69.0247 224.12C70.1369 225.053 71.671 224.808 72.8695 225.505C69.9979 232.591 68.32 239.957 68.157 247.596C67.8549 261.74 70.6115 275.346 75.7987 288.476C75.7891 288.928 75.8994 289.308 76.4027 289.438C76.4651 290.678 77.0308 291.293 78.3539 291.212C79.61 291.135 80.8804 291.202 82.1412 291.197C82.7788 291.197 83.4644 291.226 83.6897 290.433C83.9294 289.582 83.426 289.063 82.7501 288.731C81.1728 287.957 79.4949 287.529 77.7355 287.466C77.7738 286.438 77.6588 285.37 77.8793 284.38C79.7202 275.99 81.5851 267.611 83.5123 259.24C84.7396 253.894 86.0676 248.572 87.4434 243.264C87.4866 243.106 87.0216 240.837 88.6611 242.399C88.6947 242.957 88.6659 243.524 88.7714 244.067C90.5548 253.163 93.3977 261.909 97.3623 270.298C99.3711 274.548 101.945 278.481 104.069 282.659C103.609 283.827 103.005 284.957 102.708 286.163C101.869 289.611 102.53 290.418 106.001 290.399C107.19 290.394 108.384 290.308 109.573 290.255C111.989 290.255 114.381 290.245 116.773 290.236Z" fill="#F9F9F7"/>
<path d="M129.42 142.399C128.543 142.365 127.599 142.534 126.808 142.255C125.091 141.649 122.594 141.596 123.576 138.514C123.83 137.716 123.423 136.923 122.656 136.471C120.422 135.149 118.634 132.221 115.388 134.442C114.995 134.712 114.511 134.423 114.122 134.058C113.001 133.01 112.162 131.736 111.457 130.413C111.006 129.567 111.241 128.654 111.984 127.798C113.835 125.663 112.478 121.014 109.822 120.082C107.794 119.37 106.37 114.928 107.622 113.096C107.809 112.822 108.269 112.687 108.628 112.582C112.31 111.505 114.132 106.88 111.807 103.952C110.465 102.264 112.205 101.341 112.253 100.048C112.723 99.4279 113.192 98.8125 113.662 98.1923C113.844 98.0288 114.022 97.8606 114.204 97.6971L114.271 97.75C117.421 99.149 120.01 97.8798 122.445 95.9904C123.27 95.351 123.365 94.3942 123.361 93.3894C123.356 92.149 123.092 90.6731 124.962 90.4615C126.884 90.2404 128.922 87.8077 130.648 91.101C131.789 93.2788 137.906 93.0433 138.917 90.8029C139.569 89.3606 140.451 89.4038 141.559 89.5192C144.608 89.8461 145.524 90.8125 145.802 93.9663C145.854 94.5433 145.873 95.0721 146.415 95.4279C148.568 96.8269 150.241 99.25 153.462 98.1058C155.931 97.226 156.257 99.8558 157.413 101.034C158.453 102.091 158.319 103.144 157.298 104.37C155.615 106.394 156.751 110.639 159.143 112.005C159.776 113.058 161.67 111.894 161.871 113.38C162.097 115.029 162.073 116.74 161.905 118.399C161.804 119.404 160.869 120.005 159.853 120.077C157.95 120.212 157.24 121.279 157.216 123.062C157.207 123.769 157.068 124.428 156.588 125.067C156.075 125.75 156.142 126.587 156.909 127.187C158.712 128.596 158.391 130.096 157.173 131.712C155.975 133.303 155.184 135.423 152.441 133.769C151.511 133.207 150.241 133.567 149.191 134.514C147.374 136.154 145.169 137.264 145.639 140.457C145.816 141.678 143.812 141.966 142.705 142.212C141.31 142.524 139.761 142.817 138.625 141.216C136.554 138.308 131.985 138.726 130.197 141.885C130.053 142.125 129.684 142.231 129.42 142.399ZM150.663 116.423C151.593 107 142.489 99.8894 135.063 99.8125C126.788 99.7308 118.197 106.514 118.49 116.341C118.773 125.803 125.417 132.13 134.67 132.404C143.189 132.659 151.099 125.481 150.663 116.423Z" fill="#F4EE46"/>
<path d="M231.155 249.558C240.149 247.548 250.878 253.409 254.186 262.341C255.758 266.591 255.168 270.779 255.077 275.029C252.934 282.125 248.687 287.207 241.443 289.495C235.513 291.37 229.875 290.654 224.443 287.774C221.322 285.625 218.36 283.288 216.782 279.707C213.824 273 213.489 266.255 217.18 259.712C220.263 254.245 224.889 250.721 231.155 249.558ZM242.133 263.438C242.565 263.337 243.552 263.88 243.941 262.846C244.281 261.947 243.6 261.365 243.039 260.788C241.951 259.668 240.676 258.798 239.113 258.721C237.704 258.654 236.826 258.351 236.822 256.712C236.817 255.385 235.781 255.322 234.76 255.308C233.796 255.293 233.01 255.37 233.01 256.659C233.01 258.13 231.778 258.322 230.743 258.721C228.729 259.5 226.951 260.817 226.409 262.865C225.225 267.346 227.219 270.178 231.745 271.221C233.897 271.716 236.055 272.274 238.106 273.072C239.549 273.63 240.94 274.904 240.499 276.519C240.082 278.038 238.696 278.971 236.783 278.913C233.998 278.827 231.304 279.111 229.204 276.462C228.398 275.447 226.212 275.413 225.33 276.572C224.558 277.582 225.44 278.981 226.62 279.731C227.679 280.404 228.542 281.466 229.899 281.596C231.294 281.731 232.181 282.413 232.842 283.678C233.461 284.865 236.222 285.173 236.678 284.101C237.406 282.38 238.849 282.154 240.264 281.687C242.982 280.798 244.708 278.885 245.427 276.192C246.199 273.293 243.691 269.625 240.551 268.76C237.718 267.981 234.894 267.178 232.047 266.447C230.944 266.163 230.302 265.418 230.35 264.433C230.407 263.351 230.7 261.99 231.965 261.74C234.362 261.269 236.889 260.817 239.003 262.582C239.88 263.322 240.762 263.591 242.133 263.438Z" fill="#F4EE46"/>
<path d="M89.476 94.1346C86.8728 94.2115 85.5449 92.2885 86.5708 89.9615C87.2899 88.3365 86.4414 86.0048 84.8114 85.5673C83.8094 85.2981 83.4643 84.774 83.5601 83.8846C83.6752 82.8558 83.0616 81.6731 84.3895 80.8942C86.7482 79.5096 87.1988 78.2163 86.3455 75.8798C85.7127 74.1442 86.9495 72.1827 88.7905 72.1779C91.2738 72.1731 93.1434 71.6394 93.2202 68.601C93.2489 67.476 96.3651 66.3942 97.228 67.2163C99.3661 69.2644 101.341 68.9231 103.465 67.1971C104.549 66.3173 107.272 67.5962 107.319 69.0048C107.406 71.5721 109.18 72.0769 111.131 72.1875C113.576 72.3269 114.726 73.649 114.228 75.9567C113.777 78.0529 113.456 80.0673 116.251 80.9856C117.55 81.4135 116.821 82.8029 116.927 83.7596C117.018 84.5673 116.864 85.1923 115.843 85.5769C113.878 86.3221 113.216 88.3798 114.141 90.1731C115.038 91.9135 113.604 94.2115 111.572 94.1875C109.28 94.1635 107.53 94.5817 107.286 97.4135C107.142 99.0913 104.203 99.9231 102.856 98.6683C101.063 96.9952 99.4956 96.976 97.6834 98.6394C96.1973 100.005 93.4503 99.0865 93.2058 97.1442C92.9037 94.8029 91.571 94.0673 89.476 94.1346ZM100.392 73.1635C94.1454 73.4423 90.7081 77.8413 90.3245 83.1538C89.9746 88.024 95.2145 93.3702 100.148 93.1442C105.368 92.9038 109.985 89.5769 110.215 83.125C110.397 77.9086 105.594 73.1875 100.392 73.1635Z" fill="#F4EE46"/>
<path d="M114.204 97.6875C114.022 97.851 113.844 98.0192 113.662 98.1827C113.839 98.0192 114.022 97.8558 114.204 97.6875Z" fill="#FDF6E3"/>
<path d="M235.45 226.904C241.28 226.909 247.114 226.837 252.939 226.966C255.082 227.014 255.844 226.505 256.184 224.144C257.249 216.736 258.797 209.404 260.068 202.024C261.338 194.649 262.743 187.298 263.816 179.885C264.641 174.216 265.964 168.625 266.976 162.986C268.798 152.793 270.547 142.582 272.336 132.385C273.52 125.639 274.733 118.894 275.907 112.149C277.93 100.538 279.925 88.9231 281.952 77.3173C282.772 72.6106 283.65 67.9135 284.503 63.2164C284.637 62.4808 285.232 61.6875 284.225 61.1058C283.932 60.6106 283.434 60.6394 282.964 60.6394C277.489 60.6635 272.014 60.6971 266.54 60.7308C260.451 60.726 254.363 60.7164 248.269 60.7115C242.214 60.7164 236.164 60.7212 230.11 60.726C224.035 60.7212 217.957 60.7115 211.883 60.7067C208.857 60.6779 205.832 60.6779 202.807 60.6202C198.071 60.524 193.277 60.0914 189.322 63.5769C189.092 63.7789 188.751 63.8462 188.459 63.976C187.96 61.0096 189.983 57.1106 192.999 55.5096C194.83 54.5337 196.781 53.9087 198.929 53.9087C228.614 53.9279 258.294 53.9135 287.979 53.9327C288.813 53.9327 289.752 53.601 290.457 54.3894C261.266 54.3894 232.07 54.3894 202.879 54.3894C202.875 54.5385 202.875 54.6875 202.87 54.8365C203.733 54.8365 204.596 54.8365 205.459 54.8365C231.907 54.8365 258.351 54.8365 284.8 54.8365C288.367 54.8365 289.982 56.4471 290.074 60.0577C290.179 64.2356 289.072 68.2644 288.448 72.3462C287.37 79.4135 285.831 86.4039 284.704 93.4712C283.05 103.827 281.137 114.144 279.349 124.481C277.806 133.399 276.257 142.327 274.637 151.236C272.988 160.308 271.348 169.38 269.809 178.471C268.553 185.913 266.904 193.293 265.701 200.745C263.951 211.577 262.009 222.37 260.015 233.154C259.2 237.548 257.407 240.736 252.814 241.827C254.487 241.827 256.16 241.827 257.834 241.827C255.7 242.856 253.442 242.106 251.251 242.303C250.441 241.663 249.636 241.663 248.826 242.303C244.199 242.303 239.578 242.303 234.952 242.303C232.511 242 232.411 240.702 232.928 238.553C233.7 235.346 233.993 232.029 234.491 228.755C234.602 228.029 234.851 227.375 235.45 226.904ZM239.933 58.226C240.791 58.0481 242.229 58.6106 242.272 57.3846C242.306 56.351 240.771 56.5289 239.976 56.4231C239.295 56.3365 237.948 56.4375 237.996 57.524C238.048 58.6202 239.247 58.0337 239.933 58.226Z" fill="#DADAF2"/>
<path d="M117.915 202.505C118.126 202.986 118.332 203.471 118.538 203.952C118.241 204.212 117.987 204.591 117.646 204.712C105.292 208.952 92.578 210.466 79.5813 209.567C77.0021 209.389 74.4565 208.697 71.8965 208.24C73.3443 207.572 72.9464 205.966 73.5456 204.856C76.0385 200.197 78.1431 195.327 80.799 190.769C81.9208 188.846 82.8797 186.438 85.3869 185.606C86.4464 185.413 87.4148 185.856 88.3784 186.13C90.1954 186.649 91.9117 186.803 93.5368 185.625C94.9319 185.635 96.327 185.644 97.722 185.659C97.8131 186.202 97.3385 186.471 97.1516 186.875C95.5455 190.298 95.6846 190.433 99.4527 190.524C102.833 190.606 106.227 190.154 109.587 190.798C112.363 194.697 115.139 198.601 117.915 202.505Z" fill="#F8F246"/>
<path d="M72.8841 225.514C71.6856 224.817 70.1515 225.067 69.0392 224.13C68.2962 222.25 69.2454 220.428 69.2358 218.562C69.231 216.788 70.2809 216.072 72.0116 216.351C73.1238 216.389 74.2552 216.308 75.3434 216.495C84.7733 218.115 94.1697 217.466 103.552 216.106C110.076 215.159 116.289 212.995 122.574 211.115C122.637 211.264 122.689 211.413 122.766 211.553C125.801 217.298 125.806 217.317 119.952 219.947C118.001 220.822 115.992 221.572 114.012 222.38C111.529 223.144 109.041 223.909 106.558 224.673C105.891 224.813 105.22 224.952 104.554 225.091C102.636 225.538 100.694 225.817 98.7576 226.144C90.0756 227.63 81.4702 227.37 72.8841 225.514Z" fill="#F8F246"/>
<path d="M122.579 211.12C116.294 212.995 110.081 215.163 103.556 216.111C94.1742 217.471 84.7778 218.12 75.3479 216.5C74.2597 216.313 73.1283 216.399 72.016 216.356C66.383 214.817 60.7308 213.356 55.3184 211.115C55.8505 208.385 57.7537 206.346 58.9331 203.942C59.0385 204.606 59.5611 204.745 60.0932 204.957C63.9093 206.486 67.8596 207.524 71.8962 208.24C74.4562 208.697 77.0019 209.389 79.5811 209.567C92.5777 210.462 105.292 208.952 117.646 204.712C117.991 204.591 118.24 204.212 118.538 203.952C120.354 206.072 121.165 208.769 122.579 211.12Z" fill="#FCD85B"/>
<path d="M104.558 225.096C105.225 224.957 105.896 224.817 106.562 224.678C106.509 225.072 106.409 225.466 106.409 225.861C106.433 236.231 106.385 246.601 106.576 256.971C106.615 259.135 106.567 261.413 107.382 263.529C107.281 269.913 108.187 276.197 109.184 282.481C109.395 283.812 109.304 285.192 109.352 286.548C109.295 287.212 109.602 287.937 108.997 288.505C107.612 287.519 106.452 286.351 105.881 284.702C106.701 283.51 106.049 282.38 105.507 281.442C101.543 274.582 99.7545 266.952 97.904 259.389C96.5042 253.673 95.7371 247.803 96.8877 241.889C97.8321 237.029 98.8724 232.231 102.593 228.51C103.47 227.62 104.664 226.668 104.558 225.096Z" fill="#EAAF8C"/>
<path d="M144.56 277.913C135.537 277.913 126.515 277.918 117.492 277.909C116.409 277.909 114.999 278.226 114.822 276.654C114.635 275.01 116.136 274.885 117.262 274.611C117.866 274.462 118.533 274.548 119.17 274.548C136.577 274.543 153.985 274.529 171.387 274.577C172.821 274.582 175.227 273.788 175.304 276C175.385 278.274 173.007 277.894 171.387 277.899C162.441 277.923 153.5 277.913 144.56 277.913Z" fill="#FDFDFD"/>
<path d="M212.856 260.13C214.788 261.947 213.23 270.288 210.785 271.111C210.344 271.26 209.841 271.255 209.361 271.255C204.255 271.264 199.145 271.221 194.039 271.288C192.17 271.312 191.604 270.548 191.963 268.803C192.352 266.923 192.635 265.024 193.037 263.149C193.44 261.279 194.557 260.25 196.571 260.25C199.922 260.255 203.268 260.187 206.619 260.149C206.048 262.082 204.462 263.168 203.057 264.644C202.41 263.63 201.854 262.774 201.312 261.904C200.756 261.01 199.97 260.731 199.073 261.236C198.076 261.798 197.889 262.663 198.517 263.668C199.318 264.952 200.123 266.236 200.895 267.538C201.868 269.192 202.947 269.058 204.112 267.769C205.929 265.76 207.885 263.856 209.505 261.697C210.445 260.447 211.432 259.995 212.856 260.13Z" fill="#817EB9"/>
<path d="M139.296 269.24C132.915 269.24 126.539 269.236 120.158 269.245C118.753 269.25 117.109 269.293 117.138 267.433C117.166 265.577 118.753 265.409 120.302 265.413C133.298 265.437 146.295 265.423 159.296 265.433C160.519 265.433 162.144 265.087 162.015 267.111C161.909 268.769 160.701 269.255 159.153 269.25C152.532 269.221 145.911 269.24 139.296 269.24Z" fill="#FDFDFD"/>
<path d="M169.604 183.216C175.985 183.216 182.371 183.221 188.752 183.212C190.07 183.212 191.633 183.188 191.647 184.885C191.662 186.389 190.166 186.793 188.867 187.005C188.32 187.091 187.754 187.029 187.193 187.029C175.228 187.029 163.262 187.029 151.291 187.029C150.255 187.029 149.234 187.048 148.223 186.683C147.561 186.442 146.784 186.519 146.732 185.49C146.679 184.438 147.201 183.885 148.098 183.49C148.87 183.154 149.661 183.221 150.452 183.221C156.838 183.216 163.223 183.216 169.604 183.216Z" fill="#FDFDFD"/>
<path d="M107.377 263.524C106.562 261.409 106.615 259.13 106.572 256.966C106.385 246.601 106.433 236.226 106.404 225.856C106.404 225.462 106.504 225.067 106.557 224.673C109.041 223.909 111.529 223.144 114.012 222.38C113.801 225.769 113.312 229.125 112.569 232.428C112.118 234.423 111.572 236.51 111.452 238.433C111.275 241.231 110.651 243.962 110.105 246.596C109.199 250.957 108.911 255.428 107.669 259.726C107.329 260.928 107.463 262.26 107.377 263.524Z" fill="#FDF5E3"/>
<path d="M162.312 225.99C155.763 225.995 149.215 226.005 142.666 225.981C141.607 225.976 140.159 226.317 140.106 224.635C140.053 222.947 141.314 222.615 142.743 222.615C155.998 222.625 169.259 222.615 182.514 222.63C183.583 222.63 185.06 222.346 184.974 224.048C184.907 225.423 183.818 225.995 182.438 225.99C175.726 225.981 169.019 225.99 162.312 225.99Z" fill="#FDFDFD"/>
<path d="M159.105 245.692C152.719 245.692 146.334 245.697 139.948 245.683C139.238 245.683 138.481 245.697 137.834 245.462C137.153 245.216 136.611 244.62 136.793 243.774C136.947 243.048 137.287 242.399 138.174 242.351C138.654 242.327 139.133 242.327 139.612 242.327C152.705 242.327 165.797 242.317 178.885 242.341C179.983 242.341 181.603 241.851 181.642 243.707C181.68 245.562 180.208 245.702 178.746 245.697C172.193 245.687 165.649 245.697 159.105 245.692Z" fill="#FDFDFD"/>
<path d="M165.63 206.288C159.091 206.288 152.556 206.298 146.017 206.279C144.963 206.274 143.515 206.62 143.452 204.947C143.39 203.274 144.632 202.913 146.065 202.913C159.378 202.923 172.691 202.918 186.004 202.913C186.982 202.913 187.956 202.812 187.975 204.293C187.994 205.74 187.352 206.298 185.957 206.293C179.183 206.274 172.404 206.288 165.63 206.288Z" fill="#FDFDFD"/>
<path d="M136.208 190.755C134.458 190.755 132.224 191.423 131.088 190.587C129.65 189.529 131.664 187.466 131.4 185.769C131.376 185.615 131.395 185.447 131.409 185.288C132.042 179.37 132.042 179.346 137.944 179.389C139.684 179.404 141.798 178.687 143.083 179.697C144.675 180.947 142.647 182.856 142.858 184.558C143.088 186.413 142.047 188.111 141.899 189.942C141.827 190.817 141.18 190.88 140.509 190.88C139.075 190.88 137.637 190.88 136.204 190.88C136.208 190.832 136.208 190.793 136.208 190.755Z" fill="#FDFDFD"/>
<path d="M126.4 249.543C125.201 249.543 123.998 249.466 122.809 249.563C121.174 249.702 120.599 248.99 120.891 247.452C121.342 245.106 121.86 242.774 122.262 240.423C122.507 238.986 123.188 238.389 124.683 238.447C127.157 238.543 129.636 238.505 132.109 238.462C133.524 238.438 133.893 238.942 133.586 240.365C133.054 242.851 132.675 245.37 132.354 247.894C132.196 249.12 131.611 249.558 130.475 249.543C129.113 249.524 127.756 249.538 126.4 249.543Z" fill="#FDFDFD"/>
<path d="M131.712 218.774C133.203 218.966 135.571 217.971 136.669 219.202C137.613 220.264 136.429 222.466 136.199 224.168C135.442 229.841 135.451 229.841 129.813 229.841C129.655 229.841 129.492 229.841 129.334 229.841C122.325 229.745 124.573 230.721 124.914 224.082C124.919 224.005 124.976 223.933 124.991 223.856C126.227 218.774 126.227 218.774 131.712 218.774Z" fill="#FDFDFD"/>
<path d="M134.488 199.072C135.681 199.067 136.885 199.154 138.069 199.048C139.718 198.904 140.25 199.649 139.972 201.159C139.531 203.577 138.999 205.981 138.634 208.413C138.438 209.721 137.805 210.168 136.563 210.149C134.094 210.106 131.625 210.091 129.157 210.154C127.872 210.187 127.479 209.615 127.536 208.423C127.67 205.548 128.639 202.827 129.013 200C129.123 199.149 129.751 199.072 130.427 199.072C131.779 199.077 133.136 199.077 134.488 199.072Z" fill="#FDFDFD"/>
<path d="M194.25 59.9712C193.358 65.1971 187.145 101.082 186.258 106.308C186.153 106.933 186.091 107.563 186.004 108.192C185.218 109.053 185.65 110.106 185.544 111.072L185.539 111.077C183.703 112.024 181.728 111.375 179.83 111.567C180.851 105.827 181.886 100.091 182.879 94.351C183.109 93.0337 188.253 63.851 188.401 62.5192C190.261 62.6154 192.385 59.875 194.25 59.9712Z" fill="#DADAF2"/>
<path d="M185.079 161.553C190.899 161.553 196.714 161.519 202.534 161.587C203.469 161.596 205.128 160.851 205.118 162.678C205.104 164.351 203.642 164.462 202.28 164.462C194.71 164.447 187.136 164.457 179.566 164.457C175.261 164.457 170.956 164.481 166.656 164.437C165.639 164.428 164.076 164.88 164.148 163.135C164.206 161.779 165.452 161.543 166.67 161.548C172.806 161.567 178.943 161.553 185.079 161.553Z" fill="#FDFDFD"/>
<path d="M117.914 202.505C115.139 198.601 112.363 194.697 109.592 190.793C112.166 191.168 113.542 189.909 114.137 187.505C114.266 186.976 114.573 186.486 114.803 185.981C116.759 185.202 118.94 185.111 120.786 184C121.107 187.75 119.626 191.216 119.156 194.822C118.816 197.404 118.001 199.894 117.914 202.505Z" fill="#FDF5E3"/>
<path d="M217.156 183.221C220.344 183.221 223.537 183.202 226.725 183.231C227.756 183.24 228.974 183.226 229.103 184.63C229.223 185.885 228.211 186.447 227.205 186.779C226.543 186.995 225.8 187.024 225.09 187.024C219.347 187.043 213.604 187.043 207.861 187.024C206.446 187.019 204.452 187.187 204.447 185.361C204.442 183.428 206.322 183.159 208.057 183.197C211.092 183.269 214.122 183.221 217.156 183.221Z" fill="#FDFDFD"/>
<path d="M213.695 202.923C216.964 202.923 220.239 202.942 223.508 202.909C224.558 202.899 225.574 203.019 225.617 204.264C225.656 205.389 225.018 206.13 223.733 206.303C216.979 207.216 210.205 206.611 203.44 206.63C202.429 206.635 200.77 206.437 200.976 204.683C201.168 203.024 202.51 202.904 203.876 202.918C207.151 202.942 210.425 202.923 213.695 202.923Z" fill="#FDFDFD"/>
<path d="M210.488 222.63C213.762 222.625 217.036 222.625 220.315 222.63C221.303 222.63 222.386 222.611 222.415 223.976C222.444 225.361 221.552 225.981 220.253 225.986C213.465 226 206.672 225.995 199.883 225.995C198.833 225.995 197.721 225.659 197.803 224.543C197.889 223.38 198.915 222.649 200.19 222.639C203.618 222.62 207.055 222.63 210.488 222.63Z" fill="#FDFDFD"/>
<path d="M207.271 242.327C210.454 242.327 213.637 242.317 216.816 242.332C217.755 242.337 218.997 242.168 218.997 243.519C219.002 244.812 218.268 245.726 216.729 245.707C212.913 245.668 209.093 245.692 205.272 245.692C202.486 245.692 199.701 245.683 196.916 245.697C195.703 245.707 194.634 245.591 194.667 243.976C194.701 242.361 195.818 242.317 197.002 242.322C200.43 242.337 203.848 242.327 207.271 242.327Z" fill="#FDFDFD"/>
<path d="M212.856 260.13C211.432 259.995 210.445 260.447 209.505 261.697C207.885 263.856 205.929 265.76 204.112 267.769C202.947 269.058 201.873 269.192 200.895 267.538C200.123 266.236 199.322 264.952 198.517 263.668C197.889 262.663 198.076 261.798 199.073 261.236C199.97 260.731 200.756 261.01 201.312 261.904C201.854 262.774 202.41 263.635 203.057 264.644C204.462 263.168 206.048 262.082 206.619 260.149C208.191 259.562 208.254 257.687 209.505 256.76C210.32 256.149 211.049 255.649 212.065 255.822C213.383 256.043 214.309 256.495 213.077 257.957C212.511 258.625 212.29 259.341 212.856 260.13Z" fill="#FDFDFD"/>
<path d="M120.781 184C118.935 185.106 116.754 185.197 114.798 185.981C112.828 184.625 112.593 183.692 114.726 182.087C116.922 180.428 118.087 178.269 119.194 175.942C120.038 177.591 120.882 179.24 121.726 180.894C121.836 182.063 121.62 183.125 120.781 184Z" fill="#EAAF8C"/>
<path d="M108.993 288.5C109.592 287.938 109.29 287.207 109.343 286.543C111.337 286.572 113.255 286.894 115.143 287.606C116.471 288.106 117.195 288.755 116.773 290.236C114.381 290.245 111.984 290.255 109.592 290.269C109.391 289.678 109.194 289.087 108.993 288.5Z" fill="#F26E63"/>
<path d="M257.833 241.822C256.16 241.822 254.487 241.822 252.814 241.822C257.407 240.731 259.205 237.538 260.015 233.149C262.014 222.361 263.955 211.572 265.7 200.74C266.904 193.288 268.548 185.909 269.809 178.466C271.343 169.375 272.983 160.303 274.637 151.231C276.257 142.322 277.801 133.394 279.349 124.476C281.137 114.139 283.05 103.822 284.704 93.4663C285.831 86.399 287.37 79.4086 288.448 72.3413C289.071 68.2596 290.179 64.2356 290.073 60.0529C289.982 56.4423 288.367 54.8317 284.8 54.8317C258.351 54.8317 231.907 54.8317 205.458 54.8317C204.595 54.8317 203.733 54.8317 202.87 54.8317C202.874 54.6827 202.874 54.5337 202.879 54.3846C232.07 54.3846 261.266 54.3846 290.457 54.3846C294.067 55.5096 295.85 58.4375 295.193 62.1058C292.389 77.7981 289.58 93.4856 286.789 109.178C284.546 121.803 282.259 134.418 280.116 147.062C278.29 157.822 276.291 168.553 274.421 179.303C272.168 192.255 269.962 205.216 267.589 218.144C266.554 223.788 265.768 229.481 264.574 235.087C263.826 238.63 261.371 240.87 257.833 241.822Z" fill="#B4B2D7"/>
<path d="M248.826 242.298C249.636 241.659 250.441 241.659 251.251 242.298C250.446 242.298 249.636 242.298 248.826 242.298Z" fill="#C6EEF4"/>
<path d="M104.558 225.096C104.664 226.668 103.47 227.62 102.588 228.505C98.863 232.226 97.8275 237.024 96.883 241.885C95.7325 247.798 96.4995 253.668 97.8994 259.385C99.7547 266.947 101.538 274.577 105.503 281.438C106.044 282.375 106.696 283.505 105.877 284.697C105.282 284.024 104.683 283.351 104.088 282.673C101.965 278.495 99.3903 274.562 97.3816 270.312C93.4169 261.923 90.5741 253.183 88.7907 244.082C88.6852 243.538 88.714 242.971 88.6804 242.413C89.0112 237.861 89.7926 233.375 90.7035 228.904C90.7946 228.466 91.2309 227.966 90.6987 227.606C90.2577 227.303 89.7926 227.649 89.3564 227.841C86.3265 229.173 83.987 231.404 81.9256 233.889C76.1967 240.808 74.4277 249.168 73.9387 257.803C73.5839 263.995 73.5024 270.26 74.4037 276.428C74.955 280.178 75.0509 284.019 76.3166 287.654C76.3357 287.909 76.3501 288.159 76.3693 288.413C76.1871 288.438 76.0049 288.457 75.818 288.481C70.6308 275.351 67.8742 261.75 68.1763 247.601C68.3393 239.962 70.0172 232.596 72.8888 225.51C81.4749 227.365 90.0803 227.625 98.7671 226.144C100.694 225.822 102.641 225.543 104.558 225.096Z" fill="#E3A581"/>
<path d="M104.577 153.337C107.056 155.755 109.683 158.048 111.668 160.913C112.176 161.644 113.437 162.212 112.694 163.49C111.725 164.442 110.762 165.394 109.793 166.341C107.626 162.514 104.367 159.726 101.049 156.957C101.917 158.923 102.765 161 104.266 162.332C106.351 164.178 105.33 166.264 105.488 168.279C104.908 168.649 104.808 169.269 104.544 169.851C102.621 174.115 101.164 178.591 98.8677 182.692C96.1783 182.745 93.3258 183.764 91.0774 181.317C92.9327 180.716 94.8743 180.322 96.6625 179.106C89.7303 174.197 89.3228 166.774 88.7331 159.351C87.1894 163.889 86.8299 168.49 86.7771 173.135C86.1443 172.601 86.4128 171.841 86.2977 171.183C86.7388 168.909 85.8806 168.087 83.5268 168.236C81.5468 168.361 79.6628 168.649 77.7403 169.159C75.5015 169.755 73.6414 170.409 73.7517 173.197C72.673 172.942 72.8456 172.082 72.8312 171.303C72.7929 168.923 73.023 166.572 73.5983 164.26C76.5131 154.731 83.2104 149.457 92.9375 149.024C93.3546 151.341 95.416 153.447 97.185 153.361C99.3567 153.255 98.5465 151.462 98.8917 150.322C101.039 150.856 102.554 152.582 104.577 153.337Z" fill="#F8F246"/>
<path d="M76.3118 287.659C75.0461 284.029 74.9503 280.183 74.3989 276.433C73.4929 270.264 73.5792 264.005 73.9339 257.808C74.4277 249.173 76.1919 240.812 81.9208 233.894C83.9823 231.404 86.3217 229.178 89.3516 227.846C89.7878 227.654 90.2529 227.308 90.6939 227.611C91.2261 227.971 90.785 228.466 90.6987 228.909C89.7926 233.375 89.0064 237.861 88.6756 242.418C87.0361 240.856 87.5011 243.125 87.4579 243.284C86.082 248.591 84.7541 253.913 83.5268 259.26C81.5996 267.63 79.7347 276.01 77.8938 284.399C77.6781 285.389 77.7883 286.452 77.75 287.486C77.2706 287.538 76.7912 287.601 76.3118 287.659Z" fill="#EAAF8C"/>
<path d="M92.9422 149.034C83.2151 149.466 76.5178 154.74 73.603 164.269C71.5368 159.524 72.5243 155.216 75.5254 151.24C77.6204 148.466 80.2763 146.293 83.2534 144.543C84.3561 143.894 84.6389 143.212 84.5718 141.88C84.2985 136.264 86.5997 131.764 91.154 128.553C94.7783 125.995 98.1246 126.356 101.317 129.337C101.816 129.803 102.132 130.481 103.086 130.212C104.966 129.678 105.881 130.894 106.514 132.389C107.468 134.649 107.583 137.043 107.478 139.452C107.267 144.24 107.195 149.058 104.577 153.341C102.554 152.582 101.044 150.856 98.8964 150.337C98.8053 149.721 98.5656 149.096 99.0834 148.394C100.651 149.413 102.305 149.76 103.245 147.707C104.947 143.981 105.066 140.106 103.513 136.313C102.904 134.832 101.811 133.543 99.9224 133.591C97.9951 133.639 96.95 134.894 96.1494 136.466C95.9049 136.942 96.02 137.822 95.3968 137.856C93.0525 137.986 93.762 139.62 93.9586 140.817C94.4332 143.678 94.5338 146.447 92.9422 149.034Z" fill="#49423E"/>
<path d="M98.8727 182.697C101.169 178.596 102.626 174.125 104.549 169.861C104.813 169.279 104.913 168.654 105.493 168.288C106.318 168.269 107.138 168.245 107.962 168.226C110.316 168.221 112.665 168.216 115.019 168.212C116.683 168.24 118.341 168.279 120.005 168.298C121.529 168.317 122.023 169.005 121.438 170.438C120.686 172.274 119.943 174.111 119.19 175.947C118.082 178.274 116.918 180.433 114.722 182.091C112.593 183.697 112.823 184.63 114.794 185.986C114.568 186.49 114.262 186.981 114.127 187.51C113.533 189.913 112.157 191.168 109.583 190.798C106.217 190.154 102.823 190.611 99.448 190.524C95.6798 190.433 95.5408 190.298 97.1468 186.875C97.3338 186.471 97.8084 186.202 97.7221 185.659C98.0673 184.654 98.8295 183.817 98.8727 182.697Z" fill="#DFE9DB"/>
<path d="M71.8962 208.24C67.8548 207.529 63.9093 206.486 60.0933 204.957C59.5611 204.745 59.0386 204.606 58.9331 203.942C64.4319 195.038 71.3449 187.644 80.981 183.154C82.7116 183.5 83.9868 184.663 85.3867 185.606C82.8794 186.433 81.9158 188.841 80.7988 190.769C78.1477 195.327 76.0383 200.202 73.5454 204.856C72.9461 205.966 73.3488 207.567 71.8962 208.24Z" fill="#F8F246"/>
<path d="M55.3183 211.115C60.7308 213.361 66.383 214.817 72.016 216.356C70.2853 216.072 69.2354 216.788 69.2402 218.567C69.245 220.428 68.3006 222.255 69.0437 224.135C63.5161 223 58.6166 220.37 53.7362 217.683C52.9356 217.24 52.8829 216.697 53.2041 215.909C53.8609 214.288 54.3115 212.577 55.3183 211.115Z" fill="#F8F246"/>
<path d="M85.387 185.601C83.9871 184.663 82.7071 183.495 80.9813 183.149C78.124 180.163 75.9811 176.654 73.7614 173.207C73.6464 170.418 75.5064 169.764 77.7501 169.168C79.6725 168.659 81.5565 168.37 83.5365 168.245C85.8904 168.096 86.7485 168.913 86.3075 171.192C84.0015 171.957 82.0024 173.188 80.3532 175C79.5478 175.885 79.2842 176.889 79.9218 177.827C80.8422 179.178 81.8058 180.481 83.0811 181.606C86.1109 184.274 89.7736 185.038 93.5465 185.625C91.9213 186.803 90.205 186.649 88.3881 186.13C87.4149 185.851 86.4465 185.413 85.387 185.601Z" fill="#E3A581"/>
<path d="M104.088 282.673C104.683 283.346 105.282 284.019 105.876 284.697C106.447 286.351 107.607 287.519 108.992 288.5C109.194 289.091 109.395 289.683 109.597 290.274C108.408 290.322 107.219 290.409 106.025 290.413C102.549 290.433 101.892 289.625 102.731 286.178C103.019 284.966 103.623 283.837 104.088 282.673Z" fill="#C6EEF4"/>
<path d="M76.3115 287.659C76.7909 287.601 77.2703 287.538 77.7497 287.481C79.5092 287.548 81.1871 287.971 82.7643 288.745C83.4403 289.077 83.9437 289.596 83.704 290.447C83.4786 291.24 82.7931 291.207 82.1555 291.212C80.8946 291.216 79.6242 291.149 78.3682 291.226C77.045 291.308 76.4793 290.692 76.417 289.452C76.858 289.087 76.743 288.745 76.3643 288.423C76.3451 288.163 76.3307 287.913 76.3115 287.659Z" fill="#F26E63"/>
<path d="M115.019 168.207C112.665 168.212 110.316 168.216 107.962 168.221C108.576 167.596 109.184 166.971 109.798 166.346C110.766 165.394 111.73 164.442 112.698 163.495C113.005 165.293 114.122 166.697 115.019 168.207Z" fill="#EAAF8C"/>
<path d="M76.3644 288.418C76.7479 288.74 76.8582 289.082 76.4171 289.447C75.9137 289.317 75.8035 288.938 75.8131 288.486C75.9952 288.462 76.1822 288.442 76.3644 288.418Z" fill="#EAAF8C"/>
<path d="M150.662 116.423C151.099 125.486 143.193 132.659 134.665 132.404C125.417 132.13 118.768 125.803 118.485 116.341C118.192 106.514 126.783 99.7308 135.058 99.8125C142.489 99.8846 151.588 107 150.662 116.423ZM134.622 123.144C138.658 123.159 142.009 120.082 141.87 116.236C141.698 111.481 138.682 108.937 134.732 108.832C130.825 108.726 127.45 111.889 127.522 116.053C127.594 120.053 130.604 123.13 134.622 123.144Z" fill="#FDFDFD"/>
<path d="M242.133 263.438C240.762 263.591 239.885 263.322 238.998 262.582C236.884 260.817 234.362 261.269 231.96 261.74C230.694 261.99 230.397 263.351 230.345 264.433C230.292 265.418 230.934 266.163 232.042 266.447C234.889 267.178 237.713 267.981 240.546 268.76C243.686 269.625 246.194 273.293 245.422 276.192C244.703 278.885 242.977 280.798 240.259 281.688C238.844 282.149 237.397 282.38 236.673 284.101C236.217 285.178 233.456 284.865 232.837 283.678C232.176 282.409 231.289 281.731 229.894 281.596C228.542 281.466 227.679 280.409 226.615 279.731C225.435 278.981 224.553 277.582 225.325 276.572C226.212 275.413 228.398 275.447 229.199 276.462C231.299 279.111 233.993 278.827 236.778 278.913C238.686 278.976 240.076 278.043 240.494 276.519C240.935 274.904 239.544 273.63 238.101 273.072C236.049 272.279 233.892 271.721 231.74 271.221C227.214 270.178 225.224 267.346 226.404 262.865C226.946 260.813 228.724 259.495 230.738 258.721C231.778 258.322 233.005 258.13 233.005 256.659C233.005 255.37 233.791 255.298 234.755 255.308C235.776 255.322 236.812 255.389 236.816 256.712C236.826 258.351 237.699 258.659 239.108 258.721C240.676 258.793 241.951 259.668 243.034 260.788C243.595 261.365 244.276 261.947 243.936 262.846C243.547 263.88 242.56 263.337 242.133 263.438Z" fill="#FFFC9B"/>
<path d="M100.392 73.1635C105.594 73.1923 110.397 77.9135 110.21 83.125C109.98 89.5817 105.364 92.9038 100.143 93.1442C95.2098 93.3702 89.9699 88.024 90.3198 83.1538C90.7034 77.8413 94.1455 73.4375 100.392 73.1635ZM104.573 83.3702C104.63 80.6923 103.043 78.9086 100.546 78.8558C97.8417 78.7933 95.9289 80.5721 95.9241 83.1586C95.9193 85.4231 97.8177 87.4135 100.071 87.5048C102.578 87.6058 104.52 85.8269 104.573 83.3702Z" fill="#FDFDFD"/>
<path d="M185.544 111.072C185.65 110.106 185.218 109.048 186.005 108.192C185.918 109.163 186.402 110.226 185.544 111.072Z" fill="#C6EEF4"/>
<path d="M250.767 81.7596C250.925 81.6058 251.083 81.4471 251.246 81.2933C251.088 81.4471 250.93 81.601 250.767 81.7596Z" fill="#F26E63"/>
<path d="M239.933 58.226C239.247 58.0289 238.049 58.6154 237.996 57.5241C237.948 56.4423 239.295 56.3366 239.976 56.4231C240.772 56.5241 242.306 56.3462 242.272 57.3846C242.234 58.6154 240.791 58.0481 239.933 58.226Z" fill="#8BCED9"/>
<path d="M93.5366 185.62C89.7636 185.034 86.101 184.274 83.0711 181.601C81.7959 180.481 80.8323 179.173 79.9119 177.822C79.2742 176.885 79.5379 175.88 80.3433 174.995C81.9925 173.178 83.9964 171.952 86.2975 171.188C86.4126 171.851 86.1441 172.606 86.7769 173.139C87.2276 176.106 87.7453 179.043 90.5451 180.856C90.7272 181.005 90.9094 181.154 91.0916 181.298L91.0772 181.317C93.3256 183.764 96.1829 182.745 98.8675 182.692C98.8244 183.808 98.0621 184.644 97.7218 185.644C96.3267 185.644 94.9316 185.63 93.5366 185.62Z" fill="#EAAF8C"/>
<path d="M92.9424 149.034C94.534 146.447 94.4333 143.673 93.9587 140.808C93.7622 139.611 93.0527 137.976 95.3969 137.846C96.0202 137.813 95.9051 136.938 96.1496 136.457C96.9502 134.88 98.0001 133.63 99.9225 133.582C101.811 133.534 102.904 134.822 103.513 136.303C105.067 140.096 104.951 143.971 103.245 147.697C102.305 149.75 100.651 149.404 99.0836 148.385C98.5658 149.087 98.8007 149.712 98.8966 150.327C98.5514 151.466 99.3664 153.26 97.1899 153.365C95.4257 153.462 93.3595 151.351 92.9424 149.034Z" fill="#EAAF8C"/>
<path d="M90.545 180.861C87.75 179.043 87.2275 176.111 86.7769 173.144C86.8296 168.5 87.1891 163.899 88.7328 159.361C89.3225 166.784 89.73 174.207 96.6622 179.115C94.874 180.327 92.9324 180.726 91.0771 181.327L91.0915 181.308C90.9093 181.159 90.7272 181.01 90.545 180.861Z" fill="#F8F246"/>
<path d="M109.798 166.346C109.184 166.971 108.571 167.596 107.962 168.221C107.137 168.24 106.318 168.264 105.493 168.284C105.335 166.269 106.356 164.183 104.271 162.337C102.765 161.005 101.921 158.928 101.054 156.962C104.371 159.731 107.631 162.519 109.798 166.346Z" fill="#F8F246"/>
<path d="M134.622 123.144C130.604 123.13 127.594 120.058 127.527 116.058C127.455 111.894 130.83 108.731 134.737 108.837C138.687 108.942 141.698 111.486 141.875 116.24C142.009 120.077 138.658 123.159 134.622 123.144Z" fill="#F4EE46"/>
<path d="M104.573 83.3702C104.52 85.8269 102.578 87.6058 100.066 87.5048C97.8131 87.4135 95.9146 85.4231 95.9194 83.1586C95.9242 80.5769 97.8371 78.7981 100.541 78.8558C103.043 78.9086 104.63 80.6923 104.573 83.3702Z" fill="#F4EE46"/>
<path d="M90.5454 180.861C90.7276 181.01 90.9098 181.159 91.0919 181.303C90.9098 181.159 90.7276 181.01 90.5454 180.861Z" fill="#F26E63"/>
</svg>
