<svg width="205" height="206" viewBox="0 0 205 206" fill="none" xmlns="http://www.w3.org/2000/svg">
<g clip-path="url(#clip0_488_12899)">
<rect width="205" height="205" transform="translate(0 0.0117188)" fill="#F8F246"/>
<path d="M197 161.562C244.604 120.138 240.884 68.244 201.293 22.7422C179.394 -2.41325 141.999 -9.4785 113.627 -4.61889C88.4726 -0.304289 74.2853 80.3225 53.1001 98.7883C5.55941 140.374 -48.5542 165.707 -12.1695 213.5C-1.92006 226.997 149.411 203.027 197 161.562Z" fill="#FFFC9B"/>
<path d="M52.6768 99.5708H54.7937V71.4047L68.7885 99.5708H70.9053L82.4305 71.4047V99.5708H89.5455V59.5856H84.959L72.3166 90.9269L56.9105 59.5856H52.6768V99.5708ZM148.476 99.5708H155.65V59.5856H148.476V77.1085H130.659V59.5856H123.544V99.5708H130.659V78.9902H148.476V99.5708ZM24.1483 148.571H30.4968V131.939H34.8515C42.2494 131.939 48.1257 128.109 48.1257 121.97C48.1257 115.779 43.4561 112.893 36.0583 112.893H24.1483V148.571ZM33.6973 114.572C38.5767 114.572 41.5673 117.51 41.5673 122.757C41.5673 127.741 38.839 130.26 34.3269 130.26H30.4968V114.572H33.6973ZM59.5057 149.095C66.7462 149.095 71.9929 143.009 71.9929 134.929C71.9929 126.849 66.7462 120.763 59.5057 120.763C52.3177 120.763 47.0186 126.849 47.0186 134.929C47.0186 143.009 52.3177 149.095 59.5057 149.095ZM61.3421 146.787C56.3052 146.787 52.4227 138.34 52.4227 130.522C52.4227 126.01 54.5213 123.124 57.7218 123.124C62.8636 123.124 66.6412 131.834 66.6412 139.074C66.6412 143.901 64.5426 146.787 61.3421 146.787ZM83.1835 149.095C87.6432 149.095 90.0042 146.577 92.6276 141.75V148.571H98.2416V110.27H98.1891L92.6276 110.742V121.655C90.8437 121.078 88.9024 120.763 86.7513 120.763C78.6714 120.763 73.8444 127.741 73.8444 136.031C73.8444 143.586 77.5171 149.095 83.1835 149.095ZM85.6495 144.111C81.5046 144.111 79.196 139.809 79.196 134.037C79.196 128.633 80.8225 122.285 86.4365 122.285C88.9549 122.285 91.106 123.701 92.6276 125.853V140.281C90.8437 142.799 88.3253 144.111 85.6495 144.111ZM112.88 149.095C117.76 149.095 121.957 145.58 123.584 138.812L122.692 138.602C121.747 142.17 119.281 143.901 115.661 143.901C109.837 143.901 106.06 138.497 106.06 131.414C106.06 127.059 107.948 122.285 112.565 122.285C116.658 122.285 118.022 125.066 118.284 130.05H122.954C122.324 123.806 117.812 120.763 113.352 120.763C105.745 120.763 101.285 127.269 101.285 135.192C101.285 143.219 105.692 149.095 112.88 149.095ZM139.543 148.571H145.105V129.893C145.105 124.226 141.957 120.763 135.661 120.763C131.306 120.763 125.797 124.016 125.797 129.315H128.998C128.683 125.328 130.099 123.124 133.195 123.124C137.235 123.124 139.543 126.535 139.543 131.362V132.726C129.155 135.611 124.643 138.235 124.643 142.904C124.643 146.21 126.584 149.095 131.096 149.095C134.664 149.095 137.287 147.049 139.543 144.059V148.571ZM129.942 141.278C129.942 138.759 131.149 136.608 139.543 134.3V142.747C137.864 144.269 136.185 145.16 133.982 145.16C131.463 145.16 129.942 143.796 129.942 141.278ZM158.306 149.148C163.185 149.148 167.697 146 167.697 140.858C167.697 131.257 154.213 133.513 154.213 126.954C154.213 124.383 155.892 122.39 159.145 122.39C161.768 122.39 163.605 123.596 163.605 126.692C163.605 127.112 163.605 127.689 163.552 128.161H166.963C167.015 123.334 162.451 120.763 158.253 120.763C153.321 120.763 149.386 124.121 149.386 128.738C149.386 138.55 162.608 135.874 162.608 142.59C162.608 145.738 160.509 147.417 157.204 147.417C153.951 147.417 152.115 145.843 152.115 142.275C152.115 141.855 152.167 141.383 152.167 140.963H148.547C148.547 146.682 153.216 149.148 158.306 149.148ZM186.221 142.38L185.591 141.96C184.332 143.691 182.548 144.636 181.027 144.636C178.823 144.636 176.987 143.219 176.987 139.074V122.6H184.122V121.288H176.987V113.995H176.829L171.373 116.251V121.288H167.438V122.6H171.373V141.645C171.373 146.734 174.363 149.095 178.089 149.095C181.446 149.095 184.017 147.049 186.221 142.38Z" fill="#194049"/>
<path d="M90.6864 36.4251V44.146H92.5355V36.4251H96.0298V34.78H87.1921V36.4251H90.6864ZM98.6784 44.146H100.552V40.3756C102.353 40.3756 104.154 40.3756 105.955 40.3756V44.146H107.828V34.78H105.955V38.6465C104.154 38.6465 102.353 38.6465 100.552 38.6465V34.78H98.6784V44.146ZM111.547 44.146H118.968V42.4889H113.42C113.42 41.7445 113.42 41 113.42 40.2555H118.535V38.5264H113.42C113.42 37.83 113.42 37.1215 113.42 36.4251H118.823V34.78H111.547V44.146Z" fill="#194049"/>
<path d="M66.3568 177.887H67.1819C67.5051 177.108 67.7475 176.449 68.0707 175.573H68.0792C68.3641 176.356 68.615 176.998 68.9723 177.887H69.793L70.9625 174.57H70.2141C69.9206 175.373 69.674 176.13 69.3805 176.994H69.3678C69.0616 176.186 68.7511 175.378 68.4492 174.57H67.6964C67.3988 175.378 67.0883 176.186 66.7864 176.994H66.7779C66.5057 176.181 66.2165 175.365 65.9358 174.57H65.1873L66.3568 177.887ZM71.8887 177.887H72.5522V174.57H71.8887V177.887ZM74.7305 175.152V177.887H75.3854V175.152H76.6229V174.57H73.4929V175.152H74.7305ZM77.561 177.887H78.2244V176.551C78.8623 176.551 79.5002 176.551 80.1381 176.551V177.887H80.8015V174.57H80.1381V175.939C79.5002 175.939 78.8623 175.939 78.2244 175.939V174.57H77.561V177.887ZM83.7939 177.887H85.4397C86.0521 177.887 86.7708 177.67 86.7708 176.981C86.7708 176.522 86.4518 176.271 85.9713 176.19V176.181C86.4178 176.075 86.6304 175.748 86.6304 175.429C86.6304 174.94 86.1924 174.57 85.4014 174.57H83.7939V177.887ZM84.4573 177.304C84.4573 177.032 84.4573 176.755 84.4573 176.483H85.2951C85.6608 176.483 86.0648 176.577 86.0648 176.896C86.0648 177.219 85.6693 177.304 85.2951 177.304H84.4573ZM84.4573 175.939C84.4573 175.68 84.4573 175.412 84.4573 175.152H85.2015C85.563 175.152 85.9372 175.242 85.9372 175.548C85.9372 175.854 85.5843 175.939 85.21 175.939H84.4573ZM87.8614 177.887H90.345V177.3C89.7368 177.3 89.1329 177.3 88.5248 177.3V174.57H87.8614V177.887ZM91.2851 177.887H93.9133V177.3H91.9486C91.9486 177.036 91.9486 176.773 91.9486 176.509H93.7602V175.896H91.9486C91.9486 175.65 91.9486 175.399 91.9486 175.152H93.8623V174.57H91.2851V177.887ZM96.3002 177.959C97.1507 177.959 97.7333 177.5 97.7333 176.9C97.7333 176.271 97.0954 176.105 96.7127 176.007L96.3044 175.896C96.0365 175.828 95.5729 175.705 95.5729 175.429C95.5729 175.225 95.8451 175.076 96.2151 175.076C96.6021 175.076 96.87 175.242 96.9976 175.509L97.6015 175.276C97.4612 174.872 96.9593 174.502 96.2364 174.502C95.5006 174.502 94.884 174.88 94.884 175.48C94.884 176.113 95.5729 176.334 95.9514 176.428L96.3129 176.517C96.6404 176.602 97.0316 176.692 97.0316 176.977C97.0316 177.245 96.6659 177.385 96.2917 177.385C95.9047 177.385 95.5177 177.245 95.3603 176.777L94.7437 176.977C94.9435 177.61 95.5687 177.959 96.3002 177.959ZM100.06 177.959C100.911 177.959 101.493 177.5 101.493 176.9C101.493 176.271 100.856 176.105 100.473 176.007L100.065 175.896C99.7967 175.828 99.3331 175.705 99.3331 175.429C99.3331 175.225 99.6053 175.076 99.9753 175.076C100.362 175.076 100.63 175.242 100.758 175.509L101.362 175.276C101.221 174.872 100.72 174.502 99.9965 174.502C99.2608 174.502 98.6442 174.88 98.6442 175.48C98.6442 176.113 99.3331 176.334 99.7116 176.428L100.073 176.517C100.401 176.602 100.792 176.692 100.792 176.977C100.792 177.245 100.426 177.385 100.052 177.385C99.6648 177.385 99.2778 177.245 99.1205 176.777L98.5038 176.977C98.7037 177.61 99.3289 177.959 100.06 177.959ZM102.553 177.887H103.217V174.57H102.553V177.887ZM104.536 177.887H105.199V175.726H105.212C105.85 176.479 106.488 177.168 107.122 177.887H107.81V174.57H107.156V176.777H107.143C106.509 176.016 105.833 175.263 105.229 174.57H104.536V177.887ZM110.87 177.959C111.512 177.959 111.976 177.755 112.256 177.385H112.282C112.295 177.551 112.307 177.721 112.316 177.887H112.826V176.169H111.032V176.683H112.163C112.078 177.104 111.61 177.364 110.985 177.364C110.368 177.364 109.603 177.087 109.603 176.249C109.603 175.526 110.198 175.097 110.921 175.097C111.499 175.097 111.912 175.386 112.125 175.777L112.733 175.543C112.473 174.927 111.767 174.502 110.921 174.502C109.837 174.502 108.91 175.144 108.91 176.232C108.91 177.24 109.726 177.959 110.87 177.959ZM115.113 177.887H115.798C115.942 177.598 116.083 177.308 116.223 177.019H117.822C117.967 177.308 118.107 177.598 118.247 177.887H118.949L117.414 174.57H116.648L115.113 177.887ZM116.512 176.407C116.695 176.033 116.878 175.641 117.018 175.331H117.031C117.188 175.688 117.363 176.054 117.533 176.407H116.512ZM119.846 177.887H121.399C122.555 177.887 123.24 177.194 123.24 176.207C123.24 175.31 122.679 174.57 121.352 174.57H119.846V177.887ZM120.51 177.304C120.51 176.607 120.51 175.85 120.51 175.152H121.186C121.828 175.152 122.547 175.288 122.547 176.241C122.547 177.062 121.986 177.304 121.335 177.304H120.51ZM124.338 177.887H126.966V177.3H125.001C125.001 177.036 125.001 176.773 125.001 176.509H126.813V175.896H125.001C125.001 175.65 125.001 175.399 125.001 175.152H126.915V174.57H124.338V177.887ZM129.353 177.959C130.203 177.959 130.786 177.5 130.786 176.9C130.786 176.271 130.148 176.105 129.765 176.007L129.357 175.896C129.089 175.828 128.625 175.705 128.625 175.429C128.625 175.225 128.898 175.076 129.268 175.076C129.655 175.076 129.922 175.242 130.05 175.509L130.654 175.276C130.514 174.872 130.012 174.502 129.289 174.502C128.553 174.502 127.936 174.88 127.936 175.48C127.936 176.113 128.625 176.334 129.004 176.428L129.365 176.517C129.693 176.602 130.084 176.692 130.084 176.977C130.084 177.245 129.718 177.385 129.344 177.385C128.957 177.385 128.57 177.245 128.413 176.777L127.796 176.977C127.996 177.61 128.621 177.959 129.353 177.959ZM131.845 177.887H132.509V174.57H131.845V177.887ZM133.407 177.887H134.092C134.236 177.598 134.377 177.308 134.517 177.019H136.116C136.261 177.308 136.401 177.598 136.541 177.887H137.243L135.708 174.57H134.942L133.407 177.887ZM134.806 176.407C134.989 176.033 135.172 175.641 135.312 175.331H135.325C135.482 175.688 135.657 176.054 135.827 176.407H134.806ZM138.141 177.887H138.804V175.726H138.817C139.455 176.479 140.093 177.168 140.726 177.887H141.415V174.57H140.76V176.777H140.748C140.114 176.016 139.438 175.263 138.834 174.57H138.141V177.887Z" fill="#194049"/>
<path d="M105.197 71.5878C105.197 71.5878 115.472 60.0529 116.011 67.3815C116.936 79.9858 110.072 86.4629 110.072 86.4629C110.072 86.4629 93.3328 79.9032 94.2424 74.5956C94.3961 73.7012 94.3481 73.2554 95.3121 71.912C96.3666 70.4418 94.5146 68.0759 105.197 71.5878Z" fill="#194049"/>
</g>
<defs>
<clipPath id="clip0_488_12899">
<rect width="205" height="205" fill="white" transform="translate(0 0.0117188)"/>
</clipPath>
</defs>
</svg>
