<svg width="120" height="31" viewBox="0 0 120 31" fill="none" xmlns="http://www.w3.org/2000/svg">
<path d="M11.3827 0.512961C11.3997 0.359965 11.5529 0.240967 11.689 0.240967H11.9613C12.0463 0.240967 12.1995 0.308965 12.2505 0.410963L16.1984 7.75478H16.2324L20.1803 0.410963C20.2313 0.308965 20.3845 0.240967 20.4696 0.240967H20.7418C20.8779 0.240967 21.0311 0.359965 21.0481 0.512961L22.971 11.9367C23.005 12.1577 22.8519 12.3107 22.6477 12.3107H20.6397C20.4866 12.3107 20.3334 12.1747 20.3164 12.0387L19.5507 6.7858H19.5166L16.6578 12.2937C16.6068 12.3957 16.4536 12.4807 16.3686 12.4807H16.0623C15.9602 12.4807 15.824 12.3957 15.773 12.2937L12.8972 6.7858H12.8631L12.1144 12.0387C12.0974 12.1747 11.9613 12.3107 11.7911 12.3107H9.78314C9.57894 12.3107 9.42579 12.1577 9.45983 11.9367L11.3827 0.512961Z" fill="#F2EC2C"/>
<path d="M46.139 2.90995H43.7056C43.5185 2.90995 43.3823 2.75695 43.3823 2.58696V0.734003C43.3823 0.564007 43.5185 0.411011 43.7056 0.411011H51.261C51.4482 0.411011 51.5843 0.564007 51.5843 0.734003V2.58696C51.5843 2.75695 51.4482 2.90995 51.261 2.90995H48.8276V11.9877C48.8276 12.1577 48.6745 12.3107 48.5043 12.3107H46.4623C46.2922 12.3107 46.139 12.1577 46.139 11.9877V2.90995Z" fill="#F2EC2C"/>
<path d="M56.6895 0.734003C56.6895 0.564007 56.8426 0.411011 57.0128 0.411011H59.0377C59.2249 0.411011 59.3611 0.564007 59.3611 0.734003V5.0179H64.2278V0.734003C64.2278 0.564007 64.3639 0.411011 64.5511 0.411011H66.5761C66.7463 0.411011 66.8994 0.564007 66.8994 0.734003V11.9877C66.8994 12.1577 66.7463 12.3107 66.5761 12.3107H64.5511C64.3639 12.3107 64.2278 12.1577 64.2278 11.9877V7.51683H59.3611V11.9877C59.3611 12.1577 59.2249 12.3107 59.0377 12.3107H57.0128C56.8426 12.3107 56.6895 12.1577 56.6895 11.9877V0.734003Z" fill="#F2EC2C"/>
<path d="M73.2295 0.734003C73.2295 0.564007 73.3656 0.411011 73.5528 0.411011H80.5977C80.7848 0.411011 80.921 0.564007 80.921 0.734003V2.58696C80.921 2.75695 80.7848 2.90995 80.5977 2.90995H75.8841V5.0179H79.7639C79.934 5.0179 80.0872 5.17089 80.0872 5.34089V7.19384C80.0872 7.38084 79.934 7.51683 79.7639 7.51683H75.8841V9.81178H80.5977C80.7848 9.81178 80.921 9.96477 80.921 10.1348V11.9877C80.921 12.1577 80.7848 12.3107 80.5977 12.3107H73.5528C73.3656 12.3107 73.2295 12.1577 73.2295 11.9877V0.734003Z" fill="#F2EC2C"/>
<path d="M86.6045 0.734003C86.6045 0.564007 86.7406 0.411011 86.9278 0.411011H92.0158C94.0578 0.411011 95.7254 2.05997 95.7254 4.08292C95.7254 5.64688 94.6874 6.90485 93.2069 7.49983L95.5382 11.8177C95.6573 12.0387 95.5382 12.3107 95.2489 12.3107H92.9857C92.8496 12.3107 92.7475 12.2257 92.7134 12.1577L90.4502 7.65283H89.2761V11.9877C89.2761 12.1577 89.123 12.3107 88.9528 12.3107H86.9278C86.7406 12.3107 86.6045 12.1577 86.6045 11.9877V0.734003ZM91.7945 5.49389C92.4922 5.49389 93.0878 4.8479 93.0878 4.13392C93.0878 3.41994 92.4922 2.84195 91.7945 2.84195H89.2761V5.49389H91.7945Z" fill="#F2EC2C"/>
<path d="M11.2212 19.2125C11.2212 19.0425 11.3743 18.8895 11.5445 18.8895H13.5695C13.7567 18.8895 13.8928 19.0425 13.8928 19.2125V23.4964H18.7595V19.2125C18.7595 19.0425 18.8957 18.8895 19.0828 18.8895H21.1078C21.278 18.8895 21.4311 19.0425 21.4311 19.2125V30.4662C21.4311 30.6362 21.278 30.7892 21.1078 30.7892H19.0828C18.8957 30.7892 18.7595 30.6362 18.7595 30.4662V25.9954H13.8928V30.4662C13.8928 30.6362 13.7567 30.7892 13.5695 30.7892H11.5445C11.3743 30.7892 11.2212 30.6362 11.2212 30.4662V19.2125Z" fill="#525252"/>
<path d="M33.0025 18.7195C36.4058 18.7195 39.1285 21.4564 39.1285 24.8563C39.1285 28.2562 36.4058 30.9592 33.0025 30.9592C29.5992 30.9592 26.8936 28.2562 26.8936 24.8563C26.8936 21.4564 29.5992 18.7195 33.0025 18.7195ZM33.0025 28.2392C34.8743 28.2392 36.4058 26.7093 36.4058 24.8563C36.4058 22.9864 34.8743 21.4394 33.0025 21.4394C31.1477 21.4394 29.6162 22.9864 29.6162 24.8563C29.6162 26.7093 31.1477 28.2392 33.0025 28.2392Z" fill="#525252"/>
<path d="M44.5737 19.0255C44.5737 18.8555 44.7269 18.7195 44.897 18.7195H45.3225L52.1121 25.2473H52.1291V19.2125C52.1291 19.0425 52.2652 18.8895 52.4524 18.8895H54.4944C54.6646 18.8895 54.8177 19.0425 54.8177 19.2125V30.6532C54.8177 30.8232 54.6646 30.9592 54.4944 30.9592H54.2221C54.1711 30.9592 54.0349 30.9082 54.0009 30.8742L47.2794 24.1253H47.2623V30.4662C47.2623 30.6362 47.1262 30.7892 46.939 30.7892H44.9141C44.7439 30.7892 44.5907 30.6362 44.5907 30.4662L44.5737 19.0255Z" fill="#525252"/>
<path d="M61.1479 19.2125C61.1479 19.0425 61.2841 18.8895 61.4713 18.8895H68.5161C68.7033 18.8895 68.8394 19.0425 68.8394 19.2125V21.0655C68.8394 21.2355 68.7033 21.3885 68.5161 21.3885H63.8025V23.4964H67.6823C67.8525 23.4964 68.0056 23.6494 68.0056 23.8194V25.6724C68.0056 25.8594 67.8525 25.9954 67.6823 25.9954H63.8025V28.2903H68.5161C68.7033 28.2903 68.8394 28.4433 68.8394 28.6133V30.4662C68.8394 30.6362 68.7033 30.7892 68.5161 30.7892H61.4713C61.2841 30.7892 61.1479 30.6362 61.1479 30.4662V19.2125Z" fill="#525252"/>
<path d="M73.8419 29.1742L74.6417 27.7633C74.7778 27.5423 75.1012 27.5763 75.2203 27.6613C75.2883 27.6953 76.5135 28.5962 77.6366 28.5962C78.3173 28.5962 78.8108 28.1712 78.8108 27.5763C78.8108 26.8623 78.2152 26.3183 77.0581 25.8593C75.5946 25.2813 73.7568 24.1423 73.7568 22.1024C73.7568 20.4194 75.0671 18.7195 77.6877 18.7195C79.4574 18.7195 80.8187 19.6205 81.3292 19.9945C81.5334 20.1134 81.4994 20.4194 81.4313 20.5384L80.5635 21.8474C80.4443 22.0344 80.1381 22.1874 79.9849 22.0684C79.8318 21.9834 78.5896 21.0484 77.5515 21.0484C76.9389 21.0484 76.4795 21.4564 76.4795 21.9154C76.4795 22.5444 76.99 23.0204 78.3343 23.5644C79.6616 24.0913 81.7716 25.1283 81.7716 27.4403C81.7716 29.1912 80.2572 30.9592 77.7557 30.9592C75.5436 30.9592 74.3184 30.0412 73.927 29.6502C73.7568 29.4802 73.7058 29.4122 73.8419 29.1742Z" fill="#525252"/>
<path d="M88.7826 21.3885H86.3492C86.162 21.3885 86.0259 21.2355 86.0259 21.0655V19.2125C86.0259 19.0425 86.162 18.8895 86.3492 18.8895H93.9046C94.0917 18.8895 94.2279 19.0425 94.2279 19.2125V21.0655C94.2279 21.2355 94.0917 21.3885 93.9046 21.3885H91.4712V30.4662C91.4712 30.6362 91.318 30.7892 91.1479 30.7892H89.1059C88.9357 30.7892 88.7826 30.6362 88.7826 30.4662V21.3885Z" fill="#525252"/>
<path d="M99.333 19.2125C99.333 19.0425 99.4691 18.8895 99.6563 18.8895H101.681C101.851 18.8895 102.005 19.0425 102.005 19.2125V28.2903H106.055C106.242 28.2903 106.378 28.4433 106.378 28.6133V30.4662C106.378 30.6362 106.242 30.7892 106.055 30.7892H99.6563C99.4691 30.7892 99.333 30.6362 99.333 30.4662V19.2125Z" fill="#525252"/>
<path d="M112.81 25.0604L109.049 19.3825C108.913 19.1615 109.049 18.8895 109.322 18.8895H111.534C111.67 18.8895 111.755 18.9745 111.806 19.0425L114.171 22.5274L116.537 19.0425C116.588 18.9745 116.656 18.8895 116.809 18.8895H119.021C119.293 18.8895 119.43 19.1615 119.293 19.3825L115.482 25.0434V30.4662C115.482 30.6362 115.329 30.7892 115.158 30.7892H113.133C112.946 30.7892 112.81 30.6362 112.81 30.4662V25.0604Z" fill="#525252"/>
<path d="M39.273 2.73144C39.0092 2.00896 38.5668 1.40547 37.9542 0.946482C37.5288 0.63199 37.0353 0.461993 36.4993 0.419494C35.4783 0.351496 34.653 0.725487 33.9723 1.48197C33.6831 1.80496 33.4618 2.16195 33.3087 2.56144C33.3087 2.56144 33.3087 2.56144 33.3087 2.55294C33.2832 2.60394 33.2661 2.65494 33.2406 2.70594V2.74844V2.70594C33.2236 2.65494 33.1981 2.60394 33.1726 2.55294C33.1726 2.55294 33.1726 2.55294 33.1726 2.56144C33.0194 2.16195 32.7982 1.80496 32.5089 1.48197C31.8283 0.733986 31.0029 0.351496 29.982 0.419494C29.4459 0.453493 28.9524 0.63199 28.527 0.946482C27.9144 1.40547 27.4805 2.00896 27.2082 2.73144C26.9955 3.30942 26.8679 3.89591 26.902 4.51639C26.9445 5.40037 27.2593 6.19935 27.7017 6.94733C28.1186 7.64431 28.7057 8.2053 29.2673 8.77479C29.7522 9.27627 30.2542 9.76076 30.7732 10.2282C31.0115 10.4407 31.2412 10.6447 31.4794 10.8572C31.4964 10.8742 31.5134 10.8912 31.5305 10.9082C31.6326 11.0017 31.7517 11.1037 31.8623 11.1972C32.2707 11.5542 32.6876 11.9027 33.096 12.2597C33.147 12.3022 33.1896 12.3192 33.2321 12.3277V12.1492V12.3107C33.2747 12.3107 33.3172 12.2852 33.3682 12.2427C33.7766 11.8857 34.1936 11.5372 34.602 11.1802C34.7211 11.0867 34.8317 10.9932 34.9338 10.8912C34.9508 10.8742 34.9678 10.8572 34.9848 10.8402C35.2231 10.6362 35.4613 10.4237 35.691 10.2113C36.21 9.74376 36.712 9.25927 37.197 8.75779C37.7585 8.1798 38.3371 7.61881 38.7625 6.93033C39.2134 6.18235 39.5197 5.38337 39.5623 4.49939C39.6048 3.89591 39.4857 3.30942 39.273 2.73144Z" fill="#F2EC2C"/>
<path d="M1.879 0.240967H0.653809V30.7807H1.879V0.240967Z" fill="#F2EC2C"/>
</svg>
