<svg width="21" height="21" viewBox="0 0 21 21" fill="none" xmlns="http://www.w3.org/2000/svg">
<path d="M20.9836 9.92869C20.9836 12.6514 20.9836 15.3687 20.9836 18.0859C20.9672 18.1078 20.9508 18.1242 20.9398 18.1515C20.7594 18.6491 20.3986 18.9006 19.8682 18.906C19.5566 18.906 19.2395 18.906 18.9278 18.906C18.4959 18.906 18.1624 18.7147 17.9601 18.332C17.9055 18.2281 17.8453 18.2007 17.7414 18.2062C17.2712 18.2117 16.7956 18.1843 16.3309 18.2171C16.0794 18.2335 15.8388 18.3429 15.5982 18.4249C15.4834 18.4632 15.3905 18.5561 15.2866 18.6163C14.7836 18.917 14.2369 19.0974 13.6519 19.2013C13.6519 19.4637 13.6574 19.7152 13.6519 19.9667C13.641 20.3385 13.4769 20.6337 13.1598 20.836C13.0614 20.9016 12.9466 20.9453 12.8373 21C8.83518 21 4.82764 21 0.820097 21C0.410049 20.8633 0.136683 20.59 0 20.1799C0 14.7017 0 9.21794 0 3.73422C0.0710751 3.65221 0.136683 3.5702 0.213225 3.49366C1.30669 2.39473 2.40562 1.30127 3.49908 0.202335C3.64123 0.0601845 3.78885 0.00551137 3.98567 0.00551137C6.81227 0.0109787 9.64434 0.0219134 12.4709 4.41415e-05C13.1653 -0.00542317 13.6574 0.49757 13.6519 1.18645C13.6355 3.5374 13.6464 5.88834 13.6464 8.23929C13.6464 8.3213 13.6464 8.40331 13.6464 8.48532C13.712 8.51265 13.7667 8.53452 13.8268 8.55639C14.6251 8.86803 15.4233 9.18513 16.2215 9.49677C16.7081 9.68813 17.2166 9.78654 17.736 9.80841C17.8398 9.81388 17.9 9.79201 17.9601 9.68266C18.157 9.31088 18.4686 9.10859 18.9005 9.10312C19.2395 9.10312 19.5839 9.09766 19.9229 9.10312C20.0213 9.10312 20.1252 9.11953 20.2236 9.14139C20.6336 9.25074 20.8414 9.55144 20.9836 9.92869ZM11.9625 11.465C11.9297 11.547 11.9023 11.6126 11.875 11.6728C11.6563 12.2468 11.4486 12.8209 11.2135 13.3895C10.8854 14.1768 9.99972 14.554 9.20696 14.2533C8.4142 13.9581 7.98228 13.0833 8.27205 12.2851C8.72037 11.0495 9.19056 9.81934 9.67168 8.59466C9.8685 8.09167 10.2621 7.79097 10.7925 7.66522C11.1861 7.57228 11.547 7.67069 11.9078 7.81284C12.2413 7.94405 12.5748 8.0698 12.9247 8.20102C12.9302 8.13541 12.9357 8.10261 12.9357 8.0698C12.9357 5.76259 12.9357 3.44992 12.9357 1.14271C12.9357 0.814674 12.8099 0.69986 12.4655 0.69986C9.78103 0.69986 7.09657 0.69986 4.41212 0.69986C4.34652 0.69986 4.28091 0.69986 4.20436 0.69986C4.20436 0.803739 4.20436 0.880282 4.20436 0.956824C4.20436 1.64571 4.20436 2.33459 4.20436 3.02894C4.20436 3.78343 3.77791 4.20988 3.02343 4.20988C2.32908 4.20988 1.62926 4.20988 0.934911 4.20988C0.863836 4.20988 0.79276 4.21534 0.705283 4.22081C0.705283 4.31922 0.705283 4.40123 0.705283 4.48324C0.705283 9.57331 0.705283 14.6634 0.705283 19.7535C0.705283 20.2018 0.803695 20.2947 1.24655 20.2947C4.96979 20.2947 8.69303 20.2947 12.4163 20.2947C12.8591 20.2947 12.9521 20.1963 12.9521 19.748C12.9521 18.3538 12.9521 16.9597 12.9521 15.5655C12.9521 15.4835 12.9466 15.4015 12.963 15.3195C12.9958 15.1554 13.1052 15.057 13.2746 15.0461C13.5043 15.0297 13.6519 15.1882 13.6574 15.4507C13.6574 16.1669 13.6574 16.8831 13.6574 17.6048C13.6574 17.8836 13.6574 18.1625 13.6574 18.4413C13.6956 18.4468 13.712 18.4522 13.7339 18.4522C13.7831 18.4468 13.8268 18.4358 13.876 18.4249C14.3244 18.321 14.7453 18.1406 15.1281 17.8836C15.5381 17.6048 15.9864 17.4791 16.4785 17.49C16.8612 17.4955 17.2439 17.49 17.6266 17.49C17.6977 17.49 17.7688 17.4845 17.8398 17.479C17.8398 15.139 17.8398 12.8264 17.8398 10.5028C17.7906 10.5028 17.7524 10.4973 17.7086 10.4973C17.058 10.4918 16.4457 10.3333 15.8388 10.0927C14.379 9.51864 12.9193 8.95551 11.454 8.39237C10.9838 8.21195 10.5136 8.42518 10.3278 8.89537C9.8685 10.0818 9.42018 11.2736 8.9664 12.4655C8.87345 12.7006 8.88985 12.9357 9.00467 13.1599C9.16869 13.4824 9.44752 13.6465 9.80289 13.641C10.1747 13.6301 10.4535 13.4387 10.5902 13.0888C10.8745 12.3671 11.1424 11.64 11.4267 10.9128C11.536 10.6285 11.7383 10.5465 12.0117 10.6832C12.46 10.9019 12.9029 11.126 13.3457 11.3502C13.5863 11.4705 13.641 11.6017 13.6136 11.8641C13.5917 12.0555 13.5699 12.2468 13.5863 12.4327C13.6519 13.2583 13.9963 13.898 14.8164 14.1987C15.0132 14.2697 15.2265 14.3025 15.4342 14.3408C15.6475 14.3846 15.7732 14.5212 15.7568 14.7181C15.7404 14.9149 15.5818 15.0625 15.3577 15.0406C14.4556 14.9532 13.723 14.5759 13.2528 13.7722C12.9521 13.2583 12.8427 12.6951 12.8755 12.0992C12.881 12.0227 12.8482 11.8969 12.7935 11.8641C12.5202 11.7274 12.2523 11.6072 11.9625 11.465ZM20.2837 13.9854C20.2837 12.7444 20.2837 11.4978 20.2837 10.2567C20.2837 9.93416 20.158 9.80841 19.8409 9.80294C19.5566 9.80294 19.2668 9.80294 18.9825 9.80294C18.6654 9.80294 18.5397 9.92322 18.5397 10.2294C18.5397 12.7444 18.5397 15.2593 18.5397 17.7743C18.5397 18.0695 18.6654 18.1898 18.9716 18.1953C19.2449 18.2007 19.5183 18.1953 19.7917 18.1953C20.1799 18.1953 20.2892 18.0859 20.2892 17.6923C20.2837 16.4621 20.2837 15.221 20.2837 13.9854ZM1.25748 3.48819C1.29029 3.48819 1.32309 3.49366 1.36136 3.49366C1.93543 3.49366 2.5095 3.49366 3.08357 3.49366C3.3624 3.49366 3.47721 3.37338 3.47721 3.09454C3.47721 2.53688 3.47721 1.97374 3.47721 1.41608C3.47721 1.36687 3.47174 1.31767 3.46628 1.28486C2.73366 2.01748 1.99557 2.7501 1.25748 3.48819Z" fill="black"/>
<path d="M8.73232 5.59316C9.63443 5.59316 10.5365 5.59316 11.4386 5.59316C11.712 5.59316 11.8651 5.70798 11.8815 5.91573C11.8979 6.10709 11.7831 6.26018 11.5863 6.29845C11.5152 6.31485 11.4386 6.30938 11.3621 6.30938C9.61256 6.30938 7.86302 6.30938 6.11348 6.30938C6.05881 6.30938 6.00413 6.31485 5.94946 6.30938C5.73077 6.29298 5.57768 6.13989 5.58315 5.94307C5.58862 5.75718 5.73077 5.6041 5.94399 5.59863C6.27203 5.5877 6.60007 5.59316 6.92811 5.59316C7.52951 5.59316 8.13092 5.59316 8.73232 5.59316Z" fill="#194049"/>
<path d="M8.72054 16.8065C7.8403 16.8065 6.96007 16.8065 6.07436 16.8065C5.98142 16.8065 5.86113 16.8119 5.80099 16.7627C5.70805 16.6807 5.61511 16.5604 5.59324 16.4456C5.5659 16.298 5.66978 16.1722 5.82286 16.123C5.89941 16.1012 5.98141 16.0957 6.06342 16.0957C7.84577 16.0957 9.62812 16.0957 11.4105 16.0957C11.4378 16.0957 11.4651 16.0957 11.4925 16.0957C11.7385 16.1121 11.8806 16.2433 11.8806 16.4565C11.8806 16.6643 11.733 16.8065 11.487 16.8119C10.9457 16.8174 10.4099 16.8119 9.86868 16.8119C9.48596 16.8065 9.10325 16.8065 8.72054 16.8065Z" fill="#194049"/>
<path d="M5.26005 7.34814C6.14576 7.34814 7.03693 7.34814 7.92263 7.34814C8.00464 7.34814 8.08665 7.35361 8.1632 7.38095C8.32175 7.44109 8.40376 7.56684 8.38736 7.73086C8.37095 7.90581 8.26708 8.02062 8.08665 8.04249C8.01011 8.05343 7.93904 8.05343 7.86249 8.05343C6.11295 8.05343 4.36341 8.05343 2.61387 8.05343C2.5756 8.05343 2.53186 8.05343 2.49359 8.05343C2.23663 8.04249 2.08354 7.90581 2.08901 7.69258C2.09448 7.49029 2.2585 7.35361 2.49359 7.34814C2.62481 7.34814 2.75055 7.34814 2.88177 7.34814C3.67453 7.34814 4.46729 7.34814 5.26005 7.34814Z" fill="#194049"/>
<path d="M5.23273 18.5504C4.35796 18.5504 3.48319 18.5504 2.60842 18.5504C2.54281 18.5504 2.47174 18.5504 2.40613 18.5449C2.22024 18.5231 2.08356 18.3864 2.08903 18.206C2.09449 18.0201 2.19837 17.9053 2.37879 17.8561C2.428 17.8396 2.48814 17.8451 2.54281 17.8451C4.34156 17.8451 6.13484 17.8451 7.93359 17.8451C7.98279 17.8451 8.032 17.8396 8.07574 17.8506C8.26163 17.8779 8.40378 18.0365 8.39284 18.2169C8.38191 18.3918 8.25616 18.534 8.0648 18.5449C7.86798 18.5559 7.67115 18.5504 7.46886 18.5504C6.71984 18.5504 5.97629 18.5504 5.23273 18.5504Z" fill="#194049"/>
<path d="M5.21047 14.352C6.07977 14.352 6.94361 14.352 7.81291 14.352C7.87852 14.352 7.94959 14.352 8.0152 14.3574C8.19562 14.3738 8.33231 14.5214 8.33231 14.7019C8.33231 14.8713 8.21203 15.019 8.04254 15.0518C7.98787 15.0627 7.93319 15.0572 7.87852 15.0572C6.09618 15.0572 4.31383 15.0572 2.53149 15.0572C2.48228 15.0572 2.43307 15.0627 2.38934 15.0518C2.21438 15.0244 2.0777 14.8713 2.08317 14.6964C2.08863 14.5214 2.21985 14.3738 2.40574 14.3574C2.52055 14.3465 2.63536 14.352 2.75565 14.352C3.57028 14.352 4.39037 14.352 5.21047 14.352Z" fill="#194049"/>
<path d="M5.00825 10.8418C5.80648 10.8418 6.60471 10.8418 7.4084 10.8418C7.49041 10.8418 7.57242 10.8473 7.64896 10.8637C7.80751 10.9019 7.88952 11.0113 7.90046 11.1753C7.91139 11.3448 7.83485 11.4705 7.67083 11.5252C7.58882 11.5525 7.49588 11.558 7.4084 11.558C5.79554 11.558 4.18268 11.558 2.56983 11.558C2.49328 11.558 2.41674 11.558 2.34567 11.5361C2.17071 11.4924 2.07777 11.3667 2.08324 11.1917C2.0887 11.0168 2.18711 10.8965 2.36207 10.8582C2.43861 10.8418 2.52609 10.8418 2.6081 10.8418C3.40633 10.8418 4.21002 10.8418 5.00825 10.8418Z" fill="#194049"/>
<path d="M7.07416 9.80284C6.71332 9.80284 6.35248 9.80284 5.99163 9.80284C5.74014 9.80284 5.58158 9.65523 5.58705 9.442C5.59252 9.23971 5.7456 9.10303 5.99163 9.10303C6.72425 9.10303 7.45141 9.10303 8.18403 9.10303C8.43006 9.10303 8.57767 9.23971 8.57767 9.44747C8.57767 9.66069 8.43005 9.79738 8.18949 9.79738C7.81225 9.80284 7.44047 9.80284 7.07416 9.80284Z" fill="#194049"/>
<path d="M3.48824 6.30919C3.16567 6.30919 2.84856 6.30919 2.52599 6.30919C2.25263 6.30919 2.08861 6.1725 2.08314 5.95928C2.07767 5.74605 2.24169 5.59843 2.50959 5.59297C3.1602 5.5875 3.80534 5.5875 4.45595 5.59297C4.72385 5.59297 4.89334 5.74059 4.88787 5.95381C4.88241 6.16704 4.71839 6.30372 4.45049 6.30919C4.12792 6.31465 3.81081 6.30919 3.48824 6.30919Z" fill="#194049"/>
<path d="M3.49371 16.8067C3.16567 16.8067 2.83763 16.8067 2.50959 16.8067C2.25263 16.8067 2.09407 16.6701 2.08314 16.4568C2.07767 16.2436 2.24169 16.0905 2.50959 16.0905C3.16567 16.0851 3.82175 16.0851 4.47782 16.0905C4.72932 16.0905 4.89334 16.2381 4.89334 16.4459C4.89334 16.6537 4.72932 16.8013 4.47782 16.8013C4.14432 16.8122 3.82175 16.8067 3.49371 16.8067Z" fill="#194049"/>
<path d="M3.48824 13.302C3.1602 13.302 2.83216 13.302 2.50412 13.302C2.24169 13.2965 2.0886 13.1707 2.08314 12.9575C2.07767 12.7443 2.24716 12.5967 2.50959 12.5967C3.1602 12.5967 3.80534 12.5967 4.45595 12.5967C4.72385 12.5967 4.88787 12.7334 4.88787 12.9521C4.88787 13.1653 4.72385 13.2965 4.45048 13.302C4.12791 13.302 3.81081 13.302 3.48824 13.302Z" fill="#194049"/>
<path d="M3.48785 9.10342C3.82135 9.10342 4.15486 9.10342 4.48837 9.10342C4.72893 9.10342 4.88748 9.24557 4.88748 9.44786C4.88748 9.65015 4.72893 9.79777 4.49383 9.80323C3.81589 9.80323 3.14341 9.80323 2.46546 9.80323C2.23583 9.80323 2.07181 9.65015 2.07728 9.44786C2.08275 9.25104 2.23037 9.10889 2.45999 9.10889C2.80443 9.09795 3.14888 9.10342 3.48785 9.10342Z" fill="#194049"/>
<path d="M10.5092 17.8452C10.8372 17.8452 11.1653 17.8452 11.4933 17.8452C11.7339 17.8452 11.8815 17.9819 11.887 18.1951C11.887 18.4083 11.7503 18.545 11.5043 18.5505C10.8318 18.556 10.1538 18.556 9.48134 18.5505C9.23532 18.5505 9.09863 18.4138 9.09863 18.1951C9.1041 17.9874 9.25172 17.8507 9.49228 17.8452C9.82579 17.8397 10.1648 17.8452 10.5092 17.8452Z" fill="#194049"/>
<path d="M6.55111 12.5967C6.74247 12.5967 6.93383 12.5912 7.12518 12.5967C7.34934 12.6021 7.49696 12.7443 7.49696 12.9466C7.49696 13.1543 7.36574 13.2965 7.13065 13.2965C6.74247 13.302 6.35429 13.302 5.96611 13.2965C5.73649 13.291 5.58887 13.1489 5.58887 12.952C5.58887 12.7498 5.74742 12.6021 5.98251 12.5967C6.1684 12.5912 6.35976 12.5967 6.55111 12.5967Z" fill="#194049"/>
</svg>
