<svg width="920" height="288" viewBox="0 0 920 288" fill="none" xmlns="http://www.w3.org/2000/svg">
<path d="M681.144 95.5628C649.484 25.3738 680.297 -30.1542 747.726 -60.2632C785.018 -76.9028 830.247 -65.5979 859.309 -45.7101C885.072 -28.0712 859.409 68.4128 873.483 99.6829C904.989 170.018 952.162 225.727 887.121 260.012C868.782 269.707 712.766 165.788 681.144 95.5628Z" fill="white"/>
<path d="M0.0770923 254.567L44.6299 24.6017L59.0299 0.828892L116.143 11.8937L219.04 31.8286L207.031 93.8116L191.281 175.108C180.436 207.492 158.26 274.775 156.311 284.836C154.362 294.897 51.3428 268.849 0.0770923 254.567Z" fill="white"/>
</svg>
