<svg width="922" height="169" viewBox="0 0 922 169" fill="none" xmlns="http://www.w3.org/2000/svg">
<path d="M537.713 33.532C537.713 33.532 562.028 233.267 730.557 266.372C899.086 299.477 889.034 246.173 917.311 215.114C961.304 166.848 977.639 129.687 984.66 110.956C985.169 109.609 985.373 108.166 985.258 106.731C985.143 105.296 984.711 103.903 983.994 102.653C983.276 101.402 982.29 100.325 981.107 99.4964C979.924 98.6683 978.571 98.1102 977.147 97.8619C936.315 90.8436 797.205 66.7489 763.351 60.1844C723.532 52.4569 591.799 34.4632 537.713 33.532Z" fill="white"/>
<path d="M273.579 90.0347C270.629 80.9974 265.688 72.7296 259.117 65.8345C252.546 58.9395 244.511 53.5913 235.597 50.1803C232.583 49.1412 229.458 48.4489 226.285 48.1168C221.927 47.5411 217.754 45.9991 214.074 43.6048C210.394 41.2104 207.302 38.0247 205.025 34.2826C204.956 34.156 204.877 34.0345 204.79 33.9193C183.452 2.14995 141.923 -10.0231 107.698 9.19684C97.5185 14.8104 88.8938 22.8443 82.5942 32.5817C76.2945 42.319 72.5158 53.4567 71.5952 65.0008C71.2016 69.2271 69.7394 73.2856 67.3448 76.7983C64.9502 80.3109 61.7011 83.1635 57.9001 85.0902L57.6524 85.22C52.2395 88.114 46.6181 90.5797 41.2313 93.4997C27.3797 101.027 14.9757 112.123 8.18032 126.502C-6.46693 157.467 -0.754091 195.634 25.4884 218.903C37.9183 229.908 53.1133 238.019 69.6518 240.653C78.2816 241.953 87.0207 242.388 95.7378 241.951H95.8422C109.381 241.419 117.637 248.051 126.728 256.759C141.923 271.307 163.248 278.341 183.934 273.461C202.638 269.062 217.351 256.058 225.959 239.213C230.747 229.602 233.748 219.208 234.815 208.534C236.119 197.36 234.815 186.472 235.232 175.285C235.235 173.638 235.49 172.002 235.989 170.431C237.293 166.629 240.841 164.033 244.297 161.931C253.69 156.222 261.752 148.586 267.944 139.531C277.452 125.438 279.031 105.906 273.579 90.0347Z" fill="white"/>
</svg>
