<svg width="27" height="27" viewBox="0 0 27 27" fill="none" xmlns="http://www.w3.org/2000/svg">
<path d="M26.6307 8.86236C26.344 7.97952 25.8637 7.17183 25.225 6.49826C24.5863 5.82468 23.8053 5.30222 22.9389 4.969C22.6459 4.86749 22.3422 4.79986 22.0337 4.76742C21.6101 4.71117 21.2045 4.56054 20.8468 4.32664C20.4892 4.09273 20.1886 3.78152 19.9672 3.41596C19.9605 3.40358 19.9529 3.39172 19.9444 3.38046C17.8703 0.276923 13.8337 -0.912258 10.507 0.965332C9.51755 1.51372 8.67923 2.29855 8.0669 3.24979C7.45457 4.20103 7.08727 5.28907 6.99779 6.41681C6.95953 6.82968 6.8174 7.22615 6.58465 7.5693C6.35189 7.91245 6.03608 8.19112 5.66662 8.37934L5.64254 8.39202C5.11641 8.67473 4.56999 8.91561 4.0464 9.20086C2.70001 9.93618 1.49434 11.0201 0.833821 12.4248C-0.589902 15.4498 -0.0346093 19.1783 2.51617 21.4515C3.72437 22.5266 5.20134 23.3189 6.80889 23.5763C7.64772 23.7032 8.49716 23.7457 9.34446 23.7031H9.35462C10.6706 23.6511 11.4731 24.2989 12.3567 25.1496C13.8337 26.5708 15.9065 27.2579 17.9172 26.7812C19.7352 26.3515 21.1653 25.0811 22.002 23.4356C22.4675 22.4967 22.7591 21.4813 22.8629 20.4385C22.9896 19.3469 22.8629 18.2833 22.9034 17.1904C22.9037 17.0296 22.9285 16.8697 22.977 16.7163C23.1037 16.3448 23.4486 16.0913 23.7845 15.8859C24.6975 15.3282 25.4811 14.5822 26.083 13.6977C27.0072 12.3209 27.1606 10.4129 26.6307 8.86236Z" fill="#194049"/>
</svg>
