<svg width="22" height="26" viewBox="0 0 22 26" fill="none" xmlns="http://www.w3.org/2000/svg">
<path d="M3.38877 25.0058C3.31399 24.8936 3.20181 24.7627 3.18311 24.6319C3.14572 24.4262 3.35138 24.2953 3.61313 24.2953C5.7819 24.2953 7.93197 24.2953 10.1007 24.2953C10.1942 24.2953 10.2877 24.2953 10.3999 24.2953C10.3999 20.6869 10.3999 17.0973 10.3999 13.4889C10.3251 13.4702 10.2503 13.4515 10.1755 13.4328C9.80159 13.3206 9.57724 13.0776 9.48376 12.7036C9.46506 12.5915 9.44636 12.4793 9.42767 12.3858C9.33419 11.7127 9.31549 11.6753 8.66112 11.4884C8.58634 11.4697 8.45546 11.5071 8.38068 11.5445C8.17502 11.6753 8.00675 11.8249 7.81979 11.9558C7.40847 12.2549 6.94106 12.2175 6.56714 11.881C6.39887 11.7127 6.23061 11.5445 6.06234 11.3762C5.70711 11.0023 5.68841 10.5162 5.98755 10.1049C6.11843 9.91789 6.268 9.74963 6.39887 9.56267C6.45496 9.46918 6.47366 9.31961 6.43626 9.22613C6.39887 9.07656 6.34278 8.92699 6.268 8.79612C6.21191 8.70264 6.09973 8.60916 5.98755 8.59046C5.7632 8.53437 5.53884 8.51567 5.31449 8.49698C4.84708 8.44089 4.51055 8.06696 4.47316 7.59956C4.45446 7.33781 4.45446 7.05737 4.47316 6.79562C4.49185 6.32821 4.80969 5.99168 5.2771 5.91689C5.50145 5.8795 5.72581 5.84211 5.95016 5.82341C6.11843 5.80472 6.19321 5.71123 6.28669 5.58036C6.52975 5.16904 6.51105 4.81381 6.13713 4.47728C6.06234 4.40249 5.98756 4.32771 5.95016 4.23423C5.87538 4.02857 5.7819 3.82291 5.80059 3.61725C5.80059 3.14985 6.60453 2.32721 7.07194 2.27112C7.33369 2.23373 7.59543 2.27112 7.80109 2.43939C7.87588 2.49548 7.96936 2.55156 8.02545 2.60765C8.34328 2.94419 8.67982 3.00028 9.09113 2.75722C9.2781 2.64505 9.37158 2.55156 9.39028 2.34591C9.40897 2.12155 9.44636 1.91589 9.48376 1.69154C9.57724 1.22413 9.93247 0.943686 10.4186 0.906293C10.7738 0.887597 11.0355 0.999775 11.2786 1.26152C12.0638 2.08416 12.8865 2.8694 13.653 3.71073C14.4944 4.64555 14.9992 5.74863 15.0365 7.01997C15.0739 8.53437 14.5504 9.84311 13.4661 10.9088C12.7369 11.638 12.0078 12.3671 11.2786 13.115C11.2038 13.1897 11.1477 13.3206 11.1477 13.4141C11.1477 15.4146 11.1477 17.3964 11.1477 19.3969C11.1477 19.4343 11.1477 19.4904 11.1664 19.5652C11.2412 19.4904 11.2973 19.453 11.3347 19.3969C12.363 18.3686 13.41 17.3216 14.4383 16.2746C14.5131 16.1998 14.5878 16.0503 14.5878 15.9381C14.6065 15.0968 14.5878 14.2367 14.6065 13.3954C14.6252 12.2362 15.0739 11.2453 15.8966 10.4414C16.1022 10.2357 16.3079 10.217 16.4762 10.3853C16.6257 10.5536 16.607 10.7405 16.4014 10.9462C15.6535 11.6753 15.317 12.5728 15.317 13.6011C15.317 14.1806 15.317 14.7789 15.317 15.3772C15.3544 15.3585 15.3731 15.3585 15.3918 15.3398C16.0274 14.7228 16.6444 14.0872 17.2614 13.4515C17.3175 13.3767 17.3549 13.2645 17.3549 13.1523C17.3549 12.0867 17.3549 11.0023 17.3549 9.93659C17.3549 9.54397 17.411 9.45049 17.8036 9.3757C18.1775 9.30092 18.5514 9.24483 18.9254 9.24483C19.7854 9.22613 20.6267 9.24483 21.4868 9.24483C21.8794 9.24483 21.9916 9.35701 21.9916 9.74963C21.9916 10.5349 22.0103 11.3388 21.9916 12.1241C21.9729 12.5541 21.9542 12.9841 21.8794 13.4141C21.5615 14.9846 20.1032 16.3681 18.5141 16.5551C17.7475 16.6486 16.9436 16.6112 16.177 16.6486C15.8218 16.6672 15.4292 16.5738 15.13 16.6859C14.8309 16.8168 14.6065 17.1534 14.3635 17.3964C13.3539 18.406 12.3256 19.4156 11.316 20.4439C11.2412 20.5187 11.1664 20.6309 11.1664 20.7243C11.1664 21.8835 11.1664 23.024 11.1664 24.1831C11.1664 24.2205 11.1664 24.2392 11.1851 24.2953C11.2786 24.2953 11.3721 24.2953 11.4656 24.2953C13.6156 24.2953 15.7844 24.2953 17.9345 24.2953C18.1401 24.2953 18.3084 24.314 18.4019 24.5384C18.4767 24.7627 18.3458 24.8936 18.1962 25.0058C13.2417 25.0058 8.30589 25.0058 3.38877 25.0058ZM10.3999 1.63545C10.1381 1.71023 10.1568 1.93459 10.1568 2.10285C10.1381 2.79462 9.87638 3.31811 9.14722 3.50507C9.10983 3.52377 9.05374 3.54247 9.01635 3.56116C8.64243 3.72943 8.30589 3.69204 7.98806 3.44899C7.80109 3.31811 7.63283 3.16854 7.44586 3.03767C7.31499 2.92549 7.18412 2.94419 7.07194 3.05636C6.92237 3.20593 6.79149 3.3555 6.64192 3.48638C6.51105 3.61725 6.51105 3.74813 6.62323 3.879C6.7728 4.06596 6.92237 4.27162 7.05324 4.45858C7.2589 4.73903 7.29629 5.05686 7.16542 5.3934C7.09063 5.56166 7.03455 5.72993 6.95976 5.8982C6.81019 6.27212 6.52975 6.47778 6.11843 6.53387C5.91277 6.55257 5.70711 6.60865 5.48276 6.62735C5.29579 6.64605 5.20231 6.73953 5.22101 6.92649C5.22101 7.00128 5.22101 7.07606 5.22101 7.16954C5.22101 7.84261 5.18362 7.78652 5.85668 7.8613C6.45496 7.91739 6.86628 8.14175 7.03454 8.75873C7.05324 8.83351 7.10933 8.9083 7.14672 9.00178C7.31499 9.35701 7.2776 9.69354 7.03454 10.0114C6.90367 10.1796 6.7728 10.3666 6.64192 10.5349C6.51105 10.6844 6.51105 10.834 6.66062 10.9649C6.79149 11.0958 6.92237 11.2266 7.05324 11.3575C7.18412 11.4884 7.31499 11.5071 7.46456 11.3949C7.63283 11.264 7.81979 11.1332 7.98806 11.0023C8.19371 10.8527 8.41807 10.7218 8.66112 10.7966C9.05374 10.9275 9.44636 11.0958 9.80159 11.2827C9.93247 11.3575 10.0073 11.5632 10.0633 11.7314C10.1381 11.9932 10.1381 12.2736 10.1942 12.5354C10.2129 12.6289 10.2877 12.6849 10.3625 12.8158C10.3999 12.7223 10.4186 12.7036 10.4186 12.6849C10.4186 11.8249 10.4186 10.9649 10.4186 10.1049C10.4186 9.95529 10.3438 9.95529 10.2316 9.91789C8.97896 9.67484 8.06284 8.57176 8.02545 7.28172C8.02545 7.01997 8.13763 6.8704 8.36198 6.85171C8.58634 6.85171 8.71721 6.98258 8.73591 7.24433C8.7546 7.3939 8.7546 7.56216 8.79199 7.71173C8.97896 8.47828 9.68941 9.13265 10.3999 9.18874C10.3999 7.86131 10.3999 6.53387 10.3999 5.18774C9.91377 5.28122 9.53984 5.50558 9.22201 5.8608C9.03505 6.06646 8.82939 6.08516 8.66112 5.93559C8.51155 5.78602 8.51155 5.58036 8.67982 5.3934C9.09113 4.92599 9.59593 4.62685 10.2129 4.49598C10.3438 4.47728 10.4186 4.42119 10.4186 4.27162C10.4186 3.44899 10.4186 2.60765 10.4186 1.78502C10.4186 1.74762 10.4186 1.69154 10.3999 1.63545ZM11.1477 8.92699C11.1851 8.92699 11.1851 8.92699 11.2038 8.92699C12.176 7.97348 13.1295 7.00128 14.1017 6.02907C14.1391 5.99168 14.1578 5.91689 14.1391 5.8608C13.9522 5.22513 13.6343 4.66424 13.2043 4.17814C13.1669 4.19684 13.1482 4.21553 13.1295 4.23423C12.4939 4.85121 11.8769 5.48688 11.2599 6.12255C11.2038 6.17864 11.1664 6.30951 11.1664 6.3843C11.1664 7.05737 11.1664 7.73043 11.1664 8.4035C11.1477 8.59046 11.1477 8.75873 11.1477 8.92699ZM14.3074 6.8891C14.27 6.8704 14.2513 6.83301 14.2139 6.81431C14.1765 6.8891 14.1391 6.98258 14.083 7.03867C13.3913 7.73043 12.7182 8.42219 12.0264 9.09526C11.7273 9.3944 11.3347 9.63745 11.1851 9.99268C11.0355 10.3479 11.1477 10.8153 11.129 11.2453C11.129 11.5632 11.129 11.8623 11.129 12.2175C11.2038 12.1427 11.2412 12.1241 11.2786 12.0867C11.8769 11.4884 12.4752 10.9088 13.0547 10.3105C13.5782 9.78702 13.9335 9.17004 14.1391 8.45959C14.3074 7.97348 14.3635 7.43129 14.3074 6.8891ZM20.2341 14.8163C20.1593 14.8163 20.0658 14.8163 19.9911 14.8163C19.2432 14.8163 18.4767 14.8537 17.7288 14.7976C17.1305 14.7602 16.6818 14.9098 16.3266 15.3772C16.2144 15.5268 16.0648 15.639 15.9527 15.7698C15.9153 15.8072 15.8779 15.8633 15.8405 15.9194C16.607 15.9194 17.3362 15.9568 18.0466 15.9007C18.9254 15.8633 19.6545 15.4894 20.2341 14.8163ZM18.0653 12.5354C18.9067 11.694 19.7667 10.834 20.5706 10.0301C19.8041 10.0301 18.9254 10.0301 18.0653 10.0301C18.0653 10.9275 18.0653 11.7688 18.0653 12.5354ZM17.6914 14.0498C17.7101 14.0685 17.7101 14.0872 17.7288 14.1059C18.7384 14.1059 19.7293 14.1059 20.7389 14.1059C20.795 14.1059 20.8698 14.0685 20.8885 14.0311C21.0194 13.6571 21.1502 13.2832 21.2998 12.8719C20.4772 12.8719 19.7293 12.8719 18.9815 12.8719C18.9441 12.8719 18.888 12.8906 18.8506 12.928C18.458 13.2832 18.0653 13.6758 17.6914 14.0498ZM12.606 3.71073C12.1199 3.22463 11.6338 2.73853 11.1664 2.25242C11.1664 3.18724 11.1664 4.17814 11.1664 5.13165C11.6525 4.64555 12.1386 4.15944 12.606 3.71073ZM21.2624 10.4788C20.7202 11.021 20.2154 11.5258 19.7106 12.0306C19.6919 12.0493 19.6732 12.0867 19.6545 12.1241C20.1967 12.1241 20.7202 12.1241 21.2624 12.1241C21.2624 11.6006 21.2624 11.0771 21.2624 10.4788Z" fill="currentColor"/>
<path d="M6.5861 21.229C6.45523 21.1542 6.24957 21.0607 6.06261 20.9299C5.72607 20.6868 5.46433 20.7803 5.38954 21.1916C5.25867 21.9956 4.6043 22.3508 3.85645 22.0329C3.48252 21.8834 3.38904 21.5655 3.33295 21.2103C3.27686 20.7803 2.99642 20.6681 2.65989 20.9299C2.00552 21.4347 1.18288 21.1168 0.958527 20.3129C0.865046 19.9764 1.01462 19.7146 1.22027 19.4903C1.33245 19.3594 1.40724 19.2472 1.31376 19.0602C1.22027 18.8733 1.0894 18.8172 0.921134 18.8172C0.0424098 18.8546 -0.163249 17.8637 0.117195 17.2841C0.285461 16.9289 0.584601 16.8167 0.93983 16.798C1.1081 16.7793 1.23897 16.7606 1.31376 16.5736C1.38854 16.3867 1.35115 16.2745 1.23897 16.1249C0.696779 15.4332 1.05201 14.5544 1.91204 14.3862C2.21118 14.3301 2.41684 14.4797 2.64119 14.6479C2.77206 14.7414 2.88424 14.8723 3.07121 14.7601C3.22078 14.6853 3.29556 14.6105 3.33295 14.4236C3.44513 13.5822 4.1182 13.2083 4.88474 13.5635C5.23997 13.7318 5.33345 14.0309 5.37085 14.3862C5.42694 14.8162 5.70738 14.9097 6.04391 14.6666C6.71698 14.1618 7.577 14.4984 7.74527 15.3397C7.82006 15.6762 7.63309 15.9006 7.46483 16.1249C7.37135 16.2371 7.27786 16.3493 7.37135 16.5175C7.44613 16.6858 7.53961 16.7793 7.74527 16.7793C8.13789 16.798 8.45573 16.9102 8.6053 17.3215C8.75487 17.7515 8.75487 18.1628 8.45573 18.518C8.32486 18.6676 8.0818 18.705 7.89484 18.7985C7.74527 18.8733 7.53961 18.7798 7.42744 18.9855C7.31526 19.2098 7.37135 19.3594 7.52092 19.5276C7.80136 19.8268 7.87614 20.1446 7.67049 20.5185C7.46483 20.9112 7.14699 21.1729 6.5861 21.229ZM0.808957 17.5271C0.808957 17.5832 0.79026 17.6206 0.79026 17.6767C0.752868 18.0319 0.771564 18.0506 1.12679 18.1067C1.46333 18.1441 1.72507 18.2563 1.91204 18.5554C2.21118 19.0228 2.19248 19.4529 1.81856 19.9203C1.68768 20.0885 1.66899 20.2007 1.83725 20.3503C1.98682 20.4812 2.0803 20.5186 2.24857 20.369C2.47292 20.1633 2.73467 19.9951 3.07121 20.0511C3.70688 20.1633 4.00602 20.4625 4.0808 21.1729C4.0995 21.3973 4.21168 21.3973 4.37994 21.3973C4.52951 21.3973 4.67908 21.416 4.67908 21.1916C4.69778 20.8738 4.75387 20.5746 5.03431 20.3503C5.48302 19.9951 6.00652 19.9764 6.45523 20.3129C6.6048 20.4251 6.71698 20.5746 6.94133 20.3503C7.16569 20.1259 6.99742 20.0138 6.90394 19.8455C6.81046 19.6772 6.67958 19.4903 6.66089 19.3033C6.6048 18.6489 6.99742 18.2002 7.67049 18.1067C7.98832 18.0693 8.00702 18.0506 7.98832 17.7328C7.98832 17.6767 7.96963 17.6019 7.96963 17.5458C7.83875 17.5271 7.72657 17.5085 7.5957 17.4898C7.27786 17.4711 7.05351 17.3215 6.88524 17.0597C6.5861 16.611 6.6048 16.181 6.96003 15.6949C7.14699 15.4332 7.14699 15.4145 6.90394 15.2088C6.86655 15.1714 6.81046 15.134 6.75437 15.0966C6.62349 15.1901 6.49262 15.2836 6.38044 15.3771C6.15609 15.5453 5.91304 15.5827 5.65129 15.5266C5.07171 15.3958 4.82865 15.1153 4.71648 14.4236C4.69778 14.3488 4.66039 14.2553 4.6043 14.2179C4.34255 14.1057 4.15559 14.2179 4.1182 14.4797C4.1182 14.517 4.0995 14.5731 4.0995 14.6105C4.1182 15.3023 2.97772 15.8258 2.43553 15.321C2.34205 15.2275 2.21118 15.1527 2.099 15.0779C1.68768 15.321 1.66899 15.3958 1.93073 15.751L1.94943 15.7697C2.22987 16.0875 2.21118 16.4615 2.06161 16.8354C1.91204 17.2093 1.63159 17.4524 1.20158 17.4711C1.05201 17.4898 0.939831 17.5084 0.808957 17.5271Z" fill="currentColor"/>
<path d="M21.1874 19.4714C21.15 19.9014 21.1687 20.3314 21.0939 20.7614C20.8509 21.9954 19.8226 22.8554 18.5512 22.8928C18.009 22.9115 17.4668 22.8928 16.9246 22.8928C16.6442 22.8928 16.4946 22.7619 16.4946 22.4815C16.4946 21.9019 16.4572 21.341 16.5133 20.7614C16.6255 19.2471 17.6912 18.2562 19.2056 18.2188C19.7104 18.2001 20.2152 18.2188 20.7013 18.2188C21.0191 18.2188 21.15 18.3496 21.1687 18.6862C21.1687 18.9479 21.1687 19.2097 21.1687 19.4901C21.1687 19.4714 21.1687 19.4714 21.1874 19.4714ZM17.7099 22.1263C20.0282 22.4067 20.6639 20.8549 20.3835 19.4714C19.5047 20.3501 18.626 21.2102 17.7099 22.1263ZM19.86 18.9479C17.579 18.6862 16.9994 20.2566 17.2425 21.5467C18.1025 20.6867 18.9812 19.8266 19.86 18.9479Z" fill="currentColor"/>
<path d="M4.37915 19.4534C3.44434 19.4534 2.69649 18.7243 2.71519 17.7895C2.71519 16.8733 3.46304 16.1255 4.36046 16.1255C5.27658 16.1255 6.04312 16.8733 6.02443 17.7895C6.04312 18.7243 5.29527 19.4534 4.37915 19.4534ZM5.33266 17.7895C5.33266 17.2473 4.92135 16.8359 4.37915 16.8546C3.85566 16.8546 3.44434 17.266 3.44434 17.7895C3.44434 18.3316 3.85566 18.743 4.39785 18.743C4.90265 18.7617 5.33266 18.3316 5.33266 17.7895Z" fill="currentColor"/>
</svg>
