<svg width="1118" height="434" viewBox="0 0 1118 434" fill="none" xmlns="http://www.w3.org/2000/svg">
<path d="M733.713 298.532C733.713 298.532 758.028 498.267 926.557 531.372C1095.09 564.477 1085.03 511.173 1113.31 480.114C1157.3 431.848 1173.64 394.687 1180.66 375.956C1181.17 374.609 1181.37 373.166 1181.26 371.731C1181.14 370.296 1180.71 368.903 1179.99 367.653C1179.28 366.402 1178.29 365.325 1177.11 364.496C1175.92 363.668 1174.57 363.11 1173.15 362.862C1132.31 355.844 993.205 331.749 959.351 325.184C919.532 317.457 787.799 299.463 733.713 298.532Z" fill="white"/>
<path d="M681.144 95.5628C649.484 25.3738 680.297 -30.1542 747.726 -60.2632C785.018 -76.9028 830.247 -65.5979 859.309 -45.7101C885.072 -28.0712 859.409 68.4128 873.483 99.6829C904.989 170.018 952.162 225.727 887.121 260.012C868.782 269.707 712.766 165.788 681.144 95.5628Z" fill="white"/>
<path d="M469.579 355.035C466.629 345.997 461.688 337.73 455.117 330.835C448.546 323.94 440.511 318.591 431.597 315.18C428.583 314.141 425.458 313.449 422.285 313.117C417.927 312.541 413.754 310.999 410.074 308.605C406.394 306.21 403.302 303.025 401.025 299.283C400.956 299.156 400.877 299.035 400.79 298.919C379.452 267.15 337.923 254.977 303.698 274.197C293.518 279.81 284.894 287.844 278.594 297.582C272.295 307.319 268.516 318.457 267.595 330.001C267.202 334.227 265.739 338.286 263.345 341.798C260.95 345.311 257.701 348.163 253.9 350.09L253.652 350.22C248.24 353.114 242.618 355.58 237.231 358.5C223.38 366.027 210.976 377.123 204.18 391.502C189.533 422.467 195.246 460.634 221.488 483.903C233.918 494.908 249.113 503.019 265.652 505.653C274.282 506.953 283.021 507.388 291.738 506.951H291.842C305.381 506.419 313.637 513.051 322.728 521.759C337.923 536.307 359.248 543.341 379.934 538.461C398.638 534.062 413.351 521.058 421.959 504.213C426.747 494.602 429.748 484.208 430.815 473.534C432.119 462.36 430.815 451.472 431.232 440.285C431.235 438.638 431.49 437.002 431.989 435.431C433.293 431.629 436.841 429.033 440.297 426.931C449.69 421.222 457.752 413.586 463.944 404.531C473.452 390.438 475.031 370.906 469.579 355.035Z" fill="white"/>
<path d="M0.0770923 254.567L44.6299 24.6017L59.0299 0.828892L116.143 11.8937L219.04 31.8286L207.031 93.8116L191.281 175.108C180.436 207.492 158.26 274.775 156.311 284.836C154.362 294.897 51.3428 268.849 0.0770923 254.567Z" fill="white"/>
</svg>
