<svg width="23" height="24" viewBox="0 0 23 24" fill="none" xmlns="http://www.w3.org/2000/svg">
<path d="M9.16355 0C8.9851 5.71854e-06 8.81126 0.0576066 8.66705 0.164507C8.52285 0.271408 8.41574 0.422092 8.36113 0.594857L7.43397 3.52457C7.04456 3.71829 6.67201 3.936 6.31631 4.18114L3.35614 3.53314C3.1816 3.49525 2.99974 3.51467 2.83676 3.58861C2.67377 3.66254 2.53807 3.78718 2.4492 3.94457L0.112751 8.05714C0.023531 8.21444 -0.0142574 8.39649 0.00482941 8.57703C0.0239162 8.75758 0.0988941 8.9273 0.218952 9.06171L2.25028 11.3417C2.22071 11.7789 2.22071 12.2177 2.25028 12.6549L0.218952 14.9383C0.0988941 15.0727 0.0239162 15.2424 0.00482941 15.423C-0.0142574 15.6035 0.023531 15.7856 0.112751 15.9429L2.4492 20.0571C2.53832 20.2142 2.67412 20.3385 2.83709 20.4121C3.00006 20.4857 3.18178 20.5049 3.35614 20.4669L6.31631 19.8189C6.67032 20.0623 7.04456 20.2817 7.43228 20.4754L8.36113 23.4051C8.41574 23.5779 8.52285 23.7286 8.66705 23.8355C8.81126 23.9424 8.9851 24 9.16355 24H13.8365C14.0149 24 14.1887 23.9424 14.3329 23.8355C14.4771 23.7286 14.5843 23.5779 14.6389 23.4051L15.5643 20.4771C15.9527 20.284 16.3273 20.0635 16.6854 19.8171L19.6439 20.4669C19.8184 20.5048 20.0003 20.4853 20.1632 20.4114C20.3262 20.3375 20.4619 20.2128 20.5508 20.0554L22.8872 15.9429C22.9765 15.7856 23.0143 15.6035 22.9952 15.423C22.9761 15.2424 22.9011 15.0727 22.781 14.9383L20.7497 12.6549C20.7791 12.2188 20.7791 11.7812 20.7497 11.3451L22.781 9.06171C22.9011 8.9273 22.9761 8.75758 22.9952 8.57703C23.0143 8.39649 22.9765 8.21444 22.8872 8.05714L20.5508 3.94286C20.4617 3.78578 20.3259 3.6615 20.1629 3.58788C19.9999 3.51426 19.8182 3.49509 19.6439 3.53314L16.6854 4.18286C16.328 3.93771 15.9538 3.71657 15.5643 3.52286L14.6372 0.594857C14.5828 0.422648 14.4761 0.272363 14.3326 0.165514C14.1891 0.0586653 14.016 0.000729716 13.8381 0H9.16523H9.16355ZM9.78053 1.71429H13.2195L14.177 4.74343L14.8226 5.064C15.14 5.22195 15.4464 5.4018 15.7397 5.60229L16.3364 6.01371L19.3977 5.34171L21.1172 8.37257L19.0184 10.7349L19.069 11.4617C19.0932 11.8201 19.0932 12.1799 19.069 12.5383L19.0184 13.2651L21.1206 15.6274L19.3994 18.6583L16.3381 17.988L15.7413 18.3977C15.4481 18.5982 15.1417 18.778 14.8243 18.936L14.1787 19.2566L13.2195 22.2857H9.77716L8.81628 19.2549L8.17233 18.936C7.85528 18.7784 7.54941 18.5986 7.25696 18.3977L6.66189 17.988L3.59888 18.6583L1.87942 15.6274L3.97986 13.2651L3.92929 12.5383C3.90499 12.1793 3.90499 11.819 3.92929 11.46L3.97986 10.7331L1.87773 8.37257L3.59888 5.34171L6.66189 6.01029L7.25696 5.60229C7.54938 5.4014 7.85525 5.22153 8.17233 5.064L8.81628 4.74514L9.77885 1.71429H9.78053ZM11.5 6.85714C10.1587 6.85714 8.8724 7.39898 7.92398 8.36345C6.97556 9.32792 6.44275 10.636 6.44275 12C6.44275 13.364 6.97556 14.6721 7.92398 15.6365C8.8724 16.601 10.1587 17.1429 11.5 17.1429C12.8413 17.1429 14.1276 16.601 15.076 15.6365C16.0244 14.6721 16.5573 13.364 16.5573 12C16.5573 10.636 16.0244 9.32792 15.076 8.36345C14.1276 7.39898 12.8413 6.85714 11.5 6.85714ZM11.5 8.57143C12.3942 8.57143 13.2517 8.93265 13.884 9.57563C14.5163 10.2186 14.8715 11.0907 14.8715 12C14.8715 12.9093 14.5163 13.7814 13.884 14.4244C13.2517 15.0673 12.3942 15.4286 11.5 15.4286C10.6058 15.4286 9.74827 15.0673 9.11599 14.4244C8.48371 13.7814 8.1285 12.9093 8.1285 12C8.1285 11.0907 8.48371 10.2186 9.11599 9.57563C9.74827 8.93265 10.6058 8.57143 11.5 8.57143Z" fill="#B6B6B6"/>
</svg>
