<svg width="178" height="257" viewBox="0 0 178 257" fill="none" xmlns="http://www.w3.org/2000/svg">
<path d="M173.131 0C199.052 0 220.165 18.8136 221.21 42.6442C222.255 68.3561 202.397 91.3505 177.312 93.2319C153.272 95.1132 123.798 71.0736 123.171 48.9154C121.916 22.1582 144.702 0 173.131 0Z" fill="white"/>
<path d="M239.815 194.825C236.262 199.215 230.618 196.497 226.228 194.825C215.149 190.644 204.279 186.254 193.199 181.864C188.392 179.983 183.584 177.684 178.567 176.22C153.482 169.113 139.685 182.073 145.956 207.576C148.883 219.283 148.256 229.525 138.64 237.887C126.516 248.339 101.431 242.904 94.3235 228.48C92.0241 223.672 93.2783 219.492 95.7868 215.729C100.595 208.412 106.03 201.723 110.42 194.198C113.137 189.599 116.273 183.537 109.792 179.565C103.73 175.802 97.4591 177.475 92.8602 182.491C87.8433 187.927 85.5438 195.034 82.6173 201.723C75.928 216.983 69.8658 232.87 57.1144 244.367C46.0353 254.401 33.2838 260.045 18.0239 255.028C-22.5299 233.497 18.0239 200.887 18.0239 200.887C26.1765 194.407 34.7471 188.136 44.572 184.582C55.024 180.819 61.2952 173.712 65.0579 163.678C67.3573 157.825 69.4478 151.972 71.7472 146.119C82.6173 117.062 104.985 104.102 134.459 102.847C151.81 102.011 167.488 109.955 180.239 120.407C201.77 137.966 220.793 158.452 236.68 181.655C238.979 185.627 243.578 190.226 239.815 194.825Z" fill="white"/>
</svg>
