<svg width="24" height="24" viewBox="0 0 24 24" fill="none" xmlns="http://www.w3.org/2000/svg">
<path fill-rule="evenodd" clip-rule="evenodd" d="M6.4856 18.4284C10.5926 17.8284 13.4204 17.88 17.5328 18.4494C17.8306 18.4925 18.1028 18.642 18.2989 18.8702C18.4951 19.0984 18.6021 19.3898 18.6002 19.6908C18.6002 19.9788 18.5012 20.2584 18.3224 20.4768C18.0108 20.8575 17.6915 21.232 17.3648 21.6H18.9494C19.049 21.4812 19.1492 21.36 19.2506 21.237C19.6065 20.8005 19.8006 20.2545 19.8002 19.6914C19.8002 18.4764 18.9134 17.4294 17.6972 17.2614C13.4876 16.6788 10.5452 16.623 6.3122 17.2416C5.0834 17.421 4.2002 18.4842 4.2002 19.7076C4.2002 20.2506 4.3772 20.7875 4.7126 21.2226C4.8116 21.351 4.9094 21.477 5.0066 21.6006H6.5528C6.24885 21.2367 5.95239 20.8666 5.6636 20.4906C5.49197 20.2654 5.39939 19.99 5.4002 19.707C5.4002 19.0608 5.8646 18.519 6.4856 18.4284ZM12.0002 12.6C12.473 12.6 12.9411 12.5068 13.3779 12.3259C13.8146 12.145 14.2115 11.8798 14.5458 11.5455C14.8801 11.2112 15.1452 10.8144 15.3262 10.3776C15.5071 9.94084 15.6002 9.47271 15.6002 8.99995C15.6002 8.52719 15.5071 8.05906 15.3262 7.62229C15.1452 7.18552 14.8801 6.78866 14.5458 6.45437C14.2115 6.12008 13.8146 5.8549 13.3779 5.67399C12.9411 5.49307 12.473 5.39995 12.0002 5.39995C11.0454 5.39995 10.1297 5.77924 9.45461 6.45437C8.77948 7.1295 8.4002 8.04517 8.4002 8.99995C8.4002 9.95473 8.77948 10.8704 9.45461 11.5455C10.1297 12.2207 11.0454 12.6 12.0002 12.6ZM12.0002 13.8C13.2732 13.8 14.4941 13.2942 15.3943 12.3941C16.2945 11.4939 16.8002 10.273 16.8002 8.99995C16.8002 7.72691 16.2945 6.50601 15.3943 5.60584C14.4941 4.70566 13.2732 4.19995 12.0002 4.19995C10.7272 4.19995 9.50626 4.70566 8.60608 5.60584C7.70591 6.50601 7.2002 7.72691 7.2002 8.99995C7.2002 10.273 7.70591 11.4939 8.60608 12.3941C9.50626 13.2942 10.7272 13.8 12.0002 13.8Z" fill="#B6B6B6"/>
<path fill-rule="evenodd" clip-rule="evenodd" d="M12 22.8C17.9646 22.8 22.8 17.9646 22.8 12C22.8 6.0354 17.9646 1.2 12 1.2C6.0354 1.2 1.2 6.0354 1.2 12C1.2 17.9646 6.0354 22.8 12 22.8ZM12 24C18.6276 24 24 18.6276 24 12C24 5.3724 18.6276 0 12 0C5.3724 0 0 5.3724 0 12C0 18.6276 5.3724 24 12 24Z" fill="#B6B6B6"/>
</svg>
