<?xml version="1.0" standalone="no"?>
<!DOCTYPE svg PUBLIC "-//W3C//DTD SVG 20010904//EN"
 "http://www.w3.org/TR/2001/REC-SVG-20010904/DTD/svg10.dtd">
<svg version="1.0" xmlns="http://www.w3.org/2000/svg"
 width="1728.000000pt" height="1728.000000pt" viewBox="0 0 1728.000000 1728.000000"
 preserveAspectRatio="xMidYMid meet">
<metadata>
Created by potrace 1.14, written by Peter Selinger 2001-2017
</metadata>
<g transform="translate(0.000000,1728.000000) scale(0.100000,-0.100000)"
fill="#000000" stroke="none">
<path d="M11344 11828 c17 -161 21 -202 31 -338 4 -41 8 -95 10 -120 2 -25 7
-97 10 -160 4 -63 9 -135 10 -160 14 -218 18 -733 18 -2345 -1 -1028 -4 -1942
-7 -2030 -12 -286 -18 -407 -31 -575 -3 -36 -8 -99 -11 -140 -3 -41 -7 -84 -8
-95 -1 -11 -5 -26 -9 -32 -5 -8 -3 -13 3 -13 6 0 9 -4 6 -8 -6 -10 -19 -131
-20 -191 l-1 -44 765 1 c873 1 803 0 796 10 -2 4 -7 49 -11 100 -3 50 -8 100
-10 110 -2 10 -6 59 -10 108 -4 49 -9 112 -11 139 -11 146 -15 196 -19 260 -2
39 -4 70 -5 70 -6 0 -26 1160 -21 1260 0 6 0 111 0 235 0 124 0 234 0 245 0
11 1 97 1 192 l0 172 56 -2 c30 -2 58 1 60 5 3 5 10 5 16 2 15 -10 268 -10
268 -1 0 5 5 5 11 1 14 -8 92 -9 106 -1 6 4 13 4 17 0 9 -9 107 -10 112 -1 3
5 10 5 17 1 14 -8 189 -8 211 0 9 4 16 3 16 -1 0 -9 172 -8 187 1 6 4 13 4 17
0 5 -5 292 -8 306 -3 3 1 10 1 15 0 29 -7 265 -4 265 3 0 5 5 5 11 1 14 -8 92
-9 106 -1 6 4 13 4 17 0 9 -9 107 -10 112 -1 3 5 10 5 17 1 14 -8 189 -8 211
0 9 4 16 3 16 -1 0 -6 175 -8 190 -2 3 1 10 1 15 0 24 -6 213 -3 223 3 6 4 13
4 15 0 6 -10 100 -8 116 1 6 4 11 3 11 -1 0 -9 102 -8 125 1 8 3 16 2 19 -2 2
-4 25 -7 50 -6 36 1 46 -2 47 -15 4 -69 -1 -1612 -5 -1741 -11 -319 -32 -644
-61 -950 -3 -30 -7 -81 -10 -113 -2 -32 -7 -62 -10 -67 -4 -6 -3 -10 2 -11 11
-1 1524 -1 1545 0 14 1 16 9 13 43 -3 24 -7 72 -10 108 -10 109 -14 163 -20
220 -3 30 -7 84 -10 120 -3 36 -7 92 -10 125 -15 192 -17 231 -31 605 -8 231
-8 3769 0 3970 13 317 16 366 21 445 14 210 29 387 41 495 3 36 8 86 9 111 1
25 5 51 9 57 5 9 -185 12 -778 12 l-786 0 4 -52 c3 -29 8 -87 11 -128 3 -41 8
-91 11 -110 5 -37 12 -121 19 -230 34 -520 38 -649 39 -1542 l1 -838 -1492 0
-1492 0 1 888 c1 488 3 890 5 895 3 4 6 65 8 135 4 126 10 232 20 367 3 39 7
99 10 135 4 68 12 160 20 245 3 28 7 77 10 110 3 33 7 75 10 93 l6 32 -782 0
-781 0 6 -62z"/>
<path d="M148 11792 c-15 -2 -25 -8 -23 -15 4 -12 13 -104 20 -212 3 -33 7
-85 10 -115 10 -97 13 -137 30 -415 2 -38 7 -123 10 -189 3 -65 8 -123 11
-127 3 -5 1 -9 -5 -9 -6 0 -6 -11 0 -32 10 -36 6 -4054 -4 -4209 -8 -121 -16
-242 -22 -339 -3 -41 -7 -104 -10 -140 -3 -36 -8 -85 -10 -110 -8 -95 -15
-177 -21 -227 -11 -98 -12 -168 -2 -174 6 -4 25 -3 43 1 18 4 39 4 45 0 7 -4
25 -4 40 0 15 4 33 4 40 0 7 -5 23 -6 34 -4 12 3 41 4 66 4 25 -1 54 -1 65 0
23 1 23 1 95 1 30 0 62 0 70 0 8 0 31 0 50 0 83 -2 135 4 133 16 -3 15 -13
110 -18 173 -2 25 -6 65 -10 90 -9 71 -16 159 -18 232 -1 38 -4 68 -7 68 -3 0
-6 17 -7 38 0 20 -3 78 -7 127 -10 138 -16 275 -21 449 -2 87 -6 160 -8 162
-2 2 -1 24 3 49 4 25 4 45 1 45 -3 0 -5 60 -4 132 1 73 2 151 3 173 0 22 -1
57 -3 78 -1 21 1 43 5 50 4 6 4 16 1 21 -10 15 -10 56 0 56 4 0 5 5 1 11 -10
16 -11 259 -1 259 4 0 4 7 -1 17 -6 9 -6 29 -2 45 5 15 5 28 0 28 -5 0 -5 13
0 30 5 16 5 32 2 34 -4 2 -6 51 -4 108 1 56 3 110 2 118 -3 88 -2 209 2 216 4
8 3 24 -2 42 -6 21 -4 192 3 192 5 0 5 5 2 10 -10 16 -12 120 -2 120 4 0 4 7
-1 17 -6 9 -6 29 -2 45 5 15 5 28 0 28 -5 0 -5 13 0 29 4 16 5 32 2 35 -5 5
-6 175 -2 331 0 22 -1 57 -2 78 -2 21 0 43 4 50 4 6 4 16 1 21 -10 15 -10 56
0 56 4 0 5 5 1 11 -10 16 -11 289 -1 289 5 0 5 5 2 10 -10 16 -12 120 -2 120
4 0 4 7 -1 17 -6 9 -6 29 -2 45 5 15 5 28 0 28 -5 0 -5 13 0 29 4 16 5 32 2
35 -7 7 -7 365 0 371 3 3 19 -30 37 -73 18 -42 42 -97 53 -122 12 -25 30 -65
41 -90 11 -25 24 -53 29 -63 8 -16 107 -241 131 -297 5 -14 10 -28 9 -32 -1
-5 3 -8 10 -8 6 0 8 -3 5 -6 -4 -4 2 -23 13 -43 10 -20 28 -56 39 -81 70 -162
200 -456 232 -525 13 -27 23 -52 24 -55 1 -3 8 -21 17 -40 9 -19 40 -91 71
-160 62 -141 90 -205 120 -270 12 -25 21 -47 22 -50 1 -3 8 -21 17 -40 9 -19
41 -93 73 -165 31 -71 65 -149 76 -172 10 -24 27 -62 38 -85 92 -209 183 -416
233 -528 32 -74 65 -148 73 -165 8 -16 23 -50 34 -75 10 -25 30 -67 42 -95 13
-27 23 -52 24 -55 0 -3 8 -21 17 -40 9 -19 51 -114 93 -210 43 -96 87 -195 98
-220 11 -25 21 -47 22 -50 0 -3 14 -34 30 -70 17 -36 28 -66 25 -66 -3 -1 4
-12 15 -24 11 -12 19 -23 17 -24 -4 -1 11 -42 37 -99 11 -23 36 -78 56 -122
20 -44 36 -80 35 -80 -1 0 8 -20 19 -45 11 -25 21 -51 21 -57 0 -7 4 -13 10
-13 5 0 9 -3 8 -7 -1 -5 4 -21 12 -38 7 -16 20 -46 28 -65 8 -19 58 -132 111
-250 l96 -215 215 3 215 2 22 48 c11 26 37 89 57 140 20 51 41 101 46 110 5 9
69 161 141 337 72 176 140 340 151 365 11 24 21 49 22 55 1 5 12 32 24 59 12
27 22 51 22 53 0 3 6 19 14 36 14 31 28 65 100 237 19 47 73 177 120 290 47
113 86 211 86 218 0 6 5 12 10 12 6 0 10 7 10 16 0 9 6 30 14 47 12 27 43 99
85 202 5 11 24 56 42 100 19 44 34 82 35 85 0 3 9 25 20 50 10 25 18 48 16 53
-1 4 3 7 8 7 6 0 10 4 10 10 0 8 67 174 153 379 5 14 11 28 12 31 0 3 6 15 13
28 7 12 10 22 6 22 -3 0 0 7 7 16 7 9 14 21 15 28 2 9 46 117 74 181 33 75 50
119 50 131 0 8 4 14 10 14 5 0 9 3 8 8 -1 8 -3 3 68 176 30 71 54 135 54 142
0 7 3 14 7 16 5 2 19 30 32 63 49 123 173 421 192 462 10 24 19 46 19 49 0 3
6 20 14 37 8 18 26 61 41 97 14 36 32 77 41 93 8 15 13 27 10 27 -3 0 3 16 14
35 11 20 20 39 20 44 0 5 8 26 17 47 9 22 17 41 18 44 1 3 9 22 18 44 9 21 17
40 17 42 0 2 13 32 28 66 15 35 33 74 39 88 8 18 10 -475 8 -1865 -1 -1039 -6
-1926 -9 -1970 -3 -44 -8 -123 -11 -175 -14 -245 -22 -367 -30 -440 -3 -25 -8
-72 -11 -105 -2 -33 -7 -82 -10 -110 -12 -123 -12 -125 10 -126 110 -4 1525
-1 1533 4 6 4 8 19 6 34 -5 37 -12 103 -18 183 -2 36 -7 85 -9 110 -2 25 -7
86 -11 135 -4 50 -9 110 -11 135 -2 25 -6 90 -9 145 -4 55 -8 116 -10 135 -15
146 -20 666 -20 2290 0 1649 4 2106 20 2279 2 25 7 95 10 155 4 60 8 128 10
150 10 121 17 205 21 241 3 22 6 60 8 85 2 25 7 83 11 130 4 47 9 88 12 93 5
9 70 8 -741 8 -368 0 -672 -3 -676 -8 -3 -4 -28 -60 -55 -123 -52 -126 -63
-152 -94 -222 -12 -26 -21 -49 -21 -52 0 -3 -11 -29 -24 -58 -13 -29 -61 -141
-106 -248 -44 -107 -85 -204 -90 -215 -20 -46 -102 -241 -160 -380 -34 -82
-66 -154 -70 -160 -5 -5 -9 -14 -9 -20 -1 -9 -126 -310 -166 -400 -7 -16 -23
-55 -35 -85 -12 -30 -31 -73 -40 -96 -10 -22 -42 -96 -70 -165 -29 -68 -61
-144 -72 -169 -10 -25 -23 -54 -28 -65 -4 -11 -38 -92 -75 -180 -37 -88 -73
-173 -80 -190 -45 -101 -137 -322 -139 -330 -1 -5 -4 -14 -8 -20 -3 -5 -43
-98 -88 -205 -99 -234 -103 -244 -105 -250 -4 -11 -19 -48 -43 -100 -13 -30
-32 -75 -42 -100 -27 -69 -149 -359 -159 -378 -5 -9 -29 -64 -52 -121 -43
-104 -43 -104 -56 -75 -7 16 -31 70 -54 119 -71 157 -76 167 -137 305 -33 74
-78 175 -101 223 -23 49 -41 90 -41 93 0 2 -18 43 -40 90 -22 47 -40 87 -40
89 0 2 -18 43 -41 92 -22 48 -47 103 -55 121 -8 17 -22 49 -31 70 -10 20 -18
39 -19 42 0 3 -13 32 -28 65 -52 112 -69 150 -71 155 0 3 -11 28 -24 55 -30
66 -54 119 -82 180 -12 28 -44 100 -71 160 -28 61 -96 214 -153 340 -56 127
-137 307 -180 400 -42 94 -83 185 -91 203 -35 80 -45 102 -79 177 -20 44 -45
98 -54 120 -10 22 -29 63 -41 90 -12 28 -31 68 -40 90 -10 22 -29 65 -43 95
-13 30 -28 65 -32 78 -3 12 -11 22 -16 22 -5 0 -9 6 -9 14 0 12 -18 55 -87
206 -14 30 -34 75 -45 100 -28 64 -47 106 -78 175 -28 60 -41 89 -110 245 -69
156 -91 200 -98 200 -48 3 -1444 4 -1464 2z"/>
<path d="M10442 10105 c-42 -12 -104 -34 -137 -49 -70 -33 -199 -107 -203
-118 -2 -5 -8 -8 -13 -8 -10 0 -225 -158 -264 -193 -11 -10 -33 -28 -48 -40
-29 -23 -32 -26 -171 -152 -89 -80 -271 -260 -400 -394 -37 -39 -70 -71 -71
-71 -2 0 -16 5 -32 11 -15 6 -35 12 -44 14 -16 3 -92 27 -211 67 -31 10 -65
21 -75 23 -10 2 -83 23 -163 45 -80 23 -154 43 -165 45 -11 3 -31 7 -45 10
-14 4 -36 8 -50 11 -14 3 -33 7 -42 10 -9 3 -27 7 -40 9 -13 3 -34 7 -48 10
-14 3 -41 7 -60 10 -19 2 -55 7 -80 11 -56 9 -215 8 -254 0 -45 -10 -88 -36
-118 -69 -23 -25 -88 -179 -88 -208 0 -5 -4 -9 -10 -9 -5 0 -10 -5 -10 -11 0
-6 -10 -25 -22 -42 -13 -17 -27 -39 -33 -49 -5 -9 -23 -38 -38 -65 -27 -45
-64 -141 -72 -188 -25 -141 -27 -187 -9 -282 10 -54 59 -158 100 -215 20 -26
33 -48 30 -48 -7 0 68 -84 149 -165 78 -79 211 -196 253 -222 15 -10 29 -21
32 -24 3 -4 55 -41 115 -83 61 -42 115 -80 122 -86 7 -6 24 -15 38 -22 14 -6
25 -14 25 -18 0 -4 8 -10 18 -13 9 -4 49 -27 87 -52 39 -25 77 -48 85 -52 8
-4 47 -26 85 -48 87 -52 181 -103 310 -169 55 -28 102 -54 103 -58 2 -5 7 -8
12 -8 4 0 86 -38 182 -84 184 -89 270 -128 398 -184 25 -11 65 -29 90 -40 73
-32 172 -74 212 -88 37 -13 38 -12 70 23 18 19 40 43 49 52 58 59 270 355 286
399 4 9 10 19 13 22 33 24 263 496 290 592 1 4 10 31 21 60 42 113 94 276 99
310 1 4 6 22 12 40 5 18 11 42 14 53 2 11 15 70 28 130 27 116 39 179 40 208
0 9 3 17 6 17 3 0 5 12 5 28 1 24 7 81 20 177 3 17 7 62 10 100 3 39 8 95 11
125 13 132 5 583 -12 717 -21 168 -105 288 -214 308 -66 12 -101 10 -178 -10z"/>
</g>
</svg>
