<svg width="10" height="16" viewBox="0 0 10 16" fill="none" xmlns="http://www.w3.org/2000/svg">
<path d="M4.878 15.72H5.778V14.118C8.208 14.028 9.594 12.552 9.594 10.698C9.594 8.556 7.632 7.908 6.192 7.494L5.778 7.368V3.516C6.84 3.732 7.596 4.506 7.956 5.442L9.288 4.812C8.928 3.408 7.524 2.274 5.778 2.076V0.6H4.878V2.058C3.06 2.166 1.35 3.336 1.35 5.316C1.35 7.548 3.564 8.34 4.698 8.628L4.878 8.682V12.624C3.852 12.444 2.898 11.814 2.394 10.392L0.954 10.878C1.53 12.858 3.024 13.884 4.878 14.082V15.72ZM2.97 5.19C2.97 4.2 3.762 3.57 4.878 3.48V7.098C3.924 6.774 2.97 6.27 2.97 5.19ZM5.778 12.66V8.934C6.912 9.24 7.92 9.654 7.92 10.86C7.92 12.048 6.822 12.588 5.778 12.66Z" fill="#A6A6A6"/>
</svg>
