<svg width="9" height="18" viewBox="0 0 9 18" fill="none" xmlns="http://www.w3.org/2000/svg">
<path d="M6.08669 2.75218C6.98373 2.93999 7.71964 3.32027 8.35127 3.86767C8.53031 4.02282 8.5515 4.30219 8.40013 4.48617L7.62926 5.42313C7.48592 5.59737 7.2373 5.62682 7.05805 5.49269C6.36423 4.97342 5.64512 4.72575 4.81942 4.72575C3.8709 4.72575 3.27371 5.14344 3.27371 5.88792C3.27371 6.65053 3.71283 6.95926 5.52207 7.54036C7.73524 8.26677 9 9.22914 9 11.4446C9 13.2014 7.92531 14.5499 6.06092 15.056C5.87694 15.106 5.75035 15.2805 5.75035 15.4772V17.5624C5.75035 17.8041 5.56083 18 5.32708 18H4.15365C3.91986 18 3.73038 17.8041 3.73038 17.5624V15.6325C3.73038 15.415 3.57591 15.2282 3.36728 15.1998C2.04306 15.0201 1.01396 14.5015 0.242861 13.8361C0.059224 13.6776 -0.0930648 13.5463 0.0679282 13.3634L1.12151 12.1666C1.35356 11.903 1.46559 12.0343 1.6393 12.1731C2.39381 12.7763 3.25046 13.1153 4.25735 13.1153C5.39906 13.1153 6.08417 12.5705 6.08417 11.6625C6.08417 10.7909 5.6625 10.3913 3.9763 9.84662C1.34152 9.01128 0.410519 7.88546 0.410519 6.10581C0.410519 4.35882 1.61373 3.12874 3.40118 2.73559C3.59424 2.69313 3.73038 2.74234 3.73038 2.53826V0.19596C3.73038 -0.0457322 3.91989 0.00428637 4.15365 0.00428637H5.32708C5.56087 0.00428637 5.75035 0.200213 5.75035 0.44187V2.32514C5.75035 2.53189 5.89067 2.71116 6.08669 2.75218Z" fill="#B7B7B7"/>
</svg>
