<svg width="166" height="124" viewBox="0 0 166 124" fill="none" xmlns="http://www.w3.org/2000/svg">
<rect x="26.0938" width="122.682" height="123.612" rx="17" fill="#F4F4F4"/>
<g filter="url(#filter0_d_1591_5519)">
<rect x="1" y="12.0825" width="110.6" height="24.1647" rx="4" fill="white"/>
</g>
<rect x="33.5293" y="21.3765" width="60.4118" height="5.57647" rx="2.78824" fill="#E4E4E4"/>
<rect x="3.78809" y="13.9414" width="21.3765" height="20.4471" rx="4" fill="#F2EC2C"/>
<path d="M13.6476 27.1238H15.4836C15.4356 26.9558 15.4116 26.7758 15.4116 26.6318C15.4116 26.0438 15.9756 25.6958 16.5636 25.2758C17.2476 24.7958 18.0396 24.1478 18.0396 22.9238C18.0396 21.2558 16.5756 20.2478 14.8956 20.2478C13.1196 20.2478 11.5836 21.3638 11.5836 23.3078C11.5836 23.3678 11.5956 23.4158 11.5956 23.4758L13.2036 23.7638C13.2036 23.6918 13.1916 23.6198 13.1916 23.5718C13.1916 22.5878 13.8156 21.8918 14.7756 21.8918C15.5676 21.8918 16.1436 22.3718 16.1436 23.0798C16.1436 23.7878 15.5436 24.1598 15.0516 24.4958C14.1756 25.0238 13.5756 25.5278 13.5756 26.4398C13.5756 26.6678 13.6116 26.9078 13.6476 27.1238ZM13.5396 28.7918C13.5396 29.3918 14.0196 29.8838 14.6076 29.8838C15.1956 29.8838 15.6516 29.4038 15.6516 28.8158C15.6516 28.2038 15.1596 27.7478 14.5956 27.7478C14.0076 27.7478 13.5396 28.2158 13.5396 28.7918Z" fill="white"/>
<g filter="url(#filter1_d_1591_5519)">
<rect x="48.3994" y="49.2588" width="110.6" height="24.1647" rx="4" fill="white"/>
</g>
<rect x="80.9287" y="58.5527" width="60.4118" height="5.57647" rx="2.78824" fill="#E4E4E4"/>
<rect x="51.1875" y="51.1177" width="21.3765" height="20.4471" rx="4" fill="#F2EC2C"/>
<path d="M61.047 64.3006H62.883C62.835 64.1326 62.811 63.9526 62.811 63.8086C62.811 63.2206 63.375 62.8726 63.963 62.4526C64.647 61.9726 65.439 61.3246 65.439 60.1006C65.439 58.4326 63.975 57.4246 62.295 57.4246C60.519 57.4246 58.983 58.5406 58.983 60.4846C58.983 60.5446 58.995 60.5926 58.995 60.6526L60.603 60.9406C60.603 60.8686 60.591 60.7966 60.591 60.7486C60.591 59.7646 61.215 59.0686 62.175 59.0686C62.967 59.0686 63.543 59.5486 63.543 60.2566C63.543 60.9646 62.943 61.3366 62.451 61.6726C61.575 62.2006 60.975 62.7046 60.975 63.6166C60.975 63.8446 61.011 64.0846 61.047 64.3006ZM60.939 65.9686C60.939 66.5686 61.419 67.0606 62.007 67.0606C62.595 67.0606 63.051 66.5806 63.051 65.9926C63.051 65.3806 62.559 64.9246 61.995 64.9246C61.407 64.9246 60.939 65.3926 60.939 65.9686Z" fill="white"/>
<g filter="url(#filter2_d_1591_5519)">
<rect x="1" y="86.4351" width="110.6" height="24.1647" rx="4" fill="white"/>
</g>
<rect x="33.5293" y="95.7295" width="60.4118" height="5.57647" rx="2.78824" fill="#E4E4E4"/>
<rect x="3.78809" y="88.2939" width="21.3765" height="20.4471" rx="4" fill="#F2EC2C"/>
<path d="M13.6476 101.477H15.4836C15.4356 101.309 15.4116 101.129 15.4116 100.985C15.4116 100.397 15.9756 100.049 16.5636 99.6288C17.2476 99.1488 18.0396 98.5008 18.0396 97.2768C18.0396 95.6088 16.5756 94.6008 14.8956 94.6008C13.1196 94.6008 11.5836 95.7168 11.5836 97.6608C11.5836 97.7208 11.5956 97.7688 11.5956 97.8288L13.2036 98.1168C13.2036 98.0448 13.1916 97.9728 13.1916 97.9248C13.1916 96.9408 13.8156 96.2448 14.7756 96.2448C15.5676 96.2448 16.1436 96.7248 16.1436 97.4328C16.1436 98.1408 15.5436 98.5128 15.0516 98.8488C14.1756 99.3768 13.5756 99.8808 13.5756 100.793C13.5756 101.021 13.6116 101.261 13.6476 101.477ZM13.5396 103.145C13.5396 103.745 14.0196 104.237 14.6076 104.237C15.1956 104.237 15.6516 103.757 15.6516 103.169C15.6516 102.557 15.1596 102.101 14.5956 102.101C14.0076 102.101 13.5396 102.569 13.5396 103.145Z" fill="white"/>
<defs>
<filter id="filter0_d_1591_5519" x="0" y="12.0825" width="118.6" height="32.1646" filterUnits="userSpaceOnUse" color-interpolation-filters="sRGB">
<feFlood flood-opacity="0" result="BackgroundImageFix"/>
<feColorMatrix in="SourceAlpha" type="matrix" values="0 0 0 0 0 0 0 0 0 0 0 0 0 0 0 0 0 0 127 0" result="hardAlpha"/>
<feOffset dx="3" dy="4"/>
<feGaussianBlur stdDeviation="2"/>
<feComposite in2="hardAlpha" operator="out"/>
<feColorMatrix type="matrix" values="0 0 0 0 0.7875 0 0 0 0 0.7875 0 0 0 0 0.7875 0 0 0 0.25 0"/>
<feBlend mode="normal" in2="BackgroundImageFix" result="effect1_dropShadow_1591_5519"/>
<feBlend mode="normal" in="SourceGraphic" in2="effect1_dropShadow_1591_5519" result="shape"/>
</filter>
<filter id="filter1_d_1591_5519" x="47.3994" y="49.2588" width="118.6" height="32.1646" filterUnits="userSpaceOnUse" color-interpolation-filters="sRGB">
<feFlood flood-opacity="0" result="BackgroundImageFix"/>
<feColorMatrix in="SourceAlpha" type="matrix" values="0 0 0 0 0 0 0 0 0 0 0 0 0 0 0 0 0 0 127 0" result="hardAlpha"/>
<feOffset dx="3" dy="4"/>
<feGaussianBlur stdDeviation="2"/>
<feComposite in2="hardAlpha" operator="out"/>
<feColorMatrix type="matrix" values="0 0 0 0 0.7875 0 0 0 0 0.7875 0 0 0 0 0.7875 0 0 0 0.25 0"/>
<feBlend mode="normal" in2="BackgroundImageFix" result="effect1_dropShadow_1591_5519"/>
<feBlend mode="normal" in="SourceGraphic" in2="effect1_dropShadow_1591_5519" result="shape"/>
</filter>
<filter id="filter2_d_1591_5519" x="0" y="86.4351" width="118.6" height="32.1646" filterUnits="userSpaceOnUse" color-interpolation-filters="sRGB">
<feFlood flood-opacity="0" result="BackgroundImageFix"/>
<feColorMatrix in="SourceAlpha" type="matrix" values="0 0 0 0 0 0 0 0 0 0 0 0 0 0 0 0 0 0 127 0" result="hardAlpha"/>
<feOffset dx="3" dy="4"/>
<feGaussianBlur stdDeviation="2"/>
<feComposite in2="hardAlpha" operator="out"/>
<feColorMatrix type="matrix" values="0 0 0 0 0.7875 0 0 0 0 0.7875 0 0 0 0 0.7875 0 0 0 0.25 0"/>
<feBlend mode="normal" in2="BackgroundImageFix" result="effect1_dropShadow_1591_5519"/>
<feBlend mode="normal" in="SourceGraphic" in2="effect1_dropShadow_1591_5519" result="shape"/>
</filter>
</defs>
</svg>
