<svg width="36" height="25" viewBox="0 0 36 25" fill="none" xmlns="http://www.w3.org/2000/svg">
<path d="M17.1346 6.808C17.1328 10.5407 14.0985 13.5714 10.3641 13.5714C6.6118 13.5714 3.56145 10.53 3.56323 6.79105C3.56502 3.05838 6.63142 -0.00356455 10.3632 3.11452e-06C14.1048 0.00267886 17.1364 3.05125 17.1346 6.808ZM10.3409 2.16379C7.77842 2.17984 5.72791 4.24195 5.73148 6.79997C5.73505 9.35798 7.83818 11.4486 10.39 11.4281C12.9248 11.4085 15.0083 9.29733 14.9931 6.76608C14.978 4.2259 12.8775 2.14774 10.3409 2.16379Z" fill="#194049"/>
<path d="M20.7112 20.9698C20.7728 22.2069 20.4124 23.4262 19.5491 24.484C19.2636 24.8327 18.9203 25.0628 18.4529 24.979C17.6074 24.8274 17.264 23.9265 17.7786 23.2371C19.3626 21.1152 18.568 17.9141 16.1767 16.7555C15.4766 16.4166 14.8415 16.3845 14.0932 16.7493C11.6057 17.9614 9.07262 17.9614 6.58507 16.7314C5.9081 16.397 5.30695 16.3907 4.65229 16.7029C3.1057 17.4405 2.2896 18.6731 2.16206 20.366C2.12995 20.7968 2.12549 21.2329 2.18971 21.6664C2.27355 22.2337 2.50723 22.7242 2.87202 23.1613C3.30371 23.6786 3.26536 24.335 2.79086 24.7373C2.31368 25.1422 1.66615 25.0682 1.22555 24.5491C0.426389 23.6063 0.0294858 22.52 0.00362022 21.2784C-0.0231372 20.0271 0.0883529 18.8123 0.678801 17.6831C1.59123 15.9376 2.99243 14.8103 4.91897 14.3625C5.72972 14.1743 6.51639 14.2813 7.24776 14.6747C8.39655 15.2928 9.61401 15.5514 10.9117 15.4498C11.6503 15.3918 12.3843 15.25 13.0193 14.8825C14.9245 13.7801 16.6298 14.3072 18.2174 15.5059C19.9754 16.8322 20.7442 18.6678 20.7112 20.9698Z" fill="#194049"/>
<path d="M24.2887 6.83207C24.2272 8.89328 23.4361 10.653 21.8154 12.0159C21.2955 12.4529 20.6354 12.4146 20.2385 11.9454C19.8425 11.4763 19.9059 10.8127 20.4267 10.3792C22.8438 8.36973 22.6128 4.68612 20.0932 2.96294C19.5054 2.56157 18.8552 2.31719 18.155 2.20392C17.4504 2.08975 17.0357 1.57333 17.1427 0.932045C17.2399 0.346948 17.817 -0.0321157 18.4797 0.0722385C19.9629 0.306812 21.2509 0.940965 22.306 2.01394C23.6064 3.33665 24.2432 4.9421 24.2887 6.83207Z" fill="#194049"/>
<path d="M27.8376 20.9752C27.9196 22.2881 27.5094 23.5332 26.5809 24.6008C26.2348 24.9986 25.7737 25.1003 25.3161 24.9005C24.8675 24.7052 24.6383 24.2833 24.6873 23.7615C24.7043 23.5769 24.7649 23.4056 24.8862 23.2763C25.7327 22.3764 25.7987 21.2722 25.6604 20.1466C25.4285 18.2575 24.3769 17.0311 22.5458 16.4808C21.8956 16.2855 21.5728 15.7218 21.7476 15.1242C21.9224 14.5284 22.5021 14.235 23.1577 14.4116C25.9209 15.1554 27.8304 17.6448 27.8367 20.5105C27.8376 20.6327 27.8376 20.7558 27.8376 20.9752Z" fill="#194049"/>
<path d="M31.4525 6.83207C31.391 8.89328 30.5999 10.653 28.9793 12.0159C28.4593 12.4529 27.7993 12.4146 27.4024 11.9454C27.0063 11.4763 27.0697 10.8127 27.5906 10.3792C30.0076 8.36973 29.7766 4.68612 27.257 2.96294C26.6692 2.56157 26.019 2.31719 25.3188 2.20392C24.6142 2.08975 24.1995 1.57333 24.3065 0.932045C24.4037 0.346948 24.9808 -0.0321157 25.6435 0.0722385C27.1268 0.306812 28.4147 0.940965 29.4698 2.01394C30.7702 3.33665 31.4071 4.9421 31.4525 6.83207Z" fill="#194049"/>
<path d="M35.0015 20.9752C35.0836 22.2881 34.6733 23.5332 33.7448 24.6008C33.3987 24.9986 32.9376 25.1003 32.4801 24.9005C32.0314 24.7052 31.8022 24.2833 31.8513 23.7615C31.8682 23.5769 31.9289 23.4056 32.0502 23.2763C32.8966 22.3764 32.9626 21.2722 32.8244 20.1466C32.5925 18.2575 31.5409 17.0311 29.7098 16.4808C29.0596 16.2855 28.7367 15.7218 28.9115 15.1242C29.0863 14.5284 29.6661 14.235 30.3216 14.4116C33.0848 15.1554 34.9944 17.6448 35.0006 20.5105C35.0015 20.6327 35.0015 20.7558 35.0015 20.9752Z" fill="#194049"/>
</svg>
