<svg width="35" height="35" viewBox="0 0 35 35" fill="none" xmlns="http://www.w3.org/2000/svg">
<path d="M34.0196 11.6653C33.6588 10.5546 33.0547 9.53847 32.2512 8.69107C31.4476 7.84367 30.465 7.18638 29.3751 6.76716C29.0064 6.63946 28.6243 6.55437 28.2363 6.51356C27.7033 6.4428 27.193 6.2533 26.7431 5.95903C26.2931 5.66476 25.915 5.27324 25.6365 4.81334C25.628 4.79777 25.6184 4.78284 25.6078 4.76868C22.9984 0.864228 17.9201 -0.631839 13.735 1.73029C12.4901 2.4202 11.4355 3.40757 10.6651 4.60429C9.89476 5.801 9.43267 7.16983 9.32011 8.5886C9.27197 9.10802 9.09317 9.60681 8.80034 10.0385C8.50752 10.4702 8.11021 10.8208 7.6454 11.0576L7.61511 11.0735C6.9532 11.4292 6.26578 11.7323 5.60706 12.0911C3.91322 13.0162 2.3964 14.3799 1.56543 16.1471C-0.225702 19.9527 0.472892 24.6434 3.68194 27.5032C5.20193 28.8557 7.06006 29.8526 9.08246 30.1763C10.1378 30.336 11.2064 30.3895 12.2724 30.3358H12.2851C13.9407 30.2704 14.9503 31.0854 16.062 32.1557C17.9201 33.9436 20.5279 34.8081 23.0575 34.2084C25.3446 33.6677 27.1437 32.0695 28.1964 29.9993C28.782 28.8181 29.1489 27.5407 29.2794 26.2288C29.4389 24.8556 29.2794 23.5174 29.3304 22.1425C29.3308 21.9401 29.3619 21.739 29.4229 21.546C29.5824 21.0787 30.0163 20.7597 30.4389 20.5013C31.5875 19.7997 32.5733 18.8612 33.3306 17.7484C34.4933 16.0163 34.6863 13.6159 34.0196 11.6653Z" fill="#194049"/>
</svg>
