<?xml version="1.0" encoding="UTF-8"?><svg id="Layer_2" xmlns="http://www.w3.org/2000/svg" viewBox="0 0 284.38 108.73"><defs><style>.cls-1{fill:#f4ec4e;}.cls-2{fill:#184049;}</style></defs><g id="Layer_1-2"><g><path class="cls-2" d="M282.85,76.18V28.43c-.08-8.37,.29-16.73,1.09-25.06l.32-3.37h-25.89l.3,3.37c.82,8.33,1.19,16.7,1.11,25.06v19.64h-49.42V28.43c-.08-8.37,.29-16.73,1.09-25.06l.32-3.37h-25.83l.32,3.37c.8,8.33,1.17,16.7,1.09,25.06v47.75c.08,8.37-.29,16.73-1.09,25.07l-.32,3.37h25.95l-.3-3.37c-.8-8.33-1.17-16.7-1.09-25.07v-19.64h49.4v19.64c.08,8.37-.28,16.73-1.09,25.07l-.32,3.37h25.89l-.32-3.37c-.91-9.66-1.15-14.8-1.21-25.07Z"/><path class="cls-2" d="M.3,102.84l-.3,3.39H11.53l-.36-3.43c-.91-8.31-1.32-16.66-1.23-25.02V25.77L46.62,108.73h7.2L87.98,26.34v51.48c.07,8.37-.29,16.73-1.09,25.07l-.32,3.39h25.89l-.3-3.39c-.85-9.96-1.19-15.02-1.23-25.02V30.11c-.04-8.37,.37-16.74,1.23-25.06l.3-3.41h-23.43l-31.08,73.68L24.86,1.63H.1l.3,3.41c.81,8.33,1.18,16.7,1.11,25.06v47.71c.04,8.36-.36,16.71-1.21,25.02Z"/><path class="cls-1" d="M149.5,46.6s26.78-30.06,28.18-10.96c2.41,32.84-15.47,49.72-15.47,49.72,0,0-43.62-17.09-41.25-30.92,.4-2.33,.27-3.49,2.78-6.99,2.75-3.83-2.07-10,25.76-.85Z"/></g></g></svg>